<?xml version="1.0" encoding="UTF-8" standalone="no"?><!DOCTYPE svg PUBLIC "-//W3C//DTD SVG 1.1//EN" "http://www.w3.org/Graphics/SVG/1.1/DTD/svg11.dtd"><svg width="100%" height="100%" viewBox="0 0 396 134" version="1.1" xmlns="http://www.w3.org/2000/svg" xmlns:xlink="http://www.w3.org/1999/xlink" xml:space="preserve" style="fill-rule:evenodd;clip-rule:evenodd;stroke-linejoin:round;stroke-miterlimit:1.41421;"><path d="M187.453,88.825c0.048,0.467 0.096,0.934 0.145,1.401c0,0.002 -0.001,-0.004 -0.001,-0.003c0.074,0.702 0.149,1.405 0.224,2.107l0,-0.004c0.125,1.147 0.253,2.294 0.384,3.44l0,-0.005c0.026,0.227 0.052,0.454 0.079,0.681c0,0.001 -0.001,-0.007 -0.001,-0.005c0.053,0.448 0.106,0.896 0.159,1.344c0.001,0.002 0,-0.006 0,-0.005c0.027,0.223 0.054,0.446 0.081,0.669c0,0.001 -0.001,-0.007 -0.001,-0.005c0.027,0.221 0.055,0.442 0.082,0.664l-0.001,-0.005c0.055,0.436 0.11,0.873 0.165,1.31c0,0.002 -0.001,-0.007 -0.001,-0.006c0.028,0.216 0.11,0.861 0.083,0.646c0.056,0.428 0.112,0.855 0.169,1.283c0,0.002 -0.001,-0.008 -0.001,-0.006c0.057,0.421 0.114,0.842 0.172,1.263l-0.001,-0.006c0.087,0.622 0.087,0.621 0.175,1.243c0,0.003 -0.001,-0.009 -0.001,-0.007c0.03,0.206 0.059,0.412 0.089,0.618c0,0.003 -0.001,-0.01 -0.001,-0.007c0.03,0.204 0.06,0.408 0.09,0.612l-0.001,-0.007c0.09,0.601 0.09,0.6 0.181,1.201c0.001,0.003 -0.001,-0.011 -0.001,-0.008c0.061,0.393 0.123,0.786 0.185,1.179l-0.002,-0.009c0.062,0.383 0.124,0.766 0.187,1.148c0.064,0.377 0.128,0.754 0.192,1.131c0.001,0.003 -0.002,-0.013 -0.002,-0.01c0.033,0.187 0.066,0.374 0.098,0.562l-0.001,-0.011c0.097,0.548 0.097,0.547 0.197,1.095c0.001,0.003 -0.002,-0.015 -0.002,-0.011c0.034,0.181 0.068,0.362 0.101,0.543l-0.002,-0.012c0.1,0.523 0.201,1.045 0.305,1.567l-0.002,-0.013c0.069,0.338 0.139,0.676 0.209,1.014c0.069,0.32 0.138,0.641 0.208,0.961c0.189,0.842 0.387,1.682 0.599,2.518c0.001,0.003 -0.003,-0.012 -0.002,-0.009c0.092,0.357 0.186,0.713 0.283,1.069c0.001,0.003 -0.004,-0.014 -0.003,-0.011c0.058,0.21 0.058,0.21 0.117,0.419c0.001,0.004 -0.004,-0.014 -0.003,-0.01c0.02,0.07 0.04,0.141 0.06,0.211l-0.003,-0.01c0.059,0.203 0.059,0.203 0.118,0.406c0.001,0.004 -0.004,-0.015 -0.003,-0.011c0.058,0.196 0.117,0.392 0.177,0.587l-0.004,-0.012c0.06,0.19 0.12,0.379 0.18,0.568c0.002,0.004 -0.006,-0.017 -0.004,-0.013c0.04,0.124 0.081,0.248 0.122,0.371l-0.004,-0.013c0.021,0.063 0.042,0.126 0.064,0.189c0.001,0.005 -0.007,-0.019 -0.005,-0.014c0.059,0.174 0.12,0.348 0.182,0.522c0.059,0.165 0.12,0.33 0.182,0.494c0.002,0.006 -0.009,-0.021 -0.007,-0.016c0.021,0.053 0.041,0.107 0.061,0.16c0.255,0.656 0.528,1.306 0.846,1.934c0.238,0.469 0.499,0.928 0.807,1.355c0.179,0.249 0.376,0.491 0.606,0.695c0.067,0.059 0.137,0.115 0.212,0.163c0.039,0.024 0.08,0.049 0.124,0.062c0.013,0.003 0.025,0.001 0.039,0c0.237,-0.034 0.454,-0.144 0.65,-0.277c0.34,-0.231 0.63,-0.534 0.891,-0.849c0.358,-0.432 0.668,-0.905 0.949,-1.39c0.392,-0.677 0.728,-1.383 1.04,-2.099c0.002,-0.005 -0.007,0.018 -0.006,0.013c0.075,-0.174 0.149,-0.349 0.221,-0.524c0.226,-0.556 0.434,-1.118 0.635,-1.683l-0.007,0.02c0.253,-0.729 0.491,-1.463 0.713,-2.203c0.208,-0.693 0.401,-1.389 0.588,-2.088c0.001,-0.004 -0.005,0.018 -0.003,0.014c0.064,-0.247 0.128,-0.493 0.192,-0.74c0.001,-0.004 -0.004,0.017 -0.003,0.013c0.064,-0.252 0.127,-0.504 0.189,-0.756l-0.002,0.012c0.031,-0.13 0.063,-0.259 0.095,-0.389c0,-0.004 -0.004,0.015 -0.003,0.011c0.156,-0.651 0.307,-1.303 0.454,-1.957c0,-0.003 -0.003,0.013 -0.003,0.01c0.06,-0.271 0.12,-0.542 0.179,-0.814c0,-0.003 -0.003,0.012 -0.002,0.009c0.059,-0.275 0.117,-0.551 0.175,-0.827l-0.001,0.009c0.029,-0.141 0.058,-0.282 0.087,-0.422c0.001,-0.003 -0.002,0.011 -0.001,0.008c0.055,-0.272 0.111,-0.545 0.166,-0.817c0.058,-0.295 0.117,-0.589 0.174,-0.884c0.027,-0.139 0.107,-0.557 0.081,-0.417c0.055,-0.292 0.11,-0.584 0.165,-0.875c0.001,-0.003 -0.001,0.009 -0.001,0.006c0.055,-0.295 0.109,-0.59 0.163,-0.885c0.001,-0.002 -0.001,0.008 -0.001,0.006c0.054,-0.299 0.108,-0.597 0.161,-0.896c0.001,-0.002 -0.001,0.008 -0.001,0.006c0.027,-0.151 0.054,-0.303 0.081,-0.454c0,-0.002 -0.002,0.007 -0.001,0.005c0.053,-0.303 0.105,-0.607 0.158,-0.91l-0.001,0.005c0.078,-0.459 0.156,-0.919 0.233,-1.379c0,-0.002 -0.001,0.006 -0.001,0.004c0.077,-0.466 0.153,-0.932 0.229,-1.398l-0.001,0.007c0.05,-0.316 0.1,-0.632 0.151,-0.948c0,-0.003 -0.002,0.011 -0.001,0.008c0.049,-0.315 0.2,-1.262 0.148,-0.947c0.051,-0.328 0.102,-0.657 0.152,-0.985c0.047,-0.309 0.188,-1.237 0.141,-0.928c0.145,-0.972 0.288,-1.944 0.43,-2.917c0,-0.002 -0.001,0.006 -0.001,0.005c0.047,-0.328 0.094,-0.656 0.142,-0.985l-0.001,0.005c0.047,-0.33 0.094,-0.659 0.141,-0.988c0,-0.001 -0.001,0.005 -0.001,0.004c0.047,-0.33 0.093,-0.661 0.14,-0.991c0,-0.001 -0.001,0.005 -0.001,0.003c0.093,-0.661 0.185,-1.323 0.277,-1.985l-0.001,0.004c0.505,-3.666 1,-7.329 1.508,-10.995c0.133,-0.952 0.267,-1.904 0.403,-2.855c0.387,-2.697 0.786,-5.391 1.226,-8.08c0.339,-2.072 0.699,-4.141 1.101,-6.203c0.313,-1.612 0.652,-3.219 1.03,-4.817c0.289,-1.222 0.602,-2.44 0.952,-3.646c0.257,-0.887 0.534,-1.768 0.839,-2.639c0.215,-0.611 0.445,-1.217 0.691,-1.816c0.193,-0.47 0.401,-0.935 0.623,-1.393c0.149,-0.306 0.304,-0.609 0.467,-0.907c0.138,-0.253 0.282,-0.502 0.433,-0.747c0.811,-1.322 1.84,-2.559 3.183,-3.368c0.203,-0.122 0.412,-0.233 0.627,-0.333c0.307,-0.143 0.626,-0.261 0.952,-0.352c0.429,-0.12 0.87,-0.192 1.315,-0.214c0.576,-0.028 1.156,0.026 1.718,0.155c0.405,0.094 0.8,0.228 1.179,0.399c0.258,0.117 0.508,0.25 0.749,0.398c1.469,0.905 2.533,2.326 3.324,3.835c0.11,0.209 0.215,0.42 0.315,0.634c0.174,0.368 0.335,0.743 0.485,1.121c0.186,0.465 0.356,0.937 0.514,1.413c0.223,0.675 0.423,1.358 0.605,2.045c0.218,0.82 0.41,1.647 0.586,2.478c0.228,1.082 0.427,2.171 0.606,3.262c0.226,1.369 0.42,2.743 0.596,4.119c0.229,1.787 0.426,3.578 0.607,5.369c0.253,2.497 0.475,4.996 0.697,7.495c0.087,0.987 0.175,1.974 0.263,2.96c0,0.002 -0.001,-0.005 -0.001,-0.004c0.042,0.46 0.164,1.841 0.125,1.381c0.063,0.684 0.127,1.367 0.192,2.051c0,0.002 0,-0.006 0,-0.005c0.043,0.45 0.087,0.901 0.132,1.351l-0.001,-0.006c0.023,0.224 0.045,0.448 0.068,0.672c0,0.002 -0.001,-0.009 -0.001,-0.007c0.046,0.442 0.092,0.883 0.139,1.324c0,0.002 -0.001,-0.011 -0.001,-0.008c0.024,0.219 0.048,0.438 0.072,0.658l-0.001,-0.009c0.023,0.212 0.047,0.424 0.071,0.636c0.024,0.214 0.102,0.857 0.074,0.643c0.051,0.421 0.102,0.842 0.154,1.263c0,0.004 -0.002,-0.016 -0.002,-0.012c0.04,0.309 0.079,0.619 0.12,0.928c0,0.003 -0.001,-0.009 -0.001,-0.006c0.027,0.203 0.055,0.406 0.083,0.609c0,0.002 -0.002,-0.01 -0.002,-0.007c0.028,0.2 0.056,0.4 0.085,0.601c0,0.002 -0.002,-0.011 -0.001,-0.008c0.014,0.1 0.029,0.201 0.043,0.301c0.001,0.003 -0.001,-0.01 -0.001,-0.008c0.015,0.1 0.03,0.2 0.044,0.3c0.001,0.002 -0.001,-0.011 -0.001,-0.009c0.015,0.099 0.03,0.198 0.045,0.298l-0.001,-0.009c0.029,0.193 0.059,0.386 0.09,0.579c0,0.003 -0.003,-0.012 -0.002,-0.009c0.015,0.097 0.031,0.193 0.047,0.29c0,0.004 -0.002,-0.012 -0.002,-0.009c0.016,0.096 0.032,0.192 0.047,0.288c0.001,0.004 -0.002,-0.013 -0.001,-0.01c0.016,0.096 0.032,0.191 0.048,0.286l-0.002,-0.01c0.032,0.185 0.064,0.37 0.096,0.555c0.001,0.003 -0.003,-0.015 -0.002,-0.011c0.017,0.093 0.034,0.186 0.05,0.279c0.001,0.004 -0.003,-0.015 -0.002,-0.012c0.033,0.18 0.066,0.36 0.1,0.539l-0.002,-0.012c0.034,0.176 0.068,0.352 0.102,0.528c0.001,0.004 -0.003,-0.018 -0.002,-0.013c0.018,0.088 0.036,0.177 0.053,0.266c0.001,0.004 -0.003,-0.018 -0.002,-0.014c0.069,0.332 0.139,0.664 0.213,0.994l-0.003,-0.015c0.054,0.235 0.109,0.47 0.165,0.705c0.056,0.226 0.114,0.453 0.173,0.679c0.002,0.006 -0.007,-0.025 -0.005,-0.019c0.021,0.078 0.042,0.156 0.063,0.234l-0.005,-0.02c0.058,0.212 0.118,0.423 0.18,0.633c0.097,0.32 0.196,0.638 0.305,0.953c0.08,0.229 0.163,0.456 0.252,0.682c0.08,0.204 0.165,0.406 0.255,0.605c0.061,0.134 0.124,0.267 0.191,0.398c0.122,0.241 0.254,0.477 0.403,0.702c0.112,0.171 0.235,0.336 0.375,0.485c0.059,0.064 0.123,0.125 0.192,0.179c0.049,0.038 0.108,0.085 0.171,0.098c0.026,0.005 0.054,0.002 0.081,0c0.106,-0.01 0.212,-0.022 0.318,-0.037c1.034,-0.157 2.015,-0.553 2.931,-1.048c1.281,-0.692 2.448,-1.575 3.555,-2.516c0.004,-0.003 -0.013,0.012 -0.01,0.009c0.268,-0.23 0.532,-0.464 0.792,-0.702c0.63,-0.575 1.236,-1.174 1.832,-1.785l-0.013,0.014c0.155,-0.161 0.31,-0.323 0.464,-0.485c0.156,-0.166 0.311,-0.333 0.466,-0.5c0.153,-0.168 0.307,-0.336 0.46,-0.505c0.003,-0.004 -0.014,0.015 -0.011,0.011c0.628,-0.701 1.242,-1.414 1.846,-2.136c0.002,-0.004 -0.01,0.012 -0.008,0.009c0.079,-0.095 0.158,-0.19 0.237,-0.286c0.002,-0.003 -0.01,0.013 -0.008,0.009c0.155,-0.188 0.31,-0.378 0.464,-0.567c0.003,-0.003 -0.009,0.011 -0.007,0.009c0.308,-0.381 0.613,-0.764 0.916,-1.148c0.002,-0.002 -0.008,0.01 -0.006,0.008c0.078,-0.099 0.155,-0.198 0.233,-0.296l-0.006,0.007c0.077,-0.099 0.154,-0.198 0.232,-0.298c0.001,-0.002 -0.008,0.01 -0.006,0.008c0.152,-0.197 0.304,-0.394 0.456,-0.592c0.002,-0.002 -0.007,0.009 -0.005,0.007c0.075,-0.098 0.299,-0.393 0.224,-0.294c0.152,-0.199 0.302,-0.398 0.453,-0.597c0.001,-0.002 -0.006,0.008 -0.005,0.006c0.076,-0.102 0.152,-0.203 0.228,-0.304c0.073,-0.097 0.29,-0.389 0.218,-0.291c0.149,-0.201 0.298,-0.402 0.447,-0.603c0.001,-0.002 -0.006,0.006 -0.004,0.005c0.295,-0.401 0.588,-0.804 0.881,-1.207c0.002,-0.002 -0.006,0.009 -0.005,0.007c0.292,-0.404 0.582,-0.808 0.872,-1.213l-0.005,0.007c0.287,-0.403 0.573,-0.806 0.858,-1.209c0.002,-0.002 -0.005,0.007 -0.004,0.005c0.139,-0.197 0.278,-0.395 0.417,-0.592c0.281,-0.4 0.561,-0.801 0.84,-1.202c0.001,-0.001 -0.003,0.005 -0.002,0.004c0.137,-0.197 0.552,-0.784 0.411,-0.59c0.917,-1.321 1.831,-2.643 2.751,-3.961c0.251,-0.359 0.502,-0.717 0.754,-1.074c0.849,-1.198 1.705,-2.392 2.601,-3.555c1.059,-1.374 2.171,-2.708 3.343,-3.987c2.157,-2.355 4.52,-4.528 7.106,-6.406c2.403,-1.743 4.997,-3.222 7.739,-4.361c1.7,-0.706 3.453,-1.281 5.24,-1.723c0.737,-0.183 1.479,-0.343 2.225,-0.482c0.403,-0.075 0.808,-0.138 1.212,-0.206c0.121,-0.02 0.242,-0.043 0.362,-0.064c0.297,-0.051 0.594,-0.099 0.892,-0.142c0.753,-0.11 1.51,-0.195 2.268,-0.253c0.609,-0.046 1.22,-0.075 1.831,-0.083c0.534,-0.007 1.069,0.001 1.603,0.027c1.667,0.08 3.335,0.327 4.933,0.818c1.535,0.472 3.005,1.175 4.287,2.148c0.539,0.409 1.036,0.865 1.5,1.356l0.08,0.085c0.105,0.119 0.107,0.116 0.201,0.245l0,0c0.176,0.273 0.235,0.335 0.354,0.64c0.12,0.305 0.118,0.391 0.175,0.711l0,0.001c0.004,0.157 0.021,0.313 0.012,0.47c-0.019,0.313 -0.091,0.621 -0.213,0.911c-0.122,0.29 -0.291,0.556 -0.502,0.789c-0.211,0.233 -0.46,0.428 -0.736,0.578c-0.553,0.3 -1.204,0.404 -1.823,0.291l0,0c-0.113,-0.028 -0.228,-0.049 -0.339,-0.084c-0.111,-0.035 -0.22,-0.077 -0.326,-0.126c-0.181,-0.083 -0.274,-0.144 -0.423,-0.237c-0.164,-0.124 -0.326,-0.251 -0.492,-0.373c-0.716,-0.519 -1.489,-0.958 -2.295,-1.323c-1.515,-0.686 -3.149,-1.103 -4.807,-1.233c-0.483,-0.038 -0.969,-0.051 -1.454,-0.042c-0.346,0.007 -0.693,0.029 -1.039,0.053c-0.352,0.025 -0.704,0.054 -1.056,0.088c-0.78,0.076 -1.558,0.175 -2.331,0.3c-0.283,0.046 -0.565,0.095 -0.847,0.148c-0.142,0.027 -0.293,0.051 -0.434,0.084c-1.265,0.296 -2.514,0.672 -3.73,1.128c-0.593,0.223 -1.179,0.465 -1.753,0.732c-0.29,0.136 -0.577,0.28 -0.862,0.426c-0.004,0.002 0.012,-0.006 0.009,-0.005c-0.524,0.27 -1.044,0.548 -1.559,0.835c-0.003,0.001 0.012,-0.007 0.009,-0.006c-0.06,0.034 -0.121,0.068 -0.182,0.102c-0.003,0.002 0.013,-0.007 0.01,-0.005c-0.119,0.067 -0.237,0.134 -0.355,0.201c-0.003,0.002 0.012,-0.007 0.009,-0.005c-0.06,0.035 -0.121,0.07 -0.181,0.105c-0.004,0.001 0.012,-0.007 0.009,-0.006c-0.061,0.036 -0.121,0.071 -0.182,0.106c-0.003,0.002 0.012,-0.007 0.009,-0.005c-0.176,0.103 -0.351,0.206 -0.527,0.311c-0.003,0.001 0.013,-0.008 0.01,-0.006c-0.061,0.037 -0.121,0.073 -0.182,0.109c-0.003,0.002 0.012,-0.007 0.009,-0.005c-0.06,0.037 -0.121,0.073 -0.181,0.11c-0.003,0.002 0.012,-0.008 0.009,-0.006c-1.281,0.784 -2.528,1.619 -3.74,2.505c-0.003,0.002 0.012,-0.009 0.009,-0.007c-0.058,0.043 -0.116,0.086 -0.174,0.129c-0.003,0.003 0.011,-0.009 0.008,-0.006c-0.058,0.043 -0.116,0.086 -0.174,0.129c-0.003,0.002 0.013,-0.009 0.009,-0.007c-0.167,0.126 -0.334,0.253 -0.5,0.38c-0.004,0.002 0.012,-0.009 0.009,-0.007c-0.112,0.086 -0.224,0.172 -0.335,0.259l0.009,-0.007c-0.272,0.213 -0.543,0.429 -0.812,0.648l0.009,-0.008c-0.159,0.13 -0.317,0.261 -0.475,0.393c-0.055,0.046 -0.11,0.092 -0.165,0.139c-0.003,0.002 0.007,-0.006 0.01,-0.008c-0.159,0.134 -0.317,0.269 -0.473,0.405c-0.052,0.045 -0.104,0.091 -0.156,0.136c-0.003,0.003 0.006,-0.005 0.009,-0.008c-0.156,0.137 -0.311,0.275 -0.466,0.414c-0.003,0.003 0.013,-0.011 0.01,-0.008c-0.503,0.455 -0.994,0.92 -1.476,1.396l0.01,-0.009c-0.051,0.05 -0.101,0.1 -0.152,0.151c-0.003,0.003 0.013,-0.013 0.01,-0.01c-0.097,0.098 -0.194,0.196 -0.29,0.294c-0.004,0.004 0.013,-0.013 0.01,-0.01c-0.047,0.049 -0.094,0.097 -0.141,0.146c-0.183,0.19 -0.365,0.382 -0.544,0.575l-0.107,0.116c-0.125,0.145 -0.25,0.291 -0.374,0.437c-0.518,0.617 -1.025,1.242 -1.521,1.877l0.01,-0.013c-0.199,0.258 -0.246,0.317 -0.441,0.574c-0.073,0.097 -0.147,0.195 -0.22,0.292c-0.003,0.003 0.005,-0.007 0.008,-0.01l-0.164,0.219l-0.083,0.111c-0.098,0.145 -0.195,0.291 -0.292,0.438c-0.387,0.597 -0.752,1.208 -1.086,1.837c-0.965,1.821 -1.675,3.799 -1.903,5.855c-0.045,0.406 -0.071,0.815 -0.076,1.224c-0.008,0.558 0.022,1.118 0.091,1.672c0.105,0.84 0.298,1.667 0.572,2.467c0.422,1.237 1.033,2.404 1.764,3.485c1.086,1.607 2.431,3.028 3.888,4.302c0.602,0.526 1.224,1.028 1.862,1.508c0.204,0.153 0.23,0.172 0.429,0.318c0.197,0.145 0.395,0.289 0.601,0.423c0.272,0.176 0.554,0.337 0.844,0.481c0.92,0.456 1.916,0.742 2.93,0.894c1.115,0.167 2.251,0.177 3.373,0.083c1.442,-0.12 2.867,-0.409 4.259,-0.802c2.682,-0.756 5.254,-1.878 7.704,-3.2c0.521,-0.281 1.037,-0.574 1.549,-0.872c0.004,-0.002 -0.014,0.009 -0.011,0.007c0.595,-0.351 1.185,-0.71 1.767,-1.082c0.548,-0.35 1.085,-0.712 1.63,-1.067c0.245,-0.158 0.491,-0.315 0.738,-0.471c0.712,-0.447 1.431,-0.883 2.16,-1.302c0.68,-0.39 1.369,-0.765 2.066,-1.122c3.387,-1.735 7.021,-3.094 10.818,-3.541c0.581,-0.068 1.164,-0.115 1.749,-0.139c0.989,-0.041 1.98,-0.016 2.966,0.074c1.505,0.138 2.992,0.431 4.447,0.837c1.331,0.371 2.632,0.838 3.922,1.333c1.127,0.436 2.246,0.892 3.374,1.327l-0.007,-0.003c0.31,0.119 0.622,0.236 0.934,0.351c0.611,0.22 1.225,0.432 1.847,0.62c0.956,0.289 1.929,0.526 2.917,0.68c0.4,0.062 0.802,0.111 1.205,0.145c0.565,0.048 1.133,0.075 1.7,0.106c0.224,0.013 0.449,0.025 0.674,0.037c0.002,0 -0.009,0 -0.006,0c0.454,0.023 0.908,0.046 1.362,0.067c0.003,0 -0.008,0 -0.006,0c0.461,0.019 0.921,0.039 1.381,0.057l-0.005,0c0.233,0.009 0.467,0.018 0.7,0.026c0.002,0.001 -0.007,0 -0.005,0c2.912,0.103 5.825,0.165 8.738,0.204l-0.003,-0.001c0.769,0.009 1.539,0.017 2.308,0.024c0.001,0 -0.003,0 -0.002,0c0.262,0.002 0.524,0.004 0.787,0.006c1.056,0.007 2.112,0.011 3.169,0.015c1.652,0.002 3.305,0.002 4.958,0l-0.002,0c5.442,-0.013 10.884,-0.046 16.326,-0.068c1.986,-0.007 3.973,-0.012 5.959,-0.015c1.726,-0.001 3.452,-0.002 5.178,0.001l1.066,0.003l1.439,0.597l0.601,1.431l-0.596,1.433l-1.437,0.602c-0.704,0.004 -1.408,0.008 -2.113,0.012c0,0 0.003,0 0.002,0c-1.376,0.01 -2.752,0.021 -4.128,0.033l0.002,0c-2.629,0.025 -5.25,0.054 -7.88,0.085l0,0c-4.795,0.061 -9.593,0.127 -14.391,0.179c-0.56,0 -1.12,0.011 -1.681,0.016c-1.366,0.013 -2.732,0.022 -4.099,0.029c-0.796,0 -1.593,0.006 -2.389,0.008c-1.798,0.004 -3.595,-0.002 -5.393,-0.017c-4.033,-0.035 -8.066,-0.134 -12.095,-0.322c-0.207,-0.011 -0.414,-0.024 -0.622,-0.039c-0.655,-0.054 -1.306,-0.134 -1.954,-0.241c-1.092,-0.181 -2.171,-0.445 -3.232,-0.759c-1.711,-0.507 -3.377,-1.151 -5.043,-1.785c-0.001,-0.001 0.004,0.001 0.003,0.001c-0.161,-0.061 -0.323,-0.123 -0.484,-0.184c-0.002,-0.001 0.01,0.004 0.008,0.003c-0.161,-0.06 -0.322,-0.12 -0.483,-0.181c-0.313,-0.116 -0.627,-0.23 -0.941,-0.343c-1.079,-0.382 -2.169,-0.735 -3.282,-1.004c-1.318,-0.319 -2.664,-0.518 -4.02,-0.553c-0.616,-0.016 -1.233,0.001 -1.847,0.05c-3.181,0.254 -6.24,1.352 -9.079,2.767c-0.468,0.233 -0.931,0.476 -1.39,0.726c-0.004,0.002 0.015,-0.008 0.011,-0.006c-0.071,0.039 -0.143,0.078 -0.214,0.117c-0.004,0.002 0.015,-0.008 0.012,-0.006c-0.21,0.117 -0.419,0.234 -0.628,0.352c-0.004,0.002 0.015,-0.008 0.011,-0.006c-0.577,0.331 -1.148,0.671 -1.714,1.021c-0.003,0.002 0.013,-0.008 0.01,-0.006c-0.076,0.048 -0.153,0.095 -0.229,0.143c-0.003,0.002 0.013,-0.008 0.01,-0.006c-0.151,0.095 -0.302,0.191 -0.452,0.287c-0.003,0.002 0.013,-0.008 0.009,-0.006c-0.077,0.049 -0.155,0.099 -0.232,0.149c-0.004,0.002 0.012,-0.008 0.009,-0.006c-0.23,0.15 -0.459,0.3 -0.687,0.451c-0.003,0.002 0.012,-0.008 0.009,-0.006c-0.471,0.315 -0.938,0.635 -1.409,0.949c-0.24,0.158 -0.481,0.315 -0.722,0.471c-1.256,0.803 -2.538,1.565 -3.853,2.268c-1.035,0.554 -2.089,1.072 -3.162,1.549c-0.879,0.39 -1.771,0.753 -2.675,1.081c-0.717,0.26 -1.442,0.499 -2.176,0.711c-0.558,0.162 -1.12,0.309 -1.687,0.44c-0.475,0.11 -0.953,0.208 -1.433,0.293c-2.881,0.512 -5.889,0.564 -8.729,-0.213c-0.435,-0.119 -0.865,-0.257 -1.287,-0.415c-0.779,-0.29 -1.532,-0.648 -2.247,-1.072c-0.61,-0.361 -1.184,-0.777 -1.752,-1.202c-0.665,-0.498 -1.315,-1.017 -1.947,-1.557c-1.767,-1.512 -3.394,-3.202 -4.746,-5.099c-1.09,-1.529 -1.998,-3.195 -2.632,-4.965c-0.382,-1.065 -0.66,-2.161 -0.839,-3.278c-0.33,0.458 -0.663,0.914 -0.997,1.369c-1.379,1.869 -2.788,3.719 -4.276,5.504c-1.122,1.346 -2.277,2.663 -3.496,3.923c-0.914,0.946 -1.863,1.86 -2.858,2.721c-0.903,0.783 -1.844,1.523 -2.835,2.192c-1.259,0.852 -2.602,1.594 -4.032,2.12c-1.048,0.385 -2.143,0.652 -3.258,0.752c-0.537,0.047 -1.082,0.025 -1.613,-0.074c-0.405,-0.075 -0.803,-0.194 -1.184,-0.353c-0.26,-0.108 -0.513,-0.236 -0.755,-0.38c-0.204,-0.12 -0.4,-0.252 -0.589,-0.394c-1.275,-0.957 -2.17,-2.332 -2.841,-3.757c-0.132,-0.281 -0.257,-0.567 -0.375,-0.855c-0.152,-0.373 -0.294,-0.751 -0.426,-1.131c-0.191,-0.553 -0.364,-1.113 -0.523,-1.677c-0.22,-0.78 -0.413,-1.567 -0.588,-2.358c-0.229,-1.034 -0.428,-2.075 -0.604,-3.119c-0.222,-1.318 -0.419,-2.64 -0.591,-3.965c-0.199,-1.532 -0.377,-3.066 -0.539,-4.602c-0.217,-2.055 -0.409,-4.113 -0.596,-6.17c-0.127,-1.406 -0.252,-2.811 -0.378,-4.216c0,-0.001 0.001,0.004 0,0.003c-0.042,-0.465 -0.084,-0.93 -0.126,-1.395c0,-0.001 0.001,0.004 0,0.003c-0.021,-0.232 -0.042,-0.464 -0.063,-0.696c0,-0.001 0,0.004 0,0.003c-0.021,-0.232 -0.043,-0.463 -0.064,-0.695c-0.001,-0.001 0,0.005 0,0.004c-0.022,-0.231 -0.043,-0.462 -0.065,-0.693l0,0.004c-0.065,-0.688 -0.065,-0.688 -0.132,-1.375c0,-0.002 0.001,0.007 0,0.005c-0.022,-0.228 -0.045,-0.457 -0.067,-0.685c-0.001,-0.002 0,0.008 0,0.006c-0.023,-0.228 -0.046,-0.455 -0.069,-0.683l0.001,0.007c-0.047,-0.449 -0.093,-0.898 -0.141,-1.347c0,-0.003 0.001,0.01 0.001,0.008c-0.025,-0.224 -0.049,-0.448 -0.073,-0.671c0,-0.003 0.001,0.011 0.001,0.008c-0.025,-0.222 -0.05,-0.444 -0.075,-0.666l0.001,0.009c-0.049,-0.434 -0.1,-0.867 -0.152,-1.301c-0.077,-0.636 -0.158,-1.271 -0.241,-1.907l0.001,0.01c-0.042,-0.313 -0.042,-0.312 -0.085,-0.625c0,-0.003 0.001,0.009 0.001,0.007c-0.014,-0.105 -0.029,-0.209 -0.044,-0.314c0,-0.002 0.002,0.01 0.001,0.008c-0.014,-0.103 -0.029,-0.206 -0.044,-0.309c-0.014,-0.099 -0.058,-0.396 -0.043,-0.297c-0.044,-0.301 -0.09,-0.602 -0.136,-0.902c0,-0.003 0.002,0.011 0.001,0.008c-0.015,-0.1 -0.031,-0.201 -0.047,-0.302c-0.001,-0.003 0.002,0.012 0.001,0.009c-0.031,-0.196 -0.063,-0.393 -0.095,-0.589c0,-0.003 0.002,0.013 0.001,0.01c-0.016,-0.099 -0.032,-0.198 -0.049,-0.296c-0.001,-0.004 0.002,0.013 0.002,0.009c-0.017,-0.097 -0.034,-0.195 -0.051,-0.293c0,-0.004 0.003,0.013 0.002,0.01c-0.017,-0.097 -0.034,-0.195 -0.051,-0.292l0.002,0.011c-0.05,-0.283 -0.05,-0.283 -0.102,-0.566c-0.001,-0.004 0.003,0.015 0.002,0.011c-0.017,-0.094 -0.035,-0.188 -0.053,-0.283c-0.017,-0.091 -0.034,-0.181 -0.051,-0.272c-0.001,-0.004 0.001,0.008 0.002,0.012c-0.035,-0.18 -0.071,-0.36 -0.107,-0.54c-0.018,-0.089 -0.036,-0.178 -0.055,-0.268c-0.001,-0.004 0.002,0.009 0.003,0.013c-0.037,-0.176 -0.074,-0.352 -0.112,-0.528c-0.001,-0.005 0.004,0.018 0.003,0.014c-0.019,-0.089 -0.039,-0.178 -0.059,-0.268c-0.001,-0.004 0.005,0.02 0.003,0.015c-0.038,-0.171 -0.077,-0.341 -0.116,-0.511c-0.001,-0.006 0.005,0.02 0.004,0.015c-0.021,-0.086 -0.041,-0.173 -0.062,-0.259c-0.001,-0.005 0.005,0.021 0.004,0.016c-0.021,-0.085 -0.041,-0.171 -0.062,-0.256l0.004,0.016c-0.059,-0.236 -0.119,-0.471 -0.181,-0.706c-0.041,-0.154 -0.083,-0.307 -0.125,-0.46c-0.002,-0.006 0.007,0.026 0.005,0.02c-0.022,-0.077 -0.043,-0.153 -0.065,-0.229c-0.245,-0.838 -0.516,-1.669 -0.859,-2.473c-0.192,-0.45 -0.405,-0.893 -0.657,-1.313c-0.138,-0.229 -0.288,-0.452 -0.457,-0.66c-0.047,-0.057 -0.095,-0.113 -0.144,-0.167c-0.044,-0.047 -0.089,-0.093 -0.136,-0.138c-0.039,-0.036 -0.078,-0.071 -0.12,-0.105c-0.027,-0.022 -0.055,-0.043 -0.083,-0.064c-0.101,-0.071 -0.212,-0.133 -0.336,-0.151c-0.053,-0.008 -0.106,-0.01 -0.158,0.004c-0.058,0.016 -0.113,0.046 -0.164,0.077c-0.095,0.058 -0.183,0.127 -0.266,0.201c-0.117,0.104 -0.225,0.218 -0.327,0.336c-0.191,0.22 -0.362,0.458 -0.521,0.702c-0.37,0.568 -0.676,1.175 -0.958,1.791c-0.002,0.005 0.01,-0.021 0.007,-0.016c-0.246,0.548 -0.471,1.105 -0.679,1.669c-0.167,0.452 -0.323,0.908 -0.472,1.366c-0.197,0.605 -0.377,1.215 -0.552,1.826c-0.001,0.005 0.006,-0.021 0.005,-0.016c-0.062,0.221 -0.123,0.442 -0.184,0.664c-0.001,0.004 0.005,-0.02 0.004,-0.015c-0.122,0.455 -0.24,0.91 -0.355,1.367l0.003,-0.013c-0.059,0.239 -0.117,0.477 -0.175,0.716c-0.001,0.004 0.004,-0.016 0.003,-0.012c-0.03,0.124 -0.059,0.247 -0.089,0.371c0,0.004 0.004,-0.016 0.003,-0.012c-0.145,0.621 -0.285,1.243 -0.421,1.867c0,0.003 0.003,-0.013 0.002,-0.01c-0.028,0.131 -0.056,0.262 -0.084,0.393c0,0.003 0.003,-0.013 0.002,-0.01c-0.028,0.132 -0.055,0.265 -0.083,0.397l0.002,-0.009c-0.028,0.133 -0.056,0.266 -0.083,0.399c-0.001,0.003 0.002,-0.011 0.002,-0.008c-0.055,0.267 -0.109,0.534 -0.163,0.801c0,0.003 0.002,-0.011 0.002,-0.008c-0.027,0.136 -0.054,0.273 -0.081,0.41l0.001,-0.008c-0.027,0.137 -0.053,0.275 -0.08,0.413c-0.001,0.002 0.002,-0.01 0.001,-0.008c-0.026,0.139 -0.053,0.278 -0.08,0.416c0,0.003 0.002,-0.01 0.002,-0.007c-0.027,0.14 -0.053,0.28 -0.08,0.419c0,0.003 0.002,-0.009 0.002,-0.007c-0.079,0.421 -0.156,0.842 -0.233,1.263c0,0.002 0.002,-0.009 0.001,-0.007c-0.026,0.144 -0.051,0.288 -0.077,0.432c-0.001,0.002 0.001,-0.009 0.001,-0.007c-0.077,0.433 -0.077,0.433 -0.152,0.865l0.001,-0.005c-0.051,0.292 -0.101,0.584 -0.151,0.876c0,0.002 0.001,-0.008 0.001,-0.006c-0.025,0.149 -0.05,0.297 -0.075,0.445c0,0.002 0.001,-0.007 0.001,-0.005c-0.075,0.446 -0.074,0.445 -0.148,0.892l0.001,-0.005c-0.025,0.151 -0.05,0.301 -0.074,0.452c0,0.002 0.001,-0.006 0.001,-0.005c-0.074,0.455 -0.146,0.909 -0.219,1.364c0,0.003 0.002,-0.011 0.002,-0.008c-0.194,1.24 -0.383,2.481 -0.567,3.723c-0.001,0.002 0.001,-0.008 0.001,-0.006c-0.047,0.318 -0.094,0.636 -0.14,0.954l0.001,-0.005c-0.047,0.32 -0.093,0.64 -0.139,0.96c-0.001,0.002 0.001,-0.006 0,-0.005c-0.046,0.322 -0.092,0.645 -0.138,0.967c0,0.001 0.001,-0.006 0.001,-0.005c-0.137,0.972 -0.137,0.972 -0.273,1.944l0,-0.003c-0.045,0.327 -0.091,0.654 -0.136,0.98c0,0.001 0,-0.003 0,-0.002c-0.045,0.328 -0.09,0.656 -0.135,0.984c-0.001,0.001 0,-0.004 0,-0.003c-0.181,1.321 -0.361,2.642 -0.54,3.963l0,0c-0.973,7.181 -1.925,14.369 -3.166,21.511c-0.412,2.369 -0.863,4.733 -1.376,7.082c-0.381,1.746 -0.798,3.485 -1.273,5.208c-0.333,1.207 -0.695,2.406 -1.1,3.59c-0.302,0.883 -0.63,1.757 -0.989,2.618c-0.25,0.599 -0.52,1.19 -0.81,1.77c-0.185,0.372 -0.38,0.739 -0.586,1.1c-0.149,0.262 -0.304,0.52 -0.465,0.775c-1.002,1.58 -2.283,3.049 -3.956,3.937c-0.26,0.138 -0.528,0.261 -0.802,0.367c-0.372,0.144 -0.755,0.256 -1.146,0.335c-0.452,0.091 -0.913,0.138 -1.374,0.127c-0.616,-0.014 -1.228,-0.127 -1.81,-0.332c-0.777,-0.273 -1.489,-0.706 -2.116,-1.237c-0.961,-0.814 -1.721,-1.844 -2.352,-2.927c-0.468,-0.802 -0.87,-1.642 -1.231,-2.497c-0.403,-0.957 -0.755,-1.935 -1.075,-2.923c-0.557,-1.716 -1.016,-3.463 -1.427,-5.22c-0.452,-1.935 -0.841,-3.885 -1.194,-5.84c-0.898,-4.97 -1.565,-9.978 -2.164,-14.991c-0.713,-5.964 -1.291,-11.944 -1.846,-17.925c-0.278,-2.999 -0.543,-5.998 -0.806,-8.998c-0.397,-4.539 -0.79,-9.082 -1.194,-13.615l0.001,0.003c-0.045,-0.499 -0.09,-0.997 -0.135,-1.496c0,-0.001 0.001,0.003 0.001,0.003c-0.045,-0.497 -0.09,-0.994 -0.135,-1.49c-0.001,-0.001 0,0.004 0,0.003c-0.046,-0.495 -0.091,-0.989 -0.136,-1.484c0,-0.001 0,0.005 0,0.004c-0.046,-0.492 -0.091,-0.984 -0.137,-1.476l0,0.003c-0.046,-0.489 -0.092,-0.978 -0.138,-1.468c0,-0.001 0.001,0.006 0.001,0.004c-0.184,-1.921 -0.372,-3.842 -0.565,-5.763c-0.001,-0.001 0,0.006 0,0.005c-0.073,-0.708 -0.072,-0.707 -0.145,-1.414c-0.001,-0.001 0,0.004 0,0.003c-0.025,-0.235 -0.049,-0.469 -0.074,-0.704c0,-0.001 0.001,0.004 0.001,0.003c-0.025,-0.233 -0.05,-0.467 -0.074,-0.7c0,-0.001 0,0.004 0,0.003c-0.025,-0.232 -0.05,-0.465 -0.075,-0.697c0,-0.001 0.001,0.005 0.001,0.003c-0.025,-0.231 -0.05,-0.462 -0.075,-0.694l0,0.004c-0.075,-0.687 -0.075,-0.686 -0.151,-1.373c0,-0.002 0.001,0.005 0,0.004c-0.025,-0.228 -0.051,-0.456 -0.076,-0.684c0,-0.001 0,0.006 0,0.005c-0.026,-0.227 -0.051,-0.453 -0.077,-0.68c0,-0.001 0.001,0.006 0.001,0.005c-0.026,-0.226 -0.052,-0.451 -0.078,-0.676l0,0.005c-0.052,-0.445 -0.104,-0.89 -0.157,-1.335c0,-0.002 0.001,0.007 0.001,0.005c-0.027,-0.221 -0.053,-0.442 -0.08,-0.663c0,-0.002 0.001,0.006 0.001,0.005c-0.027,-0.22 -0.054,-0.44 -0.081,-0.66c0,-0.001 0.001,0.007 0.001,0.006c-0.027,-0.219 -0.054,-0.437 -0.081,-0.655l0.001,0.005c-0.027,-0.217 -0.055,-0.433 -0.082,-0.65c0,-0.002 0.001,0.007 0.001,0.005c-0.055,-0.427 -0.109,-0.854 -0.165,-1.281c0,-0.002 0.001,0.008 0.001,0.006c-0.028,-0.212 -0.056,-0.424 -0.084,-0.636l0.001,0.006c-0.056,-0.418 -0.112,-0.835 -0.169,-1.252c0,-0.002 0.001,0.008 0.001,0.006c-0.029,-0.207 -0.057,-0.414 -0.086,-0.621c0,-0.003 0.001,0.009 0.001,0.006c-0.029,-0.205 -0.058,-0.411 -0.087,-0.616l0.001,0.007c-0.086,-0.606 -0.086,-0.605 -0.175,-1.21c0,-0.003 0.002,0.01 0.002,0.007c-0.03,-0.2 -0.06,-0.4 -0.09,-0.601c0,-0.002 0.002,0.011 0.002,0.008c-0.03,-0.198 -0.061,-0.397 -0.091,-0.595l0.002,0.008c-0.031,-0.197 -0.061,-0.393 -0.091,-0.59c-0.001,-0.003 0.002,0.011 0.001,0.009c-0.031,-0.195 -0.061,-0.39 -0.092,-0.585c0,-0.002 0.002,0.012 0.002,0.009c-0.121,-0.75 -0.244,-1.5 -0.372,-2.25c0,-0.003 0.003,0.014 0.002,0.01c-0.063,-0.364 -0.127,-0.728 -0.192,-1.092c0,-0.003 0.003,0.015 0.002,0.011c-0.032,-0.181 -0.065,-0.361 -0.098,-0.542l0.002,0.011c-0.097,-0.524 -0.097,-0.523 -0.196,-1.047c-0.033,-0.168 -0.065,-0.335 -0.098,-0.503c-0.033,-0.168 -0.134,-0.67 -0.099,-0.503c-0.101,-0.493 -0.203,-0.986 -0.308,-1.478l0.003,0.015c-0.068,-0.315 -0.138,-0.629 -0.208,-0.944c-0.07,-0.302 -0.14,-0.605 -0.211,-0.907c-0.106,-0.436 -0.214,-0.871 -0.325,-1.305l0.002,0.01c-0.019,-0.073 -0.038,-0.146 -0.057,-0.219c-0.001,-0.003 0.003,0.013 0.003,0.01c-0.038,-0.141 -0.075,-0.282 -0.113,-0.422c-0.001,-0.003 0.004,0.014 0.003,0.01c-0.019,-0.071 -0.039,-0.142 -0.058,-0.213c-0.001,-0.003 0.004,0.014 0.003,0.011c-0.02,-0.071 -0.039,-0.141 -0.059,-0.211c-0.001,-0.004 0.004,0.014 0.003,0.011c-0.019,-0.07 -0.039,-0.14 -0.058,-0.209l0.003,0.011c-0.057,-0.201 -0.057,-0.201 -0.115,-0.401c-0.001,-0.004 0.004,0.015 0.003,0.011c-0.02,-0.067 -0.04,-0.135 -0.06,-0.203c-0.001,-0.003 0.005,0.016 0.004,0.012c-0.02,-0.066 -0.04,-0.133 -0.06,-0.199c-0.037,-0.125 -0.075,-0.249 -0.113,-0.373c-0.002,-0.004 0.005,0.017 0.004,0.012c-0.02,-0.063 -0.04,-0.127 -0.06,-0.19c-0.02,-0.062 -0.039,-0.123 -0.058,-0.184c-0.002,-0.004 0.002,0.009 0.004,0.013c-0.04,-0.122 -0.079,-0.244 -0.119,-0.365c-0.002,-0.005 0.006,0.018 0.004,0.013c-0.148,-0.444 -0.304,-0.885 -0.469,-1.323c-0.002,-0.006 0.009,0.022 0.006,0.016c-0.06,-0.155 -0.12,-0.31 -0.182,-0.465l0.007,0.018c-0.077,-0.192 -0.157,-0.382 -0.239,-0.571c-0.074,-0.17 -0.15,-0.338 -0.229,-0.505c-0.286,-0.599 -0.598,-1.191 -0.997,-1.723c-0.112,-0.15 -0.231,-0.294 -0.361,-0.427c-0.099,-0.1 -0.205,-0.197 -0.327,-0.268c-0.012,-0.006 -0.012,-0.006 -0.023,-0.012c-0.007,-0.003 -0.007,-0.002 -0.017,-0.001c-0.014,0.001 -0.028,0.001 -0.042,0.002c-0.028,0.002 -0.056,0.004 -0.085,0.008c-0.147,0.016 -0.291,0.05 -0.43,0.101c-0.25,0.091 -0.479,0.233 -0.688,0.396c-0.321,0.25 -0.6,0.552 -0.852,0.87c-0.28,0.351 -0.528,0.727 -0.756,1.113c-0.356,0.602 -0.66,1.233 -0.941,1.874c-0.003,0.005 0.01,-0.023 0.007,-0.017c-0.29,0.674 -0.551,1.359 -0.793,2.053c-0.002,0.004 0.006,-0.017 0.005,-0.013c-0.038,0.111 -0.076,0.222 -0.113,0.333c-0.002,0.004 0.005,-0.017 0.004,-0.013c-0.02,0.058 -0.039,0.116 -0.058,0.175c-0.002,0.004 0.005,-0.017 0.004,-0.013c-0.02,0.059 -0.039,0.118 -0.058,0.177c-0.001,0.004 0.005,-0.017 0.004,-0.012c-0.055,0.171 -0.109,0.342 -0.163,0.514c-0.001,0.003 0.004,-0.016 0.003,-0.012c-0.019,0.061 -0.037,0.121 -0.056,0.182c-0.001,0.004 0.005,-0.015 0.004,-0.011c-0.019,0.061 -0.038,0.122 -0.056,0.183c-0.001,0.004 0.004,-0.014 0.003,-0.011c-0.054,0.181 -0.054,0.18 -0.107,0.361l0.003,-0.011c-0.053,0.181 -0.105,0.363 -0.156,0.545c-0.102,0.366 -0.102,0.366 -0.201,0.732c-0.169,0.644 -0.331,1.29 -0.483,1.938c-0.195,0.838 -0.375,1.679 -0.547,2.522l0.002,-0.013c-0.088,0.443 -0.088,0.443 -0.175,0.887c-0.056,0.296 -0.113,0.592 -0.168,0.889c-0.005,0.028 -0.117,0.63 -0.083,0.454c-0.112,0.625 -0.221,1.25 -0.326,1.876l0.001,-0.01c-0.053,0.323 -0.106,0.645 -0.158,0.968c0,0.002 0.002,-0.012 0.001,-0.009c-0.052,0.327 -0.103,0.655 -0.154,0.983l0.001,-0.009c-0.025,0.167 -0.051,0.334 -0.076,0.501c-0.001,0.003 0.001,-0.01 0,-0.007c-0.025,0.168 -0.05,0.336 -0.075,0.504c-0.001,0.002 0.001,-0.01 0.001,-0.008c-0.075,0.507 -0.075,0.506 -0.148,1.012l0.001,-0.007c-0.025,0.172 -0.049,0.343 -0.073,0.515c-0.001,0.002 0.001,-0.009 0,-0.007c-0.024,0.173 -0.048,0.345 -0.072,0.518c-0.001,0.002 0.001,-0.009 0.001,-0.007c-0.048,0.347 -0.095,0.693 -0.142,1.039l0.001,-0.006c-0.047,0.35 -0.094,0.701 -0.14,1.051c0,0.002 0.001,-0.007 0.001,-0.005c-0.023,0.177 -0.046,0.355 -0.069,0.532c-0.001,0.002 0.001,-0.007 0,-0.005c-0.022,0.177 -0.089,0.708 -0.067,0.531c-0.046,0.358 -0.09,0.716 -0.135,1.074c0,0.002 0.001,-0.006 0.001,-0.005c-0.023,0.182 -0.045,0.363 -0.067,0.544c0,0.002 0.001,-0.006 0.001,-0.004c-0.066,0.545 -0.066,0.545 -0.132,1.09l0.001,-0.004c-0.098,0.827 -0.097,0.827 -0.193,1.654c-0.001,0.002 0.001,-0.01 0.001,-0.007c-0.043,0.372 -0.085,0.745 -0.128,1.117l0.001,-0.006c-0.042,0.375 -0.083,0.75 -0.125,1.125c0,0.002 0.001,-0.007 0,-0.005c-0.124,1.134 -0.124,1.133 -0.246,2.268l0,-0.005c-0.04,0.382 -0.081,0.764 -0.121,1.147c0,0.001 0,-0.005 0,-0.004c-0.04,0.384 -0.081,0.768 -0.121,1.152c0,0.001 0,-0.004 0,-0.003c-0.121,1.163 -0.24,2.317 -0.359,3.482l0,-0.002c-0.32,3.14 -0.639,6.279 -0.967,9.418c-0.056,0.39 -0.083,0.783 -0.125,1.175c-0.084,0.794 -0.17,1.587 -0.257,2.381c-0.193,1.753 -0.393,3.506 -0.603,5.258c-0.431,3.598 -0.914,7.189 -1.48,10.768c-0.498,3.152 -1.074,6.296 -1.781,9.408c-0.65,2.862 -1.41,5.706 -2.39,8.473c-0.478,1.35 -1.011,2.681 -1.622,3.975c-0.481,1.017 -1.01,2.012 -1.607,2.965c-0.978,1.565 -2.142,3.034 -3.562,4.222c-1.011,0.846 -2.15,1.542 -3.385,2.009c-0.909,0.344 -1.865,0.563 -2.833,0.65c-0.811,0.073 -1.629,0.054 -2.433,-0.073c-0.558,-0.088 -1.107,-0.227 -1.639,-0.416c-0.424,-0.151 -0.837,-0.333 -1.235,-0.542c-0.3,-0.158 -0.591,-0.333 -0.873,-0.521c-1.9,-1.267 -3.32,-3.128 -4.436,-5.095c-0.203,-0.359 -0.397,-0.722 -0.584,-1.09c-0.252,-0.497 -0.489,-1.001 -0.716,-1.51c-0.674,-1.515 -1.249,-3.073 -1.783,-4.642c-0.663,-1.947 -1.257,-3.917 -1.856,-5.885l0,0.002c-0.17,-0.557 -0.34,-1.113 -0.511,-1.67c0,-0.002 0.003,0.009 0.003,0.007c-0.128,-0.413 -0.128,-0.412 -0.257,-0.825l0.002,0.006c-0.128,-0.408 -0.128,-0.408 -0.257,-0.816c-0.001,-0.003 0.003,0.012 0.002,0.009c-0.042,-0.133 -0.17,-0.532 -0.128,-0.399c-0.086,-0.265 -0.172,-0.529 -0.259,-0.793c-0.044,-0.132 -0.088,-0.264 -0.132,-0.395c-0.002,-0.005 0.003,0.008 0.004,0.013c-0.215,-0.633 -0.436,-1.263 -0.666,-1.89l0.006,0.014c-0.069,-0.185 -0.069,-0.185 -0.139,-0.369c-0.001,-0.004 0.005,0.013 0.004,0.01c-0.024,-0.063 -0.048,-0.125 -0.072,-0.188c-0.001,-0.004 0.006,0.014 0.005,0.011c-0.069,-0.177 -0.069,-0.177 -0.137,-0.353c-0.091,-0.228 -0.182,-0.455 -0.275,-0.681c-0.071,-0.169 -0.142,-0.337 -0.214,-0.505c-0.002,-0.005 0.008,0.019 0.006,0.014c-0.444,-1.017 -0.929,-2.02 -1.528,-2.957c-0.399,-0.623 -0.849,-1.225 -1.396,-1.728c-0.401,-0.37 -0.867,-0.687 -1.392,-0.849c-0.579,-0.179 -1.191,-0.15 -1.778,-0.028c-0.465,0.097 -0.92,0.245 -1.349,0.451c-0.371,0.179 -0.72,0.401 -1.042,0.657c-0.48,0.381 -0.899,0.834 -1.272,1.32c-0.557,0.724 -1.011,1.52 -1.427,2.331c-0.003,0.005 0.009,-0.018 0.007,-0.014c-0.081,0.16 -0.161,0.321 -0.239,0.483c-0.331,0.686 -0.632,1.386 -0.927,2.089l0.004,-0.011c-0.078,0.188 -0.157,0.377 -0.234,0.566c-0.002,0.003 0.004,-0.01 0.003,-0.008c-0.118,0.288 -0.118,0.288 -0.234,0.576l0.002,-0.006c-0.079,0.195 -0.157,0.391 -0.236,0.587c-0.001,0.001 0.002,-0.005 0.002,-0.004c-0.242,0.604 -0.484,1.207 -0.728,1.81c-0.124,0.301 -0.247,0.602 -0.373,0.902c-0.309,0.734 -0.625,1.464 -0.964,2.185c-0.579,1.23 -1.218,2.434 -1.953,3.579c-0.766,1.194 -1.643,2.321 -2.644,3.328c-0.972,0.977 -2.06,1.838 -3.243,2.546c-0.967,0.579 -1.995,1.052 -3.058,1.425c-2.029,0.71 -4.175,1.044 -6.319,1.119c-0.721,0.025 -1.442,0.021 -2.162,-0.007c-0.251,-0.01 -0.501,-0.024 -0.752,-0.037c-0.071,-0.004 -0.142,-0.007 -0.213,-0.011c-0.079,-0.003 -0.319,-0.014 -0.239,-0.011c-0.292,-0.012 -0.584,-0.023 -0.876,-0.034c-0.494,-0.017 -0.989,-0.033 -1.484,-0.049c-0.002,0 0.008,0.001 0.006,0.001c-0.947,-0.028 -1.894,-0.053 -2.841,-0.078c-0.001,0 0.004,0 0.003,0c-0.366,-0.009 -0.732,-0.018 -1.098,-0.027l0.002,0c-0.389,-0.009 -0.778,-0.018 -1.167,-0.027c0,0 0.003,0 0.002,0c-0.411,-0.009 -0.822,-0.018 -1.232,-0.028c-0.001,0 0.002,0 0.001,0c-0.431,-0.009 -0.863,-0.018 -1.295,-0.028c0,0 0.003,0 0.002,0c-2.963,-0.062 -5.928,-0.119 -8.893,-0.175l0.002,0c-2.254,-0.041 -4.509,-0.082 -6.763,-0.12c-1.185,-0.021 -2.369,-0.039 -3.554,-0.061c-4.917,-0.09 -9.834,-0.176 -14.753,-0.262l0.001,0c-4.787,-0.081 -9.573,-0.163 -14.36,-0.244c-2.171,-0.036 -4.341,-0.073 -6.512,-0.111c-0.999,-0.017 -1.998,-0.02 -2.997,-0.052c-1.783,-0.031 -3.567,-0.063 -5.35,-0.096c-0.765,-0.014 -1.531,-0.031 -2.296,-0.044c-1.238,-0.025 -2.475,-0.05 -3.713,-0.079c-0.971,-0.022 -1.943,-0.042 -2.914,-0.087c-0.132,-0.008 -0.132,-0.007 -0.264,-0.016c-0.166,-0.016 -0.332,-0.032 -0.494,-0.076c-0.058,-0.016 -0.113,-0.042 -0.17,-0.063l0,0l-0.263,-0.122l-0.243,-0.157c-0.219,-0.191 -0.219,-0.191 -0.408,-0.411l-0.001,-0.001c-0.059,-0.093 -0.125,-0.183 -0.175,-0.281c-0.204,-0.394 -0.273,-0.851 -0.195,-1.287c0.052,-0.291 0.1,-0.355 0.22,-0.622l0,-0.002l1.23,-0.961l1.415,0.152c-0.049,-0.037 -0.09,-0.086 -0.146,-0.11c-0.156,-0.067 -0.327,-0.097 -0.495,-0.115c0.099,0.007 0.198,0.009 0.297,0.013c0.889,0.023 1.779,0.033 2.668,0.042c1.239,0.013 2.467,0.021 3.706,0.029l-0.001,0c2.545,0.015 5.089,0.026 7.638,0.036l-0.001,0c3.177,0.011 6.353,0.02 9.529,0.029c7.266,0.017 14.531,0.031 21.797,0.045c2.433,0.005 4.867,0.016 7.3,0.016c2.327,0.006 4.66,0.018 6.987,0.029c3.159,0.014 6.318,0.029 9.477,0.051c2.523,0.017 5.046,0.037 7.57,0.064c1.458,0.015 2.917,0.034 4.375,0.066c0.39,0.009 0.78,0.018 1.17,0.031c0.31,0.01 0.621,0.024 0.931,0.033c0.23,0.005 0.229,0.005 0.458,0.007c1.398,0.004 2.798,-0.093 4.168,-0.382c1.071,-0.227 2.12,-0.571 3.101,-1.062c1.083,-0.543 2.07,-1.262 2.924,-2.122c0.998,-1.005 1.805,-2.178 2.499,-3.408c0.003,-0.005 -0.012,0.021 -0.009,0.015c0.167,-0.3 0.329,-0.603 0.486,-0.909l-0.007,0.013c0.047,-0.092 0.093,-0.184 0.139,-0.276c0.002,-0.004 -0.008,0.017 -0.006,0.012c0.066,-0.135 0.066,-0.134 0.132,-0.27c0.065,-0.135 0.129,-0.27 0.193,-0.405c0.214,-0.463 0.42,-0.929 0.62,-1.397l-0.007,0.015c0.11,-0.262 0.134,-0.316 0.24,-0.575c0.04,-0.095 0.157,-0.38 0.117,-0.286c0.079,-0.195 0.158,-0.391 0.236,-0.586c0.038,-0.095 0.152,-0.38 0.113,-0.286c0.386,-0.985 0.766,-1.974 1.155,-2.958c0.146,-0.366 0.293,-0.732 0.443,-1.095c0.871,-2.087 1.864,-4.161 3.275,-5.942c0.527,-0.665 1.111,-1.285 1.756,-1.836c0.58,-0.496 1.207,-0.935 1.874,-1.304c1.037,-0.574 2.16,-0.97 3.32,-1.204c0.812,-0.165 1.646,-0.23 2.474,-0.18c0.591,0.036 1.179,0.133 1.751,0.289c0.427,0.118 0.845,0.268 1.248,0.45c0.278,0.125 0.55,0.264 0.812,0.418c0.34,0.2 0.668,0.418 0.982,0.657c1.561,1.186 2.749,2.797 3.705,4.492c0.199,0.352 0.389,0.709 0.57,1.07c0.215,0.426 0.419,0.858 0.614,1.293c0.284,0.634 0.55,1.276 0.802,1.924c0.314,0.803 0.607,1.615 0.888,2.431c0.378,1.1 0.732,2.208 1.08,3.317c0.312,1.004 0.619,2.009 0.926,3.014c0.08,0.259 0.159,0.518 0.239,0.777c0.001,0.002 -0.003,-0.009 -0.002,-0.007c0.086,0.277 0.344,1.106 0.257,0.83c0.086,0.276 0.172,0.551 0.259,0.827c0.001,0.002 -0.003,-0.01 -0.002,-0.007c0.044,0.138 0.088,0.276 0.132,0.414c0.001,0.003 -0.004,-0.011 -0.003,-0.008c0.044,0.138 0.088,0.275 0.133,0.413l-0.003,-0.009c0.131,0.405 0.132,0.405 0.265,0.809c0.001,0.004 -0.006,-0.015 -0.004,-0.011c0.088,0.266 0.178,0.532 0.268,0.798l-0.005,-0.014c0.241,0.698 0.489,1.393 0.75,2.084c0.001,0.003 -0.005,-0.014 -0.004,-0.01c0.024,0.064 0.049,0.127 0.073,0.191c0.002,0.004 -0.005,-0.014 -0.004,-0.01c0.161,0.414 0.327,0.827 0.499,1.238c0.001,0.004 -0.008,-0.018 -0.006,-0.013c0.026,0.06 0.052,0.121 0.078,0.182c0.001,0.004 -0.008,-0.018 -0.006,-0.014c0.232,0.539 0.473,1.073 0.736,1.597c0.169,0.338 0.345,0.671 0.532,1c0.149,0.262 0.305,0.521 0.468,0.774c0.15,0.233 0.307,0.46 0.471,0.682c0.1,0.134 0.202,0.265 0.308,0.394c0.596,0.725 1.325,1.408 2.226,1.725c0.136,0.048 0.276,0.088 0.417,0.119c0.37,0.08 0.751,0.095 1.128,0.067c0.423,-0.032 0.841,-0.116 1.242,-0.253c0.564,-0.194 1.088,-0.489 1.565,-0.847c0.729,-0.547 1.351,-1.23 1.898,-1.957c0.858,-1.141 1.539,-2.402 2.143,-3.693l-0.007,0.016c0.051,-0.111 0.101,-0.221 0.151,-0.332c0.003,-0.005 -0.009,0.02 -0.006,0.015c0.048,-0.109 0.097,-0.219 0.145,-0.328c0.049,-0.113 0.098,-0.226 0.146,-0.34c0.002,-0.005 -0.008,0.019 -0.006,0.014c0.049,-0.116 0.098,-0.233 0.146,-0.35c0.047,-0.114 0.093,-0.228 0.14,-0.343c0.001,-0.004 -0.008,0.018 -0.006,0.013c0.071,-0.179 0.142,-0.359 0.212,-0.539l-0.005,0.013c0.116,-0.306 0.23,-0.612 0.341,-0.92l-0.004,0.012c0.024,-0.066 0.047,-0.132 0.071,-0.198c0.001,-0.004 -0.006,0.015 -0.005,0.011c0.069,-0.194 0.068,-0.193 0.136,-0.387c0.001,-0.004 -0.005,0.014 -0.004,0.011c0.023,-0.067 0.046,-0.135 0.069,-0.202c0.001,-0.003 -0.002,0.007 -0.004,0.011c0.067,-0.197 0.133,-0.393 0.197,-0.591c0.002,-0.003 -0.004,0.014 -0.003,0.011c0.064,-0.199 0.064,-0.198 0.128,-0.397c0.086,-0.27 0.17,-0.54 0.252,-0.811c0.001,-0.003 -0.004,0.013 -0.003,0.01c0.042,-0.14 0.084,-0.28 0.126,-0.42l-0.003,0.009c0.062,-0.208 0.122,-0.417 0.182,-0.625c0.08,-0.285 0.159,-0.57 0.238,-0.855c0.321,-1.196 0.617,-2.398 0.893,-3.605c0.001,-0.005 -0.004,0.017 -0.003,0.013c0.036,-0.161 0.072,-0.322 0.108,-0.483l-0.003,0.013c0.07,-0.318 0.139,-0.637 0.208,-0.955c0.068,-0.326 0.136,-0.653 0.203,-0.979c0.001,-0.004 -0.003,0.015 -0.002,0.012c0.034,-0.168 0.067,-0.335 0.101,-0.502l-0.002,0.011c0.033,-0.168 0.066,-0.337 0.099,-0.505c0.001,-0.004 -0.003,0.014 -0.002,0.011c0.098,-0.505 0.098,-0.505 0.194,-1.01l-0.002,0.01c0.063,-0.34 0.126,-0.679 0.187,-1.019c0.031,-0.169 0.12,-0.676 0.091,-0.507c0.061,-0.348 0.122,-0.695 0.182,-1.043c0,-0.003 -0.002,0.012 -0.002,0.009c0.089,-0.528 0.089,-0.528 0.177,-1.056l-0.001,0.009c0.087,-0.534 0.172,-1.067 0.256,-1.601c0,-0.003 -0.002,0.01 -0.001,0.007c0.028,-0.181 0.056,-0.362 0.084,-0.544l-0.001,0.008c0.055,-0.363 0.11,-0.726 0.164,-1.089c0,-0.002 -0.002,0.009 -0.001,0.007c0.026,-0.182 0.103,-0.727 0.08,-0.545c0.106,-0.736 0.211,-1.472 0.312,-2.209l-0.001,0.006c0.127,-0.936 0.251,-1.872 0.371,-2.808l-0.001,0.005c0.025,-0.191 0.049,-0.381 0.073,-0.571c0,-0.002 -0.001,0.006 -0.001,0.004c0.071,-0.567 0.071,-0.567 0.141,-1.134c0.024,-0.192 0.093,-0.767 0.07,-0.575c0.07,-0.576 0.138,-1.151 0.206,-1.727c0,-0.001 -0.001,0.005 -0.001,0.003c0.023,-0.193 0.045,-0.387 0.068,-0.58c0,-0.002 -0.001,0.007 -0.001,0.005c0.133,-1.164 0.264,-2.328 0.392,-3.493l0,0.005c0.127,-1.173 0.252,-2.346 0.376,-3.52c0,-0.001 -0.001,0.005 0,0.004c0.041,-0.393 0.082,-0.786 0.123,-1.179l-0.001,0.003c0.403,-3.9 0.792,-7.804 1.195,-11.708c0.123,-1.172 0.247,-2.344 0.372,-3.516c0.379,-3.477 0.777,-6.951 1.249,-10.417c0.323,-2.373 0.679,-4.743 1.097,-7.102c0.352,-1.992 0.748,-3.977 1.22,-5.944c0.42,-1.75 0.898,-3.489 1.486,-5.191c0.444,-1.286 0.951,-2.554 1.564,-3.77c0.527,-1.047 1.136,-2.06 1.866,-2.979c0.539,-0.676 1.145,-1.302 1.828,-1.835c0.907,-0.708 1.95,-1.242 3.07,-1.517c0.49,-0.12 0.992,-0.192 1.497,-0.214c0.677,-0.03 1.351,0.051 1.998,0.254c0.567,0.179 1.105,0.445 1.598,0.777c0.796,0.536 1.471,1.236 2.045,2.003c0.74,0.989 1.324,2.089 1.825,3.216c0.551,1.241 1.004,2.525 1.406,3.821c0.461,1.486 0.851,2.992 1.204,4.506c0.4,1.721 0.749,3.453 1.067,5.19c0.352,1.923 0.665,3.853 0.955,5.787c0.715,4.777 1.286,9.575 1.802,14.378c0.602,5.606 1.121,11.221 1.625,16.837c0.401,4.512 0.791,9.025 1.185,13.538c0.045,0.512 0.09,1.024 0.135,1.537c0,0 0,-0.002 0,-0.002c0.392,4.452 0.797,8.913 1.228,13.367l-0.001,-0.005c0.048,0.483 0.095,0.967 0.143,1.451c0,0.002 -0.001,-0.007 0,-0.006c0.072,0.724 0.145,1.447 0.219,2.17ZM3.68,94.366l-0.018,-0.265l-0.478,-0.359c0.166,0.208 0.331,0.416 0.496,0.624Z" style="fill:#fff;fill-rule:nonzero;"/></svg>