<?xml version="1.0" encoding="UTF-8" standalone="no"?><!DOCTYPE svg PUBLIC "-//W3C//DTD SVG 1.1//EN" "http://www.w3.org/Graphics/SVG/1.1/DTD/svg11.dtd"><svg width="100%" height="100%" viewBox="0 0 128 128" version="1.1" xmlns="http://www.w3.org/2000/svg" xmlns:xlink="http://www.w3.org/1999/xlink" xml:space="preserve" style="fill-rule:evenodd;clip-rule:evenodd;stroke-linejoin:round;stroke-miterlimit:1.41421;"><circle cx="63.96" cy="63.96" r="63.96" style="fill:#f1f1f1;fill-opacity:0.247059;"/><g><g><path d="M25.7,82.531c-0.227,-0.295 -0.515,-0.522 -0.863,-0.681c-0.348,-0.159 -0.707,-0.238 -1.078,-0.238c-0.454,0 -0.865,0.085 -1.232,0.255c-0.367,0.17 -0.681,0.403 -0.942,0.698c-0.261,0.295 -0.464,0.642 -0.608,1.039c-0.144,0.397 -0.215,0.823 -0.215,1.277c0,0.424 0.068,0.825 0.204,1.204c0.136,0.378 0.333,0.711 0.59,0.999c0.258,0.287 0.572,0.514 0.943,0.681c0.37,0.166 0.791,0.25 1.26,0.25c0.461,0 0.866,-0.095 1.215,-0.284c0.348,-0.189 0.643,-0.454 0.885,-0.795l0.92,0.693c-0.061,0.083 -0.167,0.202 -0.318,0.357c-0.152,0.155 -0.352,0.311 -0.602,0.466c-0.25,0.155 -0.551,0.291 -0.902,0.409c-0.352,0.117 -0.759,0.175 -1.221,0.175c-0.636,0 -1.209,-0.121 -1.72,-0.363c-0.511,-0.242 -0.946,-0.56 -1.306,-0.953c-0.359,-0.394 -0.633,-0.839 -0.823,-1.334c-0.189,-0.496 -0.283,-0.998 -0.283,-1.505c0,-0.62 0.102,-1.194 0.306,-1.72c0.204,-0.526 0.49,-0.98 0.857,-1.362c0.367,-0.382 0.808,-0.679 1.323,-0.891c0.515,-0.212 1.082,-0.318 1.703,-0.318c0.53,0 1.05,0.102 1.561,0.306c0.511,0.205 0.929,0.519 1.254,0.943l-0.908,0.692Z" style="fill:url(#_Linear1);fill-rule:nonzero;"/><path d="M35.157,80.794l0.988,0l3.44,8.038l-1.272,0l-0.806,-1.987l-3.826,0l-0.794,1.987l-1.272,0l3.542,-8.038ZM37.11,85.892l-1.499,-3.69l-0.022,0l-1.522,3.69l3.043,0Z" style="fill:url(#_Linear2);fill-rule:nonzero;"/><path d="M45.171,80.794l2.827,0c0.514,0 0.938,0.07 1.271,0.21c0.333,0.14 0.596,0.318 0.789,0.534c0.193,0.215 0.328,0.458 0.403,0.726c0.076,0.269 0.114,0.528 0.114,0.778c0,0.257 -0.046,0.505 -0.136,0.744c-0.091,0.238 -0.222,0.454 -0.392,0.647c-0.17,0.193 -0.378,0.356 -0.624,0.488c-0.246,0.132 -0.521,0.214 -0.824,0.244l2.282,3.667l-1.362,0l-2.044,-3.542l-1.214,0l0,3.542l-1.09,0l0,-8.038ZM46.261,84.336l1.43,0c0.212,0 0.422,-0.017 0.63,-0.051c0.208,-0.034 0.394,-0.096 0.557,-0.187c0.162,-0.091 0.293,-0.222 0.391,-0.392c0.099,-0.17 0.148,-0.391 0.148,-0.664c0,-0.272 -0.049,-0.494 -0.148,-0.664c-0.098,-0.17 -0.229,-0.301 -0.391,-0.392c-0.163,-0.091 -0.349,-0.153 -0.557,-0.187c-0.208,-0.034 -0.418,-0.051 -0.63,-0.051l-1.43,0l0,2.588Z" style="fill:url(#_Linear3);fill-rule:nonzero;"/><path d="M56.887,87.152c0.197,0.295 0.449,0.513 0.755,0.653c0.307,0.14 0.623,0.21 0.948,0.21c0.182,0 0.367,-0.029 0.556,-0.085c0.19,-0.057 0.362,-0.142 0.517,-0.256c0.155,-0.113 0.282,-0.253 0.38,-0.42c0.099,-0.166 0.148,-0.359 0.148,-0.579c0,-0.31 -0.098,-0.547 -0.295,-0.71c-0.197,-0.162 -0.441,-0.298 -0.732,-0.408c-0.292,-0.11 -0.61,-0.216 -0.954,-0.318c-0.345,-0.102 -0.662,-0.244 -0.954,-0.426c-0.291,-0.182 -0.535,-0.426 -0.732,-0.732c-0.197,-0.307 -0.295,-0.721 -0.295,-1.243c0,-0.235 0.051,-0.485 0.153,-0.75c0.102,-0.265 0.263,-0.507 0.482,-0.726c0.22,-0.22 0.502,-0.403 0.846,-0.551c0.345,-0.147 0.759,-0.221 1.243,-0.221c0.439,0 0.86,0.06 1.261,0.181c0.401,0.122 0.753,0.367 1.056,0.738l-0.886,0.806c-0.136,-0.211 -0.329,-0.382 -0.579,-0.51c-0.25,-0.129 -0.534,-0.193 -0.852,-0.193c-0.302,0 -0.554,0.039 -0.755,0.119c-0.2,0.079 -0.361,0.181 -0.482,0.306c-0.121,0.125 -0.206,0.26 -0.255,0.403c-0.05,0.144 -0.074,0.277 -0.074,0.398c0,0.34 0.098,0.601 0.295,0.783c0.197,0.182 0.441,0.329 0.732,0.443c0.292,0.113 0.609,0.216 0.954,0.306c0.344,0.091 0.662,0.218 0.954,0.381c0.291,0.162 0.535,0.382 0.732,0.658c0.197,0.276 0.295,0.657 0.295,1.141c0,0.386 -0.074,0.734 -0.221,1.045c-0.148,0.31 -0.347,0.571 -0.596,0.783c-0.25,0.212 -0.545,0.375 -0.886,0.488c-0.341,0.114 -0.704,0.17 -1.09,0.17c-0.515,0 -1.003,-0.09 -1.464,-0.272c-0.462,-0.182 -0.829,-0.462 -1.102,-0.84l0.897,-0.772Z" style="fill:url(#_Linear4);fill-rule:nonzero;"/><path d="M69.183,81.816l-2.589,0l0,-1.022l6.267,0l0,1.022l-2.588,0l0,7.016l-1.09,0l0,-7.016Z" style="fill:url(#_Linear5);fill-rule:nonzero;"/><path d="M78.56,80.794l5.189,0l0,1.022l-4.099,0l0,2.395l3.815,0l0,1.022l-3.815,0l0,2.577l4.303,0l0,1.022l-5.393,0l0,-8.038Z" style="fill:url(#_Linear6);fill-rule:nonzero;"/><path d="M90.038,80.794l1.431,0l4.428,6.608l0.022,0l0,-6.608l1.09,0l0,8.038l-1.385,0l-4.473,-6.607l-0.023,0l0,6.607l-1.09,0l0,-8.038Z" style="fill:url(#_Linear7);fill-rule:nonzero;"/><path d="M103.855,87.152c0.197,0.295 0.449,0.513 0.755,0.653c0.307,0.14 0.623,0.21 0.948,0.21c0.182,0 0.367,-0.029 0.556,-0.085c0.19,-0.057 0.362,-0.142 0.517,-0.256c0.155,-0.113 0.282,-0.253 0.38,-0.42c0.099,-0.166 0.148,-0.359 0.148,-0.579c0,-0.31 -0.099,-0.547 -0.295,-0.71c-0.197,-0.162 -0.441,-0.298 -0.733,-0.408c-0.291,-0.11 -0.609,-0.216 -0.953,-0.318c-0.345,-0.102 -0.663,-0.244 -0.954,-0.426c-0.291,-0.182 -0.535,-0.426 -0.732,-0.732c-0.197,-0.307 -0.295,-0.721 -0.295,-1.243c0,-0.235 0.051,-0.485 0.153,-0.75c0.102,-0.265 0.263,-0.507 0.482,-0.726c0.22,-0.22 0.502,-0.403 0.846,-0.551c0.345,-0.147 0.759,-0.221 1.243,-0.221c0.439,0 0.859,0.06 1.261,0.181c0.401,0.122 0.753,0.367 1.055,0.738l-0.885,0.806c-0.136,-0.211 -0.329,-0.382 -0.579,-0.51c-0.25,-0.129 -0.534,-0.193 -0.852,-0.193c-0.302,0 -0.554,0.039 -0.755,0.119c-0.2,0.079 -0.361,0.181 -0.482,0.306c-0.121,0.125 -0.206,0.26 -0.256,0.403c-0.049,0.144 -0.073,0.277 -0.073,0.398c0,0.34 0.098,0.601 0.295,0.783c0.197,0.182 0.441,0.329 0.732,0.443c0.292,0.113 0.609,0.216 0.954,0.306c0.344,0.091 0.662,0.218 0.953,0.381c0.292,0.162 0.536,0.382 0.733,0.658c0.196,0.276 0.295,0.657 0.295,1.141c0,0.386 -0.074,0.734 -0.221,1.045c-0.148,0.31 -0.347,0.571 -0.597,0.783c-0.249,0.212 -0.544,0.375 -0.885,0.488c-0.341,0.114 -0.704,0.17 -1.09,0.17c-0.515,0 -1.003,-0.09 -1.465,-0.272c-0.461,-0.182 -0.828,-0.462 -1.101,-0.84l0.897,-0.772Z" style="fill:url(#_Linear8);fill-rule:nonzero;"/></g><g><path d="M40.155,71.545l0.859,0l1.353,3.221l0.024,0l1.34,-3.221l0.86,0l0,4.255l-0.577,0l0,-3.498l-0.012,0l-1.437,3.498l-0.384,0l-1.437,-3.498l-0.012,0l0,3.498l-0.577,0l0,-4.255Z" style="fill:url(#_Linear9);fill-rule:nonzero;"/><path d="M49.381,71.545l0.523,0l1.821,4.255l-0.673,0l-0.426,-1.052l-2.026,0l-0.421,1.052l-0.673,0l1.875,-4.255ZM50.415,74.243l-0.793,-1.953l-0.012,0l-0.806,1.953l1.611,0Z" style="fill:url(#_Linear10);fill-rule:nonzero;"/><path d="M54.683,71.545l1.496,0c0.273,0 0.497,0.037 0.674,0.111c0.176,0.074 0.315,0.168 0.417,0.282c0.103,0.114 0.174,0.243 0.214,0.385c0.04,0.142 0.06,0.279 0.06,0.412c0,0.136 -0.024,0.267 -0.072,0.393c-0.048,0.127 -0.118,0.241 -0.208,0.343c-0.09,0.102 -0.2,0.188 -0.33,0.258c-0.13,0.071 -0.276,0.114 -0.436,0.13l1.208,1.941l-0.721,0l-1.082,-1.875l-0.643,0l0,1.875l-0.577,0l0,-4.255ZM55.26,73.42l0.757,0c0.112,0 0.224,-0.009 0.334,-0.027c0.11,-0.018 0.208,-0.051 0.294,-0.099c0.086,-0.048 0.155,-0.118 0.208,-0.208c0.052,-0.09 0.078,-0.207 0.078,-0.351c0,-0.145 -0.026,-0.262 -0.078,-0.352c-0.053,-0.09 -0.122,-0.159 -0.208,-0.207c-0.086,-0.048 -0.184,-0.081 -0.294,-0.099c-0.11,-0.019 -0.222,-0.028 -0.334,-0.028l-0.757,0l0,1.371Z" style="fill:url(#_Linear11);fill-rule:nonzero;"/><rect x="60.76" y="71.545" width="0.577" height="4.256" style="fill:url(#_Linear12);fill-rule:nonzero;"/><path d="M64.48,75.259l2.422,-3.173l-2.35,0l0,-0.541l3.072,0l0,0.541l-2.411,3.173l2.447,0l0,0.541l-3.18,0l0,-0.541Z" style="fill:url(#_Linear13);fill-rule:nonzero;"/><path d="M72.138,71.545l0.523,0l1.821,4.255l-0.673,0l-0.427,-1.052l-2.026,0l-0.42,1.052l-0.674,0l1.876,-4.255ZM73.172,74.243l-0.794,-1.953l-0.012,0l-0.805,1.953l1.611,0Z" style="fill:url(#_Linear14);fill-rule:nonzero;"/><path d="M78.774,71.545l0.522,0l1.822,4.255l-0.674,0l-0.426,-1.052l-2.026,0l-0.421,1.052l-0.673,0l1.876,-4.255ZM79.807,74.243l-0.793,-1.953l-0.012,0l-0.806,1.953l1.611,0Z" style="fill:url(#_Linear15);fill-rule:nonzero;"/><path d="M84.075,71.545l0.757,0l2.344,3.498l0.012,0l0,-3.498l0.577,0l0,4.255l-0.733,0l-2.368,-3.498l-0.012,0l0,3.498l-0.577,0l0,-4.255Z" style="fill:url(#_Linear16);fill-rule:nonzero;"/></g><g><path d="M52.686,96.926c-0.099,0 -0.222,0.005 -0.37,0.015c-0.148,0.01 -0.291,0.034 -0.427,0.071c-0.136,0.038 -0.253,0.096 -0.35,0.175c-0.097,0.079 -0.145,0.188 -0.145,0.326c0,0.091 0.019,0.169 0.056,0.234c0.038,0.065 0.088,0.119 0.152,0.16c0.063,0.042 0.133,0.071 0.21,0.089c0.077,0.018 0.155,0.027 0.234,0.027c0.142,0 0.266,-0.024 0.371,-0.071c0.104,-0.048 0.192,-0.112 0.263,-0.193c0.071,-0.081 0.124,-0.176 0.157,-0.285c0.034,-0.108 0.051,-0.224 0.051,-0.346l0,-0.202l-0.202,0ZM52.888,96.606l0,-0.071c0,-0.478 -0.237,-0.717 -0.712,-0.717c-0.324,0 -0.606,0.108 -0.847,0.326l-0.237,-0.279c0.261,-0.269 0.652,-0.403 1.173,-0.403c0.135,0 0.264,0.02 0.389,0.059c0.124,0.04 0.232,0.1 0.323,0.181c0.091,0.081 0.164,0.183 0.219,0.305c0.055,0.123 0.083,0.269 0.083,0.439l0,1.239c0,0.107 0.005,0.218 0.015,0.335c0.01,0.116 0.021,0.212 0.032,0.287l-0.379,0c-0.012,-0.067 -0.021,-0.14 -0.027,-0.219c-0.006,-0.079 -0.009,-0.156 -0.009,-0.231l-0.011,0c-0.115,0.186 -0.25,0.319 -0.406,0.4c-0.156,0.081 -0.347,0.121 -0.572,0.121c-0.123,0 -0.241,-0.016 -0.356,-0.05c-0.115,-0.034 -0.216,-0.085 -0.305,-0.154c-0.089,-0.069 -0.16,-0.154 -0.214,-0.255c-0.053,-0.101 -0.08,-0.218 -0.08,-0.353c0,-0.225 0.059,-0.402 0.175,-0.53c0.117,-0.129 0.263,-0.224 0.439,-0.288c0.176,-0.063 0.363,-0.102 0.563,-0.118c0.199,-0.016 0.382,-0.024 0.548,-0.024l0.196,0Z" style="fill:url(#_Linear17);fill-rule:nonzero;"/><path d="M56.189,98.307c-0.008,-0.075 -0.012,-0.149 -0.014,-0.222c-0.002,-0.073 -0.003,-0.147 -0.003,-0.222l-0.012,0c-0.044,0.075 -0.099,0.144 -0.166,0.207c-0.067,0.063 -0.143,0.118 -0.225,0.163c-0.083,0.046 -0.171,0.081 -0.264,0.107c-0.093,0.026 -0.185,0.038 -0.276,0.038c-0.356,0 -0.618,-0.093 -0.788,-0.281c-0.17,-0.188 -0.255,-0.456 -0.255,-0.803l0,-1.761l0.391,0l0,1.535c0,0.155 0.012,0.291 0.036,0.409c0.023,0.119 0.064,0.219 0.121,0.3c0.057,0.081 0.135,0.142 0.231,0.184c0.097,0.041 0.219,0.062 0.365,0.062c0.02,0 0.075,-0.008 0.166,-0.024c0.091,-0.016 0.187,-0.059 0.287,-0.13c0.101,-0.071 0.191,-0.178 0.27,-0.32c0.079,-0.143 0.119,-0.34 0.119,-0.593l0,-1.423l0.391,0l0,2.164c0,0.075 0.003,0.17 0.009,0.284c0.006,0.115 0.013,0.224 0.02,0.326l-0.403,0Z" style="fill:url(#_Linear18);fill-rule:nonzero;"/><path d="M57.719,96.92c0,0.154 0.024,0.299 0.074,0.433c0.049,0.134 0.119,0.251 0.21,0.35c0.091,0.098 0.201,0.177 0.329,0.234c0.129,0.057 0.274,0.086 0.436,0.086c0.158,0 0.305,-0.029 0.441,-0.086c0.137,-0.057 0.254,-0.136 0.353,-0.234c0.099,-0.099 0.176,-0.216 0.231,-0.35c0.056,-0.134 0.083,-0.279 0.083,-0.433c0,-0.154 -0.027,-0.298 -0.083,-0.432c-0.055,-0.135 -0.132,-0.251 -0.231,-0.35c-0.099,-0.099 -0.216,-0.177 -0.353,-0.234c-0.136,-0.058 -0.283,-0.086 -0.441,-0.086c-0.162,0 -0.307,0.028 -0.436,0.086c-0.128,0.057 -0.238,0.135 -0.329,0.234c-0.091,0.099 -0.161,0.215 -0.21,0.35c-0.05,0.134 -0.074,0.278 -0.074,0.432ZM60.25,98.307l-0.392,0l0,-0.462l-0.011,0c-0.064,0.095 -0.139,0.176 -0.226,0.243c-0.087,0.067 -0.177,0.122 -0.272,0.166c-0.095,0.043 -0.193,0.075 -0.294,0.095c-0.101,0.02 -0.196,0.029 -0.287,0.029c-0.218,0 -0.416,-0.036 -0.596,-0.109c-0.18,-0.073 -0.335,-0.175 -0.465,-0.306c-0.131,-0.13 -0.232,-0.284 -0.305,-0.462c-0.074,-0.178 -0.11,-0.371 -0.11,-0.581c0,-0.209 0.036,-0.403 0.11,-0.581c0.073,-0.177 0.174,-0.332 0.305,-0.462c0.13,-0.13 0.285,-0.232 0.465,-0.305c0.18,-0.073 0.378,-0.11 0.596,-0.11c0.091,0 0.186,0.01 0.287,0.03c0.101,0.02 0.199,0.051 0.294,0.095c0.095,0.043 0.185,0.098 0.272,0.166c0.087,0.067 0.162,0.148 0.226,0.243l0.011,0l0,-2.17l0.392,0l0,4.481Z" style="fill:url(#_Linear19);fill-rule:nonzero;"/><path d="M61.672,94.466c0,0.083 -0.029,0.151 -0.089,0.205c-0.059,0.053 -0.124,0.08 -0.195,0.08c-0.071,0 -0.137,-0.027 -0.196,-0.08c-0.059,-0.054 -0.089,-0.122 -0.089,-0.205c0,-0.083 0.03,-0.151 0.089,-0.204c0.059,-0.054 0.125,-0.08 0.196,-0.08c0.071,0 0.136,0.026 0.195,0.08c0.06,0.053 0.089,0.121 0.089,0.204ZM61.583,98.307l-0.391,0l0,-2.774l0.391,0l0,2.774Z" style="fill:url(#_Linear20);fill-rule:nonzero;"/><path d="M64.903,96.92c0,-0.154 -0.025,-0.298 -0.074,-0.432c-0.05,-0.135 -0.12,-0.251 -0.211,-0.35c-0.091,-0.099 -0.2,-0.177 -0.329,-0.234c-0.128,-0.058 -0.273,-0.086 -0.435,-0.086c-0.163,0 -0.308,0.028 -0.436,0.086c-0.129,0.057 -0.237,0.135 -0.326,0.234c-0.089,0.099 -0.158,0.215 -0.208,0.35c-0.049,0.134 -0.074,0.278 -0.074,0.432c0,0.154 0.025,0.299 0.074,0.433c0.05,0.134 0.119,0.251 0.208,0.35c0.089,0.098 0.197,0.177 0.326,0.234c0.128,0.057 0.273,0.086 0.436,0.086c0.162,0 0.307,-0.029 0.435,-0.086c0.129,-0.057 0.238,-0.136 0.329,-0.234c0.091,-0.099 0.161,-0.216 0.211,-0.35c0.049,-0.134 0.074,-0.279 0.074,-0.433ZM65.329,96.92c0,0.21 -0.036,0.403 -0.109,0.581c-0.073,0.178 -0.175,0.332 -0.305,0.462c-0.131,0.131 -0.286,0.233 -0.466,0.306c-0.18,0.073 -0.378,0.109 -0.595,0.109c-0.214,0 -0.41,-0.036 -0.59,-0.109c-0.18,-0.073 -0.335,-0.175 -0.466,-0.306c-0.13,-0.13 -0.232,-0.284 -0.305,-0.462c-0.073,-0.178 -0.109,-0.371 -0.109,-0.581c0,-0.209 0.036,-0.403 0.109,-0.581c0.073,-0.177 0.175,-0.332 0.305,-0.462c0.131,-0.13 0.286,-0.232 0.466,-0.305c0.18,-0.073 0.376,-0.11 0.59,-0.11c0.217,0 0.415,0.037 0.595,0.11c0.18,0.073 0.335,0.175 0.466,0.305c0.13,0.13 0.232,0.285 0.305,0.462c0.073,0.178 0.109,0.372 0.109,0.581Z" style="fill:url(#_Linear21);fill-rule:nonzero;"/><rect x="66.13" y="93.826" width="0.391" height="4.481" style="fill:url(#_Linear22);fill-rule:nonzero;"/><path d="M69.84,96.92c0,-0.154 -0.024,-0.298 -0.074,-0.432c-0.049,-0.135 -0.119,-0.251 -0.21,-0.35c-0.091,-0.099 -0.201,-0.177 -0.329,-0.234c-0.129,-0.058 -0.274,-0.086 -0.436,-0.086c-0.162,0 -0.307,0.028 -0.436,0.086c-0.128,0.057 -0.237,0.135 -0.326,0.234c-0.089,0.099 -0.158,0.215 -0.207,0.35c-0.049,0.134 -0.074,0.278 -0.074,0.432c0,0.154 0.025,0.299 0.074,0.433c0.049,0.134 0.118,0.251 0.207,0.35c0.089,0.098 0.198,0.177 0.326,0.234c0.129,0.057 0.274,0.086 0.436,0.086c0.162,0 0.307,-0.029 0.436,-0.086c0.128,-0.057 0.238,-0.136 0.329,-0.234c0.091,-0.099 0.161,-0.216 0.21,-0.35c0.05,-0.134 0.074,-0.279 0.074,-0.433ZM70.267,96.92c0,0.21 -0.037,0.403 -0.11,0.581c-0.073,0.178 -0.175,0.332 -0.305,0.462c-0.13,0.131 -0.285,0.233 -0.465,0.306c-0.18,0.073 -0.379,0.109 -0.596,0.109c-0.213,0 -0.41,-0.036 -0.59,-0.109c-0.18,-0.073 -0.335,-0.175 -0.465,-0.306c-0.13,-0.13 -0.232,-0.284 -0.305,-0.462c-0.073,-0.178 -0.11,-0.371 -0.11,-0.581c0,-0.209 0.037,-0.403 0.11,-0.581c0.073,-0.177 0.175,-0.332 0.305,-0.462c0.13,-0.13 0.285,-0.232 0.465,-0.305c0.18,-0.073 0.377,-0.11 0.59,-0.11c0.217,0 0.416,0.037 0.596,0.11c0.18,0.073 0.335,0.175 0.465,0.305c0.13,0.13 0.232,0.285 0.305,0.462c0.073,0.178 0.11,0.372 0.11,0.581Z" style="fill:url(#_Linear23);fill-rule:nonzero;"/><path d="M71.263,96.885c0,0.146 0.026,0.283 0.08,0.412c0.053,0.128 0.126,0.241 0.219,0.338c0.093,0.096 0.202,0.173 0.326,0.231c0.125,0.057 0.26,0.086 0.406,0.086c0.142,0 0.278,-0.026 0.406,-0.077c0.129,-0.052 0.242,-0.124 0.341,-0.217c0.099,-0.093 0.175,-0.204 0.228,-0.335c0.054,-0.13 0.078,-0.276 0.074,-0.438c0,-0.147 -0.023,-0.284 -0.071,-0.412c-0.047,-0.129 -0.116,-0.241 -0.207,-0.338c-0.091,-0.097 -0.202,-0.174 -0.332,-0.231c-0.131,-0.058 -0.277,-0.086 -0.439,-0.086c-0.146,0 -0.281,0.028 -0.406,0.086c-0.124,0.057 -0.233,0.134 -0.326,0.231c-0.093,0.097 -0.166,0.209 -0.219,0.338c-0.054,0.128 -0.08,0.265 -0.08,0.412ZM71.192,98.864c0.114,0.155 0.263,0.278 0.447,0.371c0.184,0.093 0.388,0.139 0.614,0.139c0.197,0 0.365,-0.028 0.504,-0.086c0.138,-0.057 0.249,-0.135 0.334,-0.234c0.085,-0.099 0.147,-0.214 0.184,-0.347c0.038,-0.132 0.056,-0.273 0.056,-0.423l0,-0.498l-0.011,0c-0.127,0.189 -0.281,0.324 -0.463,0.403c-0.181,0.079 -0.373,0.118 -0.575,0.118c-0.201,0 -0.39,-0.035 -0.566,-0.106c-0.176,-0.072 -0.329,-0.169 -0.459,-0.294c-0.131,-0.124 -0.233,-0.273 -0.308,-0.447c-0.075,-0.174 -0.113,-0.362 -0.113,-0.563c0,-0.202 0.036,-0.39 0.107,-0.564c0.071,-0.173 0.169,-0.326 0.293,-0.456c0.125,-0.13 0.273,-0.232 0.445,-0.305c0.172,-0.073 0.36,-0.11 0.566,-0.11c0.083,0 0.171,0.008 0.264,0.024c0.092,0.016 0.185,0.043 0.278,0.083c0.093,0.039 0.185,0.094 0.276,0.163c0.091,0.069 0.176,0.157 0.255,0.264l0.011,0l0,-0.463l0.392,0l0,2.751c0,0.15 -0.019,0.31 -0.057,0.48c-0.037,0.17 -0.11,0.326 -0.219,0.468c-0.109,0.142 -0.26,0.261 -0.453,0.356c-0.194,0.094 -0.447,0.142 -0.759,0.142c-0.277,0 -0.524,-0.046 -0.741,-0.136c-0.217,-0.091 -0.415,-0.232 -0.593,-0.421l0.291,-0.309Z" style="fill:url(#_Linear24);fill-rule:nonzero;"/><path d="M75.631,97.827l0.848,-2.294l0.474,0l-1.387,3.497c-0.083,0.214 -0.189,0.384 -0.317,0.51c-0.128,0.127 -0.313,0.19 -0.554,0.19c-0.059,0 -0.12,-0.002 -0.181,-0.006c-0.061,-0.004 -0.122,-0.016 -0.181,-0.036l0.042,-0.379c0.083,0.043 0.181,0.065 0.296,0.065c0.138,0 0.247,-0.043 0.326,-0.13c0.079,-0.087 0.148,-0.21 0.208,-0.368l0.201,-0.533l-1.138,-2.81l0.492,0l0.871,2.294Z" style="fill:url(#_Linear25);fill-rule:nonzero;"/></g></g><path d="M61.512,48.811c0.012,0.112 0.023,0.224 0.035,0.336c0,0 0,-0.001 0,-0.001c0.018,0.169 0.036,0.337 0.054,0.506l0,-0.001c0.03,0.275 0.06,0.55 0.092,0.825l0,-0.001c0.006,0.055 0.012,0.109 0.019,0.164c0,0 0,-0.002 0,-0.001c0.012,0.107 0.025,0.215 0.038,0.322c0,0.001 0,-0.001 0,-0.001c0.006,0.053 0.013,0.107 0.019,0.16c0,0.001 0,-0.001 0,-0.001c0.006,0.053 0.013,0.106 0.019,0.16l0,-0.002c0.013,0.105 0.027,0.21 0.04,0.315c0,0 0,-0.002 0,-0.001c0.006,0.051 0.026,0.206 0.02,0.154c0.013,0.103 0.027,0.206 0.04,0.308c0,0.001 0,-0.002 0,-0.001c0.014,0.101 0.027,0.202 0.041,0.303l0,-0.001c0.021,0.149 0.021,0.149 0.042,0.298c0,0.001 0,-0.002 0,-0.002c0.007,0.05 0.014,0.099 0.021,0.149c0,0 0,-0.003 0,-0.002c0.007,0.049 0.014,0.098 0.021,0.147l0,-0.002c0.022,0.144 0.022,0.144 0.044,0.288c0,0.001 -0.001,-0.002 -0.001,-0.002c0.015,0.095 0.03,0.189 0.045,0.283l-0.001,-0.002c0.015,0.092 0.03,0.184 0.045,0.276c0.015,0.09 0.031,0.181 0.046,0.271c0,0.001 0,-0.003 0,-0.002c0.008,0.045 0.016,0.09 0.023,0.135l0,-0.003c0.023,0.132 0.023,0.131 0.047,0.263c0.001,0.001 0,-0.004 0,-0.003c0.008,0.044 0.016,0.087 0.024,0.13l0,-0.002c0.024,0.125 0.048,0.25 0.073,0.376l-0.001,-0.003c0.017,0.081 0.034,0.162 0.051,0.243c0.016,0.077 0.033,0.154 0.05,0.231c0.045,0.202 0.092,0.403 0.143,0.604c0,0.001 0,-0.003 0,-0.002c0.022,0.085 0.044,0.171 0.068,0.256c0,0.001 -0.001,-0.003 -0.001,-0.002c0.014,0.05 0.014,0.05 0.028,0.1c0,0.001 -0.001,-0.003 -0.001,-0.002c0.005,0.017 0.01,0.034 0.015,0.051l-0.001,-0.003c0.014,0.049 0.014,0.049 0.028,0.097c0.001,0.001 -0.001,-0.003 0,-0.002c0.014,0.047 0.028,0.094 0.042,0.141l-0.001,-0.003c0.014,0.045 0.029,0.091 0.043,0.136c0.001,0.001 -0.001,-0.004 -0.001,-0.003c0.01,0.03 0.02,0.06 0.03,0.089l-0.001,-0.003c0.005,0.015 0.01,0.03 0.015,0.045c0,0.001 -0.002,-0.004 -0.001,-0.003c0.014,0.042 0.029,0.084 0.043,0.125c0.015,0.04 0.029,0.079 0.044,0.119c0.001,0.001 -0.002,-0.005 -0.001,-0.004c0.004,0.013 0.009,0.026 0.014,0.038c0.061,0.158 0.127,0.314 0.203,0.465c0.057,0.112 0.12,0.222 0.194,0.325c0.043,0.06 0.09,0.118 0.145,0.167c0.016,0.014 0.033,0.027 0.051,0.039c0.01,0.005 0.019,0.011 0.03,0.015c0.003,0 0.006,0 0.009,-0.001c0.057,-0.008 0.109,-0.034 0.156,-0.066c0.082,-0.055 0.151,-0.128 0.214,-0.204c0.086,-0.103 0.16,-0.217 0.228,-0.333c0.094,-0.163 0.175,-0.332 0.25,-0.504c0,-0.001 -0.002,0.004 -0.002,0.003c0.018,-0.042 0.036,-0.084 0.053,-0.126c0.054,-0.133 0.104,-0.268 0.152,-0.404l-0.001,0.005c0.06,-0.175 0.118,-0.351 0.171,-0.529c0.05,-0.166 0.096,-0.333 0.141,-0.501c0,-0.001 -0.001,0.005 -0.001,0.004c0.016,-0.059 0.031,-0.119 0.046,-0.178c0.001,-0.001 -0.001,0.004 0,0.003c0.015,-0.06 0.03,-0.121 0.045,-0.181l-0.001,0.003c0.008,-0.031 0.016,-0.063 0.023,-0.094c0,-0.001 -0.001,0.004 0,0.003c0.037,-0.156 0.073,-0.313 0.108,-0.47c0.001,0 0,0.003 0,0.003c0.014,-0.065 0.029,-0.131 0.043,-0.196c0,0 -0.001,0.003 -0.001,0.003c0.014,-0.067 0.029,-0.133 0.042,-0.199l0,0.002c0.007,-0.034 0.014,-0.067 0.021,-0.101c0,-0.001 0,0.002 0,0.002c0.013,-0.066 0.026,-0.131 0.04,-0.196c0.014,-0.071 0.028,-0.142 0.041,-0.212c0.007,-0.034 0.026,-0.134 0.02,-0.101c0.013,-0.07 0.026,-0.14 0.039,-0.21c0.001,0 0,0.003 0,0.002c0.013,-0.071 0.026,-0.142 0.039,-0.213c0,0 0,0.002 0,0.002c0.013,-0.072 0.026,-0.143 0.039,-0.215c0,-0.001 -0.001,0.002 0,0.001c0.006,-0.036 0.012,-0.072 0.019,-0.109c0,0 -0.001,0.002 0,0.002c0.012,-0.073 0.025,-0.146 0.037,-0.219l0,0.001c0.019,-0.11 0.038,-0.22 0.056,-0.331c0,0 0,0.002 0,0.002c0.018,-0.112 0.037,-0.224 0.055,-0.336l0,0.001c0.012,-0.075 0.024,-0.151 0.036,-0.227c0,-0.001 0,0.003 0,0.002c0.012,-0.076 0.048,-0.303 0.035,-0.227c0.012,-0.079 0.025,-0.158 0.037,-0.237c0.011,-0.074 0.045,-0.297 0.033,-0.222c0.035,-0.234 0.07,-0.467 0.104,-0.701c0,0 -0.001,0.002 0,0.002c0.011,-0.079 0.022,-0.158 0.034,-0.237l-0.001,0.001c0.012,-0.079 0.023,-0.158 0.034,-0.237c0,0 0,0.002 0,0.001c0.011,-0.079 0.022,-0.158 0.033,-0.237c0.001,-0.001 0,0.001 0,0c0.023,-0.158 0.045,-0.317 0.067,-0.476l0,0.001c0.121,-0.88 0.24,-1.759 0.362,-2.639c0.031,-0.228 0.064,-0.457 0.096,-0.685c0.093,-0.647 0.189,-1.294 0.294,-1.939c0.082,-0.498 0.168,-0.994 0.265,-1.489c0.075,-0.387 0.156,-0.773 0.247,-1.156c0.069,-0.294 0.144,-0.586 0.228,-0.875c0.062,-0.213 0.128,-0.425 0.202,-0.634c0.051,-0.146 0.106,-0.292 0.166,-0.435c0.046,-0.113 0.096,-0.225 0.149,-0.335c0.036,-0.073 0.073,-0.146 0.112,-0.218c0.033,-0.06 0.068,-0.12 0.104,-0.179c0.195,-0.317 0.442,-0.614 0.764,-0.808c0.049,-0.029 0.099,-0.056 0.15,-0.08c0.074,-0.034 0.151,-0.063 0.229,-0.085c0.103,-0.028 0.209,-0.045 0.316,-0.051c0.138,-0.007 0.277,0.006 0.412,0.037c0.097,0.023 0.192,0.055 0.283,0.096c0.062,0.028 0.122,0.06 0.179,0.096c0.353,0.217 0.608,0.558 0.798,0.92c0.027,0.05 0.052,0.101 0.076,0.152c0.042,0.089 0.08,0.178 0.116,0.269c0.045,0.112 0.086,0.225 0.124,0.339c0.053,0.162 0.101,0.326 0.145,0.491c0.052,0.197 0.098,0.395 0.14,0.595c0.055,0.26 0.103,0.521 0.146,0.783c0.054,0.328 0.101,0.658 0.143,0.988c0.055,0.429 0.102,0.859 0.146,1.289c0.06,0.599 0.114,1.199 0.167,1.799c0.021,0.237 0.042,0.473 0.063,0.71c0,0 0,-0.001 0,-0.001c0.01,0.111 0.039,0.442 0.03,0.332c0.015,0.164 0.03,0.328 0.046,0.492c0,0 0,-0.002 0,-0.001c0.01,0.108 0.021,0.216 0.032,0.324l-0.001,-0.002c0.006,0.054 0.011,0.108 0.017,0.162c0,0 -0.001,-0.002 0,-0.002c0.01,0.106 0.022,0.212 0.033,0.318c0,0 0,-0.003 0,-0.002c0.005,0.052 0.011,0.105 0.017,0.158l0,-0.003c0.005,0.051 0.011,0.102 0.017,0.153c0.006,0.052 0.024,0.206 0.017,0.154c0.013,0.102 0.025,0.203 0.037,0.304c0,0.001 0,-0.004 0,-0.003c0.009,0.074 0.019,0.148 0.029,0.223c0,0 -0.001,-0.003 0,-0.002c0.006,0.049 0.013,0.097 0.019,0.146c0,0.001 0,-0.002 0,-0.002c0.007,0.049 0.013,0.097 0.02,0.145c0,0 0,-0.003 0,-0.002c0.004,0.024 0.007,0.048 0.01,0.072c0.001,0.001 0,-0.002 0,-0.002c0.004,0.024 0.007,0.048 0.011,0.072c0,0.001 -0.001,-0.003 0,-0.002c0.003,0.024 0.007,0.048 0.01,0.071l0,-0.002c0.007,0.047 0.014,0.093 0.022,0.139c0,0.001 -0.001,-0.003 -0.001,-0.002c0.004,0.023 0.008,0.047 0.011,0.07c0,0.001 0,-0.003 0,-0.002c0.004,0.023 0.008,0.046 0.011,0.069c0,0.001 0,-0.003 0,-0.003c0.004,0.023 0.008,0.046 0.011,0.069l0,-0.002c0.008,0.044 0.015,0.088 0.023,0.133c0,0.001 -0.001,-0.004 0,-0.003c0.004,0.022 0.008,0.045 0.012,0.067c0,0.001 -0.001,-0.004 -0.001,-0.003c0.008,0.043 0.016,0.087 0.024,0.13l0,-0.003c0.008,0.042 0.016,0.084 0.024,0.126c0,0.001 -0.001,-0.004 0,-0.003c0.004,0.022 0.008,0.043 0.012,0.064c0.001,0.001 0,-0.004 0,-0.003c0.016,0.08 0.033,0.159 0.051,0.238l-0.001,-0.003c0.013,0.056 0.026,0.113 0.04,0.169c0.013,0.054 0.027,0.109 0.041,0.163c0.001,0.001 -0.001,-0.006 -0.001,-0.005c0.005,0.019 0.01,0.038 0.015,0.057l-0.001,-0.005c0.014,0.051 0.029,0.101 0.043,0.152c0.023,0.076 0.047,0.153 0.074,0.228c0.019,0.055 0.039,0.11 0.06,0.164c0.019,0.049 0.04,0.097 0.061,0.145c0.015,0.032 0.03,0.064 0.046,0.096c0.029,0.058 0.061,0.114 0.097,0.168c0.027,0.041 0.056,0.081 0.09,0.117c0.014,0.015 0.029,0.03 0.046,0.043c0.012,0.009 0.026,0.02 0.041,0.023c0.006,0.001 0.013,0.001 0.019,0c0.026,-0.002 0.051,-0.005 0.077,-0.009c0.248,-0.037 0.483,-0.133 0.703,-0.251c0.308,-0.166 0.588,-0.378 0.853,-0.604c0.001,-0.001 -0.003,0.003 -0.002,0.002c0.064,-0.055 0.128,-0.111 0.19,-0.168c0.151,-0.138 0.297,-0.282 0.44,-0.429l-0.004,0.004c0.038,-0.039 0.075,-0.078 0.112,-0.117c0.037,-0.04 0.074,-0.08 0.112,-0.12c0.037,-0.04 0.073,-0.081 0.11,-0.121c0.001,-0.001 -0.003,0.004 -0.002,0.003c0.15,-0.169 0.298,-0.34 0.442,-0.513c0.001,-0.001 -0.002,0.003 -0.001,0.002c0.019,-0.023 0.037,-0.046 0.056,-0.068c0.001,-0.001 -0.002,0.002 -0.001,0.002c0.037,-0.046 0.074,-0.091 0.111,-0.137c0.001,0 -0.002,0.003 -0.002,0.003c0.074,-0.092 0.147,-0.184 0.22,-0.276c0.001,0 -0.002,0.003 -0.001,0.002c0.018,-0.024 0.037,-0.047 0.055,-0.071l-0.001,0.002c0.019,-0.024 0.037,-0.048 0.056,-0.072c0,0 -0.002,0.003 -0.002,0.002c0.037,-0.047 0.073,-0.095 0.11,-0.142c0,0 -0.002,0.002 -0.001,0.002c0.017,-0.024 0.071,-0.095 0.053,-0.071c0.037,-0.048 0.073,-0.095 0.109,-0.143c0,-0.001 -0.001,0.002 -0.001,0.001c0.018,-0.024 0.036,-0.048 0.055,-0.073c0.017,-0.023 0.069,-0.093 0.052,-0.07c0.036,-0.048 0.071,-0.096 0.107,-0.144c0,-0.001 -0.001,0.001 -0.001,0.001c0.071,-0.096 0.141,-0.193 0.212,-0.29c0,0 -0.002,0.002 -0.001,0.002c0.07,-0.097 0.139,-0.194 0.209,-0.291l-0.001,0.002c0.068,-0.097 0.137,-0.194 0.206,-0.291c0,0 -0.002,0.002 -0.001,0.002c0.033,-0.048 0.066,-0.095 0.1,-0.142c0.067,-0.097 0.134,-0.193 0.201,-0.289c0,0 0,0.001 0,0.001c0.033,-0.047 0.132,-0.188 0.098,-0.142c0.22,-0.317 0.44,-0.634 0.66,-0.95c0.061,-0.086 0.121,-0.172 0.182,-0.258c0.203,-0.288 0.409,-0.574 0.624,-0.853c0.254,-0.33 0.521,-0.65 0.802,-0.957c0.518,-0.565 1.085,-1.087 1.706,-1.537c0.576,-0.419 1.199,-0.774 1.857,-1.047c0.408,-0.17 0.829,-0.308 1.257,-0.414c0.177,-0.044 0.355,-0.082 0.535,-0.115c0.096,-0.018 0.193,-0.034 0.29,-0.05c0.029,-0.005 0.058,-0.01 0.087,-0.015c0.072,-0.012 0.143,-0.024 0.214,-0.034c0.181,-0.027 0.363,-0.047 0.545,-0.061c0.146,-0.011 0.292,-0.018 0.439,-0.02c0.128,-0.002 0.257,0 0.385,0.007c0.4,0.019 0.8,0.078 1.184,0.196c0.368,0.113 0.721,0.282 1.029,0.516c0.129,0.098 0.248,0.207 0.36,0.325l0.019,0.02c0.025,0.029 0.026,0.028 0.048,0.059l0,0c0.042,0.066 0.056,0.081 0.085,0.154c0.029,0.073 0.028,0.093 0.042,0.17l0,0.001c0.001,0.037 0.005,0.075 0.003,0.112c-0.005,0.076 -0.022,0.149 -0.051,0.219c-0.029,0.07 -0.07,0.133 -0.121,0.189c-0.05,0.056 -0.11,0.103 -0.176,0.139c-0.133,0.072 -0.289,0.097 -0.438,0.07l0,0c-0.027,-0.007 -0.055,-0.012 -0.081,-0.02c-0.027,-0.009 -0.053,-0.019 -0.078,-0.03c-0.044,-0.02 -0.066,-0.035 -0.102,-0.057c-0.039,-0.03 -0.078,-0.061 -0.118,-0.09c-0.172,-0.125 -0.357,-0.23 -0.551,-0.317c-0.363,-0.165 -0.756,-0.265 -1.153,-0.296c-0.117,-0.009 -0.233,-0.013 -0.349,-0.01c-0.084,0.001 -0.167,0.006 -0.25,0.012c-0.084,0.006 -0.169,0.013 -0.253,0.022c-0.187,0.018 -0.374,0.041 -0.56,0.071c-0.068,0.011 -0.135,0.023 -0.203,0.036c-0.034,0.006 -0.07,0.012 -0.104,0.02c-0.304,0.071 -0.603,0.161 -0.895,0.271c-0.143,0.053 -0.283,0.111 -0.421,0.176c-0.07,0.032 -0.138,0.067 -0.207,0.102c-0.001,0 0.003,-0.002 0.002,-0.001c-0.126,0.064 -0.25,0.131 -0.374,0.2c-0.001,0 0.003,-0.002 0.002,-0.001c-0.014,0.008 -0.029,0.016 -0.043,0.024c-0.001,0 0.003,-0.002 0.002,-0.001c-0.029,0.016 -0.057,0.032 -0.085,0.048c-0.001,0.001 0.003,-0.002 0.002,-0.001c-0.015,0.008 -0.029,0.017 -0.044,0.025c0,0 0.003,-0.002 0.003,-0.001c-0.015,0.008 -0.03,0.017 -0.044,0.025c-0.001,0 0.003,-0.002 0.002,-0.001c-0.042,0.024 -0.084,0.049 -0.126,0.074c-0.001,0.001 0.003,-0.001 0.002,-0.001c-0.015,0.009 -0.029,0.018 -0.044,0.026c0,0.001 0.003,-0.001 0.003,-0.001c-0.015,0.009 -0.029,0.018 -0.044,0.026c-0.001,0.001 0.003,-0.001 0.002,-0.001c-0.307,0.188 -0.606,0.389 -0.897,0.601c-0.001,0.001 0.002,-0.002 0.002,-0.001c-0.014,0.01 -0.028,0.02 -0.042,0.031c-0.001,0 0.003,-0.003 0.002,-0.002c-0.014,0.01 -0.028,0.021 -0.042,0.031c0,0.001 0.003,-0.002 0.002,-0.002c-0.04,0.031 -0.08,0.061 -0.12,0.091c-0.001,0.001 0.003,-0.002 0.002,-0.001c-0.026,0.02 -0.053,0.041 -0.08,0.062l0.002,-0.002c-0.065,0.051 -0.13,0.103 -0.195,0.156l0.003,-0.002c-0.039,0.031 -0.077,0.062 -0.114,0.094c-0.014,0.011 -0.027,0.022 -0.04,0.033c-0.001,0.001 0.001,-0.001 0.002,-0.001c-0.038,0.032 -0.076,0.064 -0.113,0.097c-0.013,0.011 -0.025,0.022 -0.038,0.032c0,0.001 0.002,-0.001 0.003,-0.001c-0.038,0.032 -0.075,0.066 -0.112,0.099c-0.001,0.001 0.003,-0.003 0.002,-0.002c-0.121,0.109 -0.239,0.221 -0.354,0.335l0.002,-0.002c-0.012,0.012 -0.024,0.024 -0.036,0.036c-0.001,0.001 0.003,-0.003 0.002,-0.002c-0.023,0.023 -0.046,0.047 -0.07,0.07c0,0.001 0.004,-0.003 0.003,-0.002c-0.011,0.012 -0.023,0.023 -0.034,0.035c-0.044,0.045 -0.087,0.091 -0.13,0.138l-0.026,0.028c-0.03,0.035 -0.06,0.07 -0.09,0.105c-0.124,0.148 -0.246,0.298 -0.365,0.45l0.002,-0.003c-0.047,0.062 -0.059,0.076 -0.105,0.138c-0.018,0.023 -0.036,0.046 -0.053,0.07c-0.001,0.001 0.001,-0.002 0.002,-0.003l-0.04,0.053l-0.019,0.027c-0.024,0.035 -0.047,0.07 -0.071,0.105c-0.092,0.143 -0.18,0.29 -0.26,0.441c-0.232,0.437 -0.402,0.911 -0.457,1.405c-0.011,0.097 -0.017,0.195 -0.018,0.294c-0.002,0.134 0.005,0.268 0.022,0.401c0.025,0.201 0.071,0.4 0.137,0.592c0.101,0.297 0.248,0.577 0.423,0.836c0.261,0.386 0.584,0.727 0.933,1.033c0.145,0.126 0.294,0.246 0.447,0.362c0.049,0.037 0.056,0.041 0.103,0.076c0.048,0.035 0.095,0.07 0.144,0.102c0.066,0.042 0.133,0.08 0.203,0.115c0.221,0.109 0.46,0.178 0.703,0.215c0.268,0.04 0.54,0.042 0.81,0.02c0.346,-0.029 0.688,-0.099 1.022,-0.193c0.644,-0.181 1.261,-0.451 1.849,-0.768c0.125,-0.067 0.249,-0.138 0.372,-0.209c0.001,-0.001 -0.004,0.002 -0.003,0.001c0.143,-0.084 0.284,-0.17 0.424,-0.259c0.132,-0.084 0.26,-0.171 0.391,-0.256c0.059,-0.038 0.118,-0.076 0.177,-0.113c0.171,-0.108 0.344,-0.212 0.519,-0.313c0.163,-0.093 0.328,-0.183 0.496,-0.269c0.812,-0.417 1.685,-0.743 2.596,-0.85c0.139,-0.016 0.279,-0.028 0.42,-0.033c0.237,-0.01 0.475,-0.004 0.712,0.017c0.361,0.033 0.718,0.104 1.067,0.201c0.319,0.089 0.632,0.201 0.941,0.32c0.271,0.105 0.539,0.214 0.81,0.319l-0.002,-0.001c0.075,0.029 0.149,0.057 0.224,0.084c0.147,0.053 0.294,0.104 0.444,0.149c0.229,0.069 0.463,0.126 0.7,0.163c0.096,0.015 0.192,0.027 0.289,0.035c0.136,0.012 0.272,0.018 0.408,0.026c0.054,0.003 0.108,0.005 0.162,0.008c0,0 -0.002,0 -0.002,0c0.109,0.006 0.218,0.011 0.327,0.016c0.001,0 -0.002,0 -0.001,0c0.11,0.005 0.221,0.01 0.331,0.014l-0.001,0c0.056,0.002 0.112,0.004 0.168,0.006c0,0 -0.002,0 -0.001,0c0.699,0.025 1.398,0.04 2.097,0.049l-0.001,0c0.185,0.002 0.369,0.004 0.554,0.006c0,0 -0.001,0 -0.001,0c0.063,0 0.126,0.001 0.189,0.001c0.254,0.002 0.507,0.003 0.761,0.004c0.397,0 0.793,0 1.19,0l-0.001,0c1.307,-0.003 2.613,-0.011 3.919,-0.016c0.476,-0.002 0.953,-0.003 1.43,-0.004c0.414,0 0.828,0 1.243,0l0.255,0.001l0.346,0.143l0.144,0.344l-0.143,0.343l-0.345,0.145c-0.169,0.001 -0.338,0.002 -0.507,0.003c0,0 0.001,0 0.001,0c-0.331,0.002 -0.661,0.005 -0.991,0.008l0,0c-0.631,0.006 -1.26,0.013 -1.891,0.02l0,0c-1.151,0.015 -2.302,0.031 -3.454,0.043c-0.134,0 -0.269,0.003 -0.403,0.004c-0.328,0.003 -0.656,0.005 -0.984,0.007c-0.191,0 -0.382,0.002 -0.573,0.002c-0.432,0.001 -0.863,0 -1.295,-0.004c-0.968,-0.009 -1.935,-0.032 -2.902,-0.077c-0.05,-0.003 -0.1,-0.006 -0.15,-0.01c-0.157,-0.013 -0.313,-0.032 -0.469,-0.058c-0.262,-0.043 -0.521,-0.106 -0.776,-0.182c-0.41,-0.121 -0.81,-0.276 -1.21,-0.428c0,0 0.001,0 0.001,0c-0.039,-0.015 -0.077,-0.029 -0.116,-0.044c-0.001,0 0.002,0.001 0.002,0.001c-0.039,-0.015 -0.078,-0.029 -0.116,-0.044c-0.075,-0.028 -0.151,-0.055 -0.226,-0.082c-0.259,-0.092 -0.521,-0.177 -0.788,-0.241c-0.316,-0.077 -0.639,-0.124 -0.964,-0.133c-0.148,-0.004 -0.296,0 -0.444,0.012c-0.763,0.061 -1.497,0.325 -2.179,0.664c-0.112,0.056 -0.223,0.115 -0.333,0.174c-0.001,0.001 0.003,-0.002 0.002,-0.001c-0.017,0.009 -0.034,0.019 -0.051,0.028c-0.001,0.001 0.004,-0.002 0.003,-0.001c-0.051,0.028 -0.101,0.056 -0.151,0.084c-0.001,0.001 0.004,-0.002 0.003,-0.001c-0.139,0.079 -0.276,0.161 -0.412,0.245c0,0 0.004,-0.002 0.003,-0.002c-0.019,0.012 -0.037,0.023 -0.055,0.035c-0.001,0 0.003,-0.002 0.002,-0.002c-0.036,0.023 -0.072,0.046 -0.108,0.069c-0.001,0 0.003,-0.002 0.002,-0.001c-0.019,0.012 -0.037,0.023 -0.056,0.035c-0.001,0.001 0.003,-0.001 0.002,-0.001c-0.055,0.036 -0.11,0.072 -0.165,0.108c0,0.001 0.003,-0.002 0.003,-0.001c-0.113,0.075 -0.225,0.152 -0.339,0.227c-0.057,0.038 -0.115,0.076 -0.173,0.113c-0.301,0.193 -0.609,0.376 -0.925,0.545c-0.248,0.133 -0.501,0.257 -0.758,0.372c-0.211,0.093 -0.425,0.18 -0.642,0.259c-0.173,0.063 -0.347,0.12 -0.523,0.171c-0.134,0.039 -0.269,0.074 -0.404,0.105c-0.114,0.027 -0.229,0.05 -0.344,0.071c-0.692,0.122 -1.414,0.135 -2.095,-0.051c-0.105,-0.029 -0.208,-0.062 -0.309,-0.1c-0.187,-0.07 -0.368,-0.156 -0.54,-0.257c-0.146,-0.087 -0.284,-0.187 -0.42,-0.289c-0.16,-0.119 -0.316,-0.244 -0.467,-0.374c-0.424,-0.362 -0.815,-0.768 -1.139,-1.223c-0.262,-0.367 -0.48,-0.767 -0.632,-1.192c-0.092,-0.255 -0.158,-0.519 -0.201,-0.787c-0.08,0.11 -0.159,0.22 -0.24,0.329c-0.331,0.449 -0.669,0.893 -1.026,1.321c-0.269,0.323 -0.547,0.639 -0.839,0.941c-0.219,0.227 -0.447,0.447 -0.686,0.654c-0.217,0.187 -0.443,0.365 -0.68,0.526c-0.303,0.204 -0.625,0.382 -0.968,0.508c-0.252,0.093 -0.514,0.157 -0.782,0.181c-0.129,0.011 -0.259,0.006 -0.387,-0.018c-0.097,-0.018 -0.193,-0.046 -0.284,-0.085c-0.063,-0.026 -0.123,-0.056 -0.181,-0.091c-0.049,-0.029 -0.096,-0.06 -0.142,-0.095c-0.306,-0.229 -0.52,-0.559 -0.681,-0.901c-0.032,-0.068 -0.062,-0.136 -0.091,-0.205c-0.036,-0.09 -0.07,-0.18 -0.102,-0.272c-0.046,-0.133 -0.087,-0.267 -0.125,-0.402c-0.053,-0.187 -0.1,-0.376 -0.141,-0.566c-0.055,-0.248 -0.103,-0.498 -0.145,-0.749c-0.054,-0.316 -0.101,-0.633 -0.142,-0.951c-0.048,-0.368 -0.091,-0.736 -0.13,-1.105c-0.052,-0.493 -0.098,-0.987 -0.143,-1.481c-0.03,-0.337 -0.06,-0.674 -0.09,-1.011c0,-0.001 0,0.001 0,0c-0.01,-0.111 -0.02,-0.223 -0.031,-0.335c0,0 0.001,0.001 0.001,0.001c-0.006,-0.055 -0.011,-0.111 -0.016,-0.167c0,0 0,0.001 0,0.001c-0.005,-0.056 -0.01,-0.111 -0.015,-0.167c0,0 0,0.001 0,0.001c-0.005,-0.055 -0.011,-0.111 -0.016,-0.166l0,0.001c-0.015,-0.165 -0.015,-0.165 -0.031,-0.33c0,-0.001 0,0.001 0,0.001c-0.006,-0.055 -0.011,-0.11 -0.017,-0.165c0,0 0.001,0.002 0.001,0.002c-0.006,-0.055 -0.011,-0.109 -0.017,-0.164l0,0.002c-0.011,-0.108 -0.022,-0.216 -0.034,-0.324c0,0 0.001,0.003 0.001,0.002c-0.006,-0.053 -0.012,-0.107 -0.018,-0.161c0,0 0,0.003 0,0.002c-0.006,-0.053 -0.012,-0.106 -0.018,-0.16l0.001,0.003c-0.012,-0.105 -0.024,-0.209 -0.037,-0.313c-0.018,-0.152 -0.038,-0.305 -0.058,-0.457l0.001,0.002c-0.011,-0.075 -0.011,-0.075 -0.021,-0.15c0,-0.001 0,0.002 0,0.002c-0.003,-0.025 -0.007,-0.05 -0.01,-0.076c0,0 0,0.003 0,0.002c-0.003,-0.024 -0.007,-0.049 -0.01,-0.074c-0.004,-0.024 -0.014,-0.095 -0.011,-0.071c-0.01,-0.072 -0.021,-0.145 -0.032,-0.217c-0.001,0 0,0.003 0,0.002c-0.004,-0.024 -0.008,-0.048 -0.012,-0.072c0,-0.001 0.001,0.003 0.001,0.002c-0.008,-0.047 -0.015,-0.094 -0.023,-0.141c0,-0.001 0,0.003 0,0.002c-0.004,-0.024 -0.008,-0.047 -0.012,-0.071c0,-0.001 0.001,0.003 0.001,0.002c-0.004,-0.023 -0.008,-0.047 -0.012,-0.07c0,-0.001 0,0.003 0,0.002c-0.004,-0.023 -0.008,-0.047 -0.012,-0.07l0,0.003c-0.012,-0.068 -0.012,-0.068 -0.024,-0.136c0,-0.001 0.001,0.004 0,0.003c-0.004,-0.023 -0.008,-0.046 -0.012,-0.068c-0.004,-0.022 -0.009,-0.044 -0.013,-0.066c0,-0.001 0.001,0.002 0.001,0.003c-0.009,-0.043 -0.017,-0.086 -0.026,-0.129c-0.004,-0.022 -0.009,-0.043 -0.013,-0.065c0,-0.001 0.001,0.002 0.001,0.004c-0.009,-0.043 -0.018,-0.085 -0.027,-0.127c0,-0.001 0.001,0.004 0.001,0.003c-0.005,-0.021 -0.01,-0.043 -0.015,-0.064c0,-0.001 0.001,0.005 0.001,0.003c-0.009,-0.041 -0.018,-0.082 -0.028,-0.122c0,-0.002 0.001,0.005 0.001,0.003c-0.005,-0.02 -0.01,-0.041 -0.015,-0.062c0,-0.001 0.002,0.005 0.001,0.004c-0.005,-0.021 -0.01,-0.041 -0.015,-0.062l0.001,0.004c-0.014,-0.056 -0.028,-0.113 -0.043,-0.169c-0.01,-0.037 -0.02,-0.074 -0.03,-0.11c-0.001,-0.002 0.002,0.006 0.001,0.004c-0.005,-0.018 -0.01,-0.036 -0.015,-0.055c-0.059,-0.201 -0.124,-0.4 -0.207,-0.593c-0.046,-0.108 -0.097,-0.214 -0.157,-0.315c-0.033,-0.055 -0.069,-0.109 -0.11,-0.159c-0.011,-0.013 -0.023,-0.027 -0.035,-0.04c-0.01,-0.011 -0.021,-0.022 -0.032,-0.033c-0.009,-0.009 -0.019,-0.017 -0.029,-0.025c-0.006,-0.005 -0.013,-0.01 -0.02,-0.015c-0.024,-0.018 -0.051,-0.032 -0.08,-0.037c-0.013,-0.002 -0.026,-0.002 -0.038,0.001c-0.014,0.004 -0.028,0.011 -0.04,0.019c-0.023,0.014 -0.044,0.03 -0.064,0.048c-0.028,0.025 -0.054,0.052 -0.078,0.081c-0.046,0.052 -0.087,0.11 -0.125,0.168c-0.089,0.136 -0.162,0.282 -0.23,0.43c-0.001,0.001 0.002,-0.005 0.002,-0.004c-0.059,0.132 -0.113,0.265 -0.163,0.401c-0.04,0.108 -0.078,0.218 -0.114,0.328c-0.047,0.145 -0.09,0.291 -0.132,0.438c0,0.001 0.001,-0.005 0.001,-0.004c-0.015,0.053 -0.03,0.106 -0.044,0.159c0,0.001 0.001,-0.004 0.001,-0.003c-0.029,0.109 -0.058,0.218 -0.085,0.328l0,-0.003c-0.014,0.057 -0.028,0.114 -0.042,0.172c0,0.001 0.001,-0.004 0.001,-0.003c-0.007,0.029 -0.014,0.059 -0.021,0.089c0,0.001 0.001,-0.004 0.001,-0.003c-0.035,0.149 -0.069,0.298 -0.102,0.448c0,0.001 0.001,-0.003 0.001,-0.003c-0.007,0.032 -0.013,0.063 -0.02,0.095c0,0.001 0,-0.003 0,-0.003c-0.006,0.032 -0.013,0.064 -0.02,0.096l0.001,-0.003c-0.007,0.032 -0.014,0.064 -0.02,0.096c0,0.001 0,-0.002 0,-0.002c-0.013,0.064 -0.026,0.128 -0.039,0.193c0,0 0.001,-0.003 0.001,-0.002c-0.007,0.032 -0.013,0.065 -0.02,0.098l0.001,-0.002c-0.007,0.033 -0.013,0.066 -0.02,0.099c0,0.001 0.001,-0.002 0.001,-0.002c-0.007,0.034 -0.013,0.067 -0.02,0.1c0,0.001 0.001,-0.002 0.001,-0.001c-0.007,0.033 -0.013,0.067 -0.019,0.1c0,0.001 0,-0.002 0,-0.002c-0.019,0.101 -0.037,0.202 -0.056,0.303c0,0.001 0.001,-0.002 0,-0.001c-0.006,0.034 -0.012,0.069 -0.018,0.103c0,0.001 0,-0.002 0,-0.001c-0.018,0.104 -0.018,0.104 -0.036,0.208l0,-0.002c-0.012,0.07 -0.024,0.14 -0.036,0.21c0,0.001 0,-0.001 0,-0.001c-0.006,0.036 -0.012,0.071 -0.018,0.107c0,0 0,-0.002 0,-0.001c-0.018,0.107 -0.018,0.107 -0.035,0.214l0,-0.001c-0.006,0.036 -0.012,0.072 -0.018,0.108c0,0 0,-0.001 0,-0.001c-0.017,0.109 -0.035,0.218 -0.052,0.327c0,0.001 0,-0.003 0,-0.002c-0.046,0.298 -0.092,0.596 -0.136,0.894c0,0 0,-0.002 0,-0.002c-0.011,0.077 -0.022,0.153 -0.033,0.229l0,-0.001c-0.011,0.077 -0.022,0.154 -0.033,0.231c0,0 0,-0.002 0,-0.002c-0.011,0.078 -0.022,0.155 -0.033,0.232c0,0.001 0,-0.001 0,-0.001c-0.033,0.234 -0.033,0.233 -0.066,0.467l0,-0.001c-0.011,0.078 -0.021,0.157 -0.032,0.235c0,0.001 0,-0.001 0,0c-0.011,0.078 -0.022,0.157 -0.033,0.236c0,0 0,-0.001 0,-0.001c-0.043,0.317 -0.086,0.634 -0.129,0.951l0,0c-0.234,1.724 -0.462,3.449 -0.76,5.163c-0.099,0.569 -0.207,1.136 -0.33,1.7c-0.092,0.419 -0.192,0.836 -0.306,1.25c-0.08,0.289 -0.167,0.577 -0.264,0.861c-0.072,0.212 -0.151,0.422 -0.237,0.628c-0.06,0.144 -0.125,0.286 -0.195,0.425c-0.044,0.09 -0.091,0.178 -0.14,0.264c-0.036,0.063 -0.073,0.125 -0.112,0.186c-0.24,0.379 -0.548,0.732 -0.949,0.945c-0.063,0.033 -0.127,0.063 -0.193,0.088c-0.089,0.035 -0.181,0.062 -0.275,0.081c-0.108,0.022 -0.219,0.033 -0.33,0.03c-0.147,-0.003 -0.294,-0.03 -0.434,-0.08c-0.186,-0.065 -0.357,-0.169 -0.508,-0.297c-0.231,-0.195 -0.413,-0.442 -0.564,-0.702c-0.113,-0.193 -0.209,-0.394 -0.296,-0.599c-0.097,-0.23 -0.181,-0.465 -0.258,-0.702c-0.133,-0.412 -0.244,-0.831 -0.342,-1.252c-0.109,-0.465 -0.202,-0.933 -0.287,-1.402c-0.215,-1.193 -0.375,-2.395 -0.519,-3.598c-0.171,-1.431 -0.31,-2.867 -0.443,-4.302c-0.067,-0.72 -0.13,-1.44 -0.194,-2.16c-0.095,-1.089 -0.189,-2.179 -0.286,-3.267l0,0c-0.011,-0.119 -0.022,-0.239 -0.032,-0.358c0,-0.001 0,0 0,0c-0.011,-0.119 -0.022,-0.238 -0.033,-0.357c0,-0.001 0,0.001 0,0c-0.011,-0.118 -0.021,-0.237 -0.032,-0.356c0,0 0,0.001 0,0.001c-0.011,-0.118 -0.022,-0.236 -0.033,-0.354l0,0.001c-0.011,-0.118 -0.022,-0.235 -0.033,-0.353c0,0 0,0.002 0,0.001c-0.044,-0.461 -0.089,-0.922 -0.136,-1.383c0,0 0,0.002 0,0.001c-0.017,-0.169 -0.017,-0.169 -0.034,-0.339c0,0 0,0.001 0,0.001c-0.006,-0.057 -0.012,-0.113 -0.018,-0.169c0,0 0,0.001 0,0.001c-0.006,-0.056 -0.012,-0.113 -0.018,-0.169c0,0 0,0.002 0,0.001c-0.006,-0.056 -0.012,-0.111 -0.017,-0.167c-0.001,0 0,0.001 0,0.001c-0.006,-0.056 -0.012,-0.111 -0.018,-0.167l0,0.001c-0.018,-0.165 -0.018,-0.165 -0.037,-0.33c0,0 0.001,0.002 0.001,0.001c-0.007,-0.054 -0.013,-0.109 -0.019,-0.164c0,0 0,0.002 0,0.001c-0.006,-0.054 -0.012,-0.108 -0.018,-0.163c0,0 0,0.002 0,0.001c-0.006,-0.054 -0.013,-0.108 -0.019,-0.162l0,0.001c-0.012,-0.106 -0.025,-0.213 -0.037,-0.32c0,0 0,0.002 0,0.001c-0.007,-0.053 -0.013,-0.106 -0.019,-0.159c0,0 0,0.002 0,0.001c-0.007,-0.052 -0.013,-0.105 -0.02,-0.158c0,0 0.001,0.002 0.001,0.001c-0.007,-0.052 -0.013,-0.104 -0.02,-0.157l0,0.001c-0.006,-0.052 -0.013,-0.104 -0.019,-0.156c0,0 0,0.002 0,0.002c-0.013,-0.103 -0.026,-0.205 -0.04,-0.308c0,0 0.001,0.002 0.001,0.002c-0.007,-0.051 -0.014,-0.102 -0.021,-0.153l0.001,0.001c-0.014,-0.1 -0.027,-0.2 -0.041,-0.3c0,-0.001 0,0.002 0,0.001c-0.006,-0.049 -0.013,-0.099 -0.02,-0.149c0,0 0,0.002 0,0.002c-0.007,-0.049 -0.014,-0.099 -0.021,-0.148l0,0.002c-0.02,-0.146 -0.02,-0.146 -0.042,-0.291c0,0 0.001,0.003 0.001,0.002c-0.007,-0.048 -0.015,-0.096 -0.022,-0.144c0,-0.001 0.001,0.002 0.001,0.002c-0.008,-0.048 -0.015,-0.096 -0.022,-0.143l0,0.002c-0.007,-0.047 -0.014,-0.095 -0.022,-0.142c0,-0.001 0.001,0.003 0.001,0.002c-0.008,-0.047 -0.015,-0.093 -0.022,-0.14c0,-0.001 0,0.003 0,0.002c-0.029,-0.18 -0.059,-0.36 -0.089,-0.54c0,-0.001 0,0.003 0,0.003c-0.015,-0.088 -0.03,-0.175 -0.046,-0.263c0,0 0.001,0.004 0.001,0.003c-0.008,-0.043 -0.016,-0.087 -0.024,-0.13l0.001,0.003c-0.024,-0.126 -0.024,-0.126 -0.047,-0.252c-0.008,-0.04 -0.016,-0.08 -0.024,-0.121c-0.008,-0.04 -0.032,-0.16 -0.024,-0.12c-0.024,-0.118 -0.048,-0.237 -0.074,-0.355l0.001,0.004c-0.016,-0.076 -0.033,-0.151 -0.05,-0.227c-0.017,-0.072 -0.033,-0.145 -0.051,-0.217c-0.025,-0.105 -0.051,-0.21 -0.077,-0.314l0,0.003c-0.004,-0.018 -0.009,-0.035 -0.014,-0.053c0,-0.001 0.001,0.003 0.001,0.002c-0.009,-0.033 -0.018,-0.067 -0.027,-0.101c0,-0.001 0.001,0.003 0.001,0.003c-0.005,-0.017 -0.01,-0.034 -0.014,-0.051c0,-0.001 0.001,0.003 0,0.002c-0.004,-0.017 -0.009,-0.034 -0.014,-0.051c0,0 0.001,0.004 0.001,0.003c-0.005,-0.017 -0.009,-0.033 -0.014,-0.05l0.001,0.003c-0.014,-0.049 -0.014,-0.049 -0.028,-0.097c0,-0.001 0.001,0.004 0.001,0.003c-0.005,-0.016 -0.01,-0.032 -0.014,-0.049c-0.001,-0.001 0.001,0.004 0.001,0.003c-0.005,-0.016 -0.01,-0.032 -0.015,-0.048c-0.009,-0.029 -0.018,-0.059 -0.027,-0.089c0,-0.001 0.001,0.004 0.001,0.003c-0.005,-0.015 -0.01,-0.031 -0.014,-0.046c-0.005,-0.015 -0.01,-0.029 -0.014,-0.044c-0.001,-0.001 0,0.002 0.001,0.003c-0.01,-0.029 -0.019,-0.058 -0.029,-0.088c0,-0.001 0.001,0.005 0.001,0.004c-0.035,-0.107 -0.073,-0.213 -0.112,-0.318c-0.001,-0.001 0.002,0.005 0.001,0.004c-0.014,-0.037 -0.029,-0.074 -0.044,-0.112l0.002,0.005c-0.019,-0.046 -0.038,-0.092 -0.057,-0.137c-0.018,-0.041 -0.036,-0.081 -0.055,-0.122c-0.069,-0.143 -0.144,-0.285 -0.24,-0.413c-0.026,-0.036 -0.055,-0.071 -0.086,-0.102c-0.024,-0.024 -0.05,-0.048 -0.079,-0.065c-0.003,-0.001 -0.003,-0.001 -0.005,-0.003c-0.002,-0.001 -0.002,0 -0.004,0c-0.004,0 -0.007,0 -0.011,0.001c-0.006,0 -0.013,0.001 -0.02,0.001c-0.035,0.004 -0.07,0.012 -0.103,0.025c-0.06,0.021 -0.115,0.056 -0.165,0.095c-0.077,0.06 -0.144,0.132 -0.205,0.208c-0.067,0.085 -0.126,0.175 -0.181,0.268c-0.086,0.144 -0.159,0.296 -0.226,0.449c-0.001,0.002 0.002,-0.005 0.002,-0.004c-0.07,0.162 -0.133,0.327 -0.191,0.493c0,0.001 0.002,-0.004 0.002,-0.003c-0.01,0.026 -0.019,0.053 -0.028,0.08c0,0.001 0.002,-0.004 0.001,-0.003c-0.004,0.014 -0.009,0.028 -0.014,0.042c0,0.001 0.002,-0.004 0.001,-0.003c-0.004,0.014 -0.009,0.028 -0.013,0.042c-0.001,0.001 0.001,-0.004 0.001,-0.003c-0.014,0.041 -0.027,0.082 -0.04,0.123c0,0.001 0.001,-0.003 0.001,-0.002c-0.004,0.014 -0.009,0.029 -0.013,0.043c-0.001,0.001 0.001,-0.003 0.001,-0.002c-0.005,0.014 -0.009,0.029 -0.014,0.044c0,0.001 0.001,-0.004 0.001,-0.003c-0.013,0.043 -0.013,0.043 -0.026,0.087l0.001,-0.003c-0.013,0.043 -0.025,0.087 -0.038,0.131c-0.024,0.088 -0.024,0.088 -0.048,0.176c-0.04,0.154 -0.079,0.309 -0.116,0.465c-0.047,0.201 -0.09,0.403 -0.131,0.605l0.001,-0.003c-0.022,0.106 -0.022,0.106 -0.042,0.213c-0.014,0.071 -0.028,0.142 -0.041,0.213c-0.001,0.007 -0.028,0.151 -0.02,0.109c-0.027,0.15 -0.053,0.3 -0.078,0.45l0,-0.002c-0.012,0.077 -0.025,0.155 -0.038,0.232c0,0.001 0.001,-0.003 0.001,-0.002c-0.013,0.079 -0.025,0.157 -0.037,0.236l0,-0.002c-0.006,0.04 -0.012,0.08 -0.018,0.12c-0.001,0.001 0,-0.002 0,-0.002c-0.006,0.041 -0.012,0.081 -0.018,0.121c0,0.001 0,-0.002 0,-0.002c-0.018,0.122 -0.018,0.122 -0.036,0.243l0.001,-0.001c-0.006,0.041 -0.012,0.082 -0.018,0.123c0,0.001 0,-0.002 0,-0.002c-0.006,0.042 -0.011,0.083 -0.017,0.125c0,0 0,-0.002 0,-0.002c-0.011,0.083 -0.023,0.166 -0.034,0.249l0,-0.001c-0.011,0.084 -0.022,0.168 -0.033,0.252c0,0.001 0,-0.001 0,-0.001c-0.006,0.043 -0.011,0.085 -0.017,0.128c0,0 0,-0.002 0,-0.001c-0.005,0.042 -0.021,0.169 -0.016,0.127c-0.011,0.086 -0.021,0.172 -0.032,0.258c0,0 0,-0.002 0,-0.001c-0.005,0.043 -0.011,0.087 -0.016,0.13c0,0 0,-0.001 0,-0.001c-0.016,0.131 -0.016,0.131 -0.031,0.262l0,-0.001c-0.024,0.198 -0.024,0.198 -0.047,0.397c0,0 0.001,-0.003 0.001,-0.002c-0.011,0.089 -0.021,0.179 -0.031,0.268l0,-0.001c-0.01,0.09 -0.02,0.18 -0.03,0.27c0,0 0,-0.002 0,-0.002c-0.03,0.273 -0.029,0.272 -0.059,0.545l0,-0.001c-0.009,0.091 -0.019,0.183 -0.029,0.275c0,0 0,-0.001 0,-0.001c-0.01,0.092 -0.019,0.184 -0.029,0.276c0,0.001 0,-0.001 0,0c-0.029,0.279 -0.057,0.556 -0.086,0.835l0,0c-0.077,0.753 -0.153,1.507 -0.232,2.26c-0.014,0.094 -0.02,0.188 -0.03,0.282c-0.02,0.191 -0.041,0.381 -0.062,0.572c-0.046,0.42 -0.094,0.841 -0.145,1.262c-0.103,0.863 -0.219,1.725 -0.355,2.584c-0.119,0.756 -0.258,1.511 -0.427,2.258c-0.156,0.687 -0.339,1.369 -0.574,2.033c-0.115,0.324 -0.242,0.644 -0.389,0.954c-0.115,0.244 -0.242,0.483 -0.386,0.712c-0.235,0.376 -0.514,0.728 -0.855,1.013c-0.242,0.203 -0.515,0.37 -0.812,0.482c-0.218,0.083 -0.448,0.135 -0.68,0.156c-0.195,0.018 -0.391,0.013 -0.584,-0.017c-0.134,-0.021 -0.266,-0.055 -0.393,-0.1c-0.102,-0.036 -0.201,-0.08 -0.297,-0.13c-0.071,-0.038 -0.141,-0.08 -0.209,-0.125c-0.456,-0.304 -0.797,-0.751 -1.065,-1.223c-0.048,-0.086 -0.095,-0.173 -0.14,-0.261c-0.06,-0.12 -0.117,-0.241 -0.172,-0.363c-0.162,-0.364 -0.3,-0.737 -0.428,-1.114c-0.159,-0.467 -0.301,-0.94 -0.445,-1.412l0,0c-0.041,-0.134 -0.082,-0.267 -0.123,-0.401c0,0 0.001,0.002 0.001,0.002c-0.031,-0.099 -0.031,-0.099 -0.062,-0.198l0.001,0.001c-0.031,-0.097 -0.031,-0.097 -0.062,-0.195c0,-0.001 0.001,0.002 0.001,0.002c-0.011,-0.032 -0.041,-0.128 -0.031,-0.096c-0.021,-0.064 -0.041,-0.127 -0.062,-0.19c-0.011,-0.032 -0.022,-0.064 -0.032,-0.095c0,-0.001 0.001,0.002 0.001,0.003c-0.052,-0.152 -0.105,-0.303 -0.16,-0.454l0.001,0.004c-0.016,-0.045 -0.016,-0.045 -0.033,-0.089c0,-0.001 0.001,0.003 0.001,0.003c-0.006,-0.015 -0.011,-0.031 -0.017,-0.046c0,0 0.001,0.004 0.001,0.003c-0.016,-0.042 -0.016,-0.042 -0.033,-0.085c-0.022,-0.054 -0.044,-0.109 -0.066,-0.163c-0.017,-0.041 -0.034,-0.081 -0.051,-0.121c-0.001,-0.001 0.002,0.004 0.001,0.003c-0.106,-0.244 -0.223,-0.485 -0.366,-0.71c-0.096,-0.149 -0.204,-0.294 -0.335,-0.414c-0.097,-0.089 -0.208,-0.165 -0.335,-0.204c-0.138,-0.043 -0.285,-0.036 -0.426,-0.007c-0.112,0.023 -0.221,0.059 -0.324,0.109c-0.089,0.042 -0.173,0.096 -0.25,0.157c-0.115,0.092 -0.216,0.2 -0.305,0.317c-0.134,0.174 -0.243,0.365 -0.343,0.559c-0.001,0.002 0.002,-0.004 0.002,-0.003c-0.02,0.039 -0.039,0.077 -0.058,0.116c-0.079,0.165 -0.151,0.333 -0.222,0.501l0.001,-0.002c-0.019,0.045 -0.038,0.09 -0.056,0.136c-0.001,0 0.001,-0.003 0,-0.002c-0.028,0.069 -0.028,0.069 -0.056,0.138l0.001,-0.002c-0.019,0.047 -0.038,0.094 -0.057,0.141c0,0.001 0.001,-0.001 0.001,-0.001c-0.059,0.145 -0.117,0.29 -0.175,0.435c-0.03,0.072 -0.059,0.144 -0.09,0.216c-0.074,0.176 -0.15,0.352 -0.231,0.524c-0.139,0.296 -0.292,0.585 -0.469,0.86c-0.184,0.286 -0.394,0.557 -0.634,0.798c-0.233,0.235 -0.495,0.441 -0.779,0.611c-0.232,0.139 -0.478,0.253 -0.733,0.342c-0.488,0.171 -1.002,0.251 -1.517,0.269c-0.173,0.006 -0.346,0.005 -0.519,-0.002c-0.06,-0.002 -0.12,-0.006 -0.18,-0.009c-0.017,-0.001 -0.034,-0.001 -0.051,-0.002c-0.02,-0.001 -0.077,-0.004 -0.058,-0.003c-0.07,-0.003 -0.14,-0.006 -0.21,-0.008c-0.119,-0.004 -0.237,-0.008 -0.356,-0.012c-0.001,0 0.002,0 0.001,0c-0.227,-0.006 -0.454,-0.013 -0.682,-0.018c0,0 0.001,0 0.001,0c-0.088,-0.002 -0.176,-0.005 -0.264,-0.007l0.001,0c-0.093,-0.002 -0.187,-0.004 -0.28,-0.006c0,0 0.001,0 0,0c-0.098,-0.003 -0.197,-0.005 -0.295,-0.007c-0.001,0 0,0 0,0c-0.104,-0.002 -0.207,-0.004 -0.311,-0.007c0,0 0.001,0 0.001,0c-0.711,-0.015 -1.423,-0.028 -2.135,-0.042l0.001,0c-0.541,-0.01 -1.082,-0.019 -1.623,-0.029c-0.285,-0.005 -0.569,-0.009 -0.853,-0.014c-1.18,-0.022 -2.36,-0.042 -3.541,-0.063l0,0c-1.149,-0.02 -2.297,-0.039 -3.446,-0.059c-0.521,-0.008 -1.042,-0.017 -1.563,-0.026c-0.24,-0.004 -0.48,-0.005 -0.719,-0.013c-0.428,-0.007 -0.856,-0.015 -1.284,-0.023c-0.184,-0.003 -0.368,-0.007 -0.551,-0.01c-0.297,-0.006 -0.594,-0.012 -0.891,-0.019c-0.234,-0.006 -0.467,-0.01 -0.7,-0.021c-0.032,-0.002 -0.031,-0.002 -0.063,-0.004c-0.04,-0.004 -0.08,-0.008 -0.119,-0.018c-0.014,-0.004 -0.027,-0.01 -0.041,-0.016l0,0l-0.063,-0.029l-0.058,-0.037c-0.053,-0.046 -0.053,-0.046 -0.098,-0.099l0,0c-0.014,-0.023 -0.03,-0.044 -0.042,-0.068c-0.049,-0.094 -0.066,-0.204 -0.047,-0.309c0.012,-0.07 0.024,-0.085 0.053,-0.149l0,0l0.295,-0.231l0.34,0.036c-0.012,-0.008 -0.022,-0.02 -0.035,-0.026c-0.038,-0.016 -0.079,-0.023 -0.119,-0.028c0.024,0.002 0.047,0.003 0.071,0.004c0.213,0.005 0.427,0.007 0.64,0.01c0.298,0.003 0.593,0.005 0.89,0.007l-0.001,0c0.611,0.003 1.222,0.006 1.834,0.008l-0.001,0c0.763,0.003 1.525,0.005 2.288,0.007c1.743,0.004 3.487,0.008 5.231,0.011c0.584,0.001 1.168,0.004 1.752,0.004c0.558,0.001 1.118,0.004 1.677,0.007c0.758,0.003 1.516,0.007 2.274,0.012c0.606,0.004 1.211,0.009 1.817,0.015c0.35,0.004 0.7,0.009 1.05,0.016c0.094,0.002 0.187,0.005 0.281,0.008c0.074,0.002 0.149,0.005 0.223,0.008c0.055,0.001 0.055,0.001 0.11,0.001c0.336,0.001 0.671,-0.022 1,-0.091c0.257,-0.055 0.509,-0.137 0.744,-0.255c0.261,-0.131 0.497,-0.303 0.702,-0.509c0.24,-0.242 0.433,-0.523 0.6,-0.818c0.001,-0.002 -0.003,0.004 -0.002,0.003c0.04,-0.072 0.079,-0.145 0.117,-0.218l-0.002,0.003c0.011,-0.022 0.022,-0.044 0.033,-0.066c0.001,-0.001 -0.002,0.004 -0.001,0.003c0.016,-0.033 0.016,-0.032 0.032,-0.065c0.015,-0.032 0.03,-0.065 0.046,-0.097c0.051,-0.111 0.101,-0.223 0.149,-0.336l-0.002,0.004c0.026,-0.063 0.032,-0.076 0.058,-0.138c0.009,-0.023 0.037,-0.091 0.028,-0.068c0.019,-0.047 0.038,-0.094 0.056,-0.141c0.009,-0.023 0.037,-0.091 0.027,-0.069c0.093,-0.236 0.184,-0.474 0.278,-0.71c0.035,-0.088 0.07,-0.175 0.106,-0.263c0.209,-0.5 0.447,-0.998 0.786,-1.426c0.126,-0.159 0.267,-0.308 0.421,-0.44c0.139,-0.119 0.29,-0.225 0.45,-0.313c0.249,-0.138 0.518,-0.233 0.797,-0.289c0.195,-0.04 0.395,-0.055 0.594,-0.043c0.142,0.008 0.283,0.031 0.42,0.069c0.102,0.028 0.203,0.064 0.3,0.108c0.066,0.03 0.131,0.063 0.194,0.1c0.082,0.048 0.161,0.101 0.236,0.158c0.375,0.285 0.66,0.671 0.889,1.078c0.048,0.084 0.093,0.17 0.137,0.257c0.052,0.102 0.101,0.206 0.147,0.31c0.069,0.152 0.132,0.306 0.193,0.462c0.075,0.193 0.146,0.388 0.213,0.583c0.091,0.264 0.176,0.53 0.259,0.797c0.075,0.24 0.149,0.482 0.222,0.723c0.02,0.062 0.039,0.124 0.058,0.186c0,0.001 -0.001,-0.002 -0.001,-0.001c0.021,0.066 0.083,0.265 0.062,0.199c0.021,0.066 0.041,0.132 0.062,0.198c0,0.001 -0.001,-0.002 0,-0.001c0.01,0.033 0.021,0.066 0.031,0.099c0,0.001 -0.001,-0.003 0,-0.002c0.01,0.033 0.021,0.066 0.031,0.099l0,-0.002c0.031,0.097 0.031,0.097 0.063,0.194c0.001,0.001 -0.001,-0.003 -0.001,-0.003c0.022,0.064 0.043,0.128 0.065,0.192l-0.001,-0.003c0.057,0.167 0.117,0.334 0.18,0.5c0,0.001 -0.002,-0.003 -0.001,-0.003c0.005,0.016 0.011,0.031 0.017,0.046c0.001,0.001 -0.001,-0.003 -0.001,-0.002c0.039,0.099 0.079,0.198 0.12,0.297c0,0.001 -0.002,-0.004 -0.002,-0.003c0.007,0.014 0.013,0.029 0.019,0.044c0.001,0.001 -0.002,-0.005 -0.001,-0.004c0.055,0.129 0.113,0.258 0.176,0.384c0.041,0.081 0.083,0.161 0.128,0.239c0.036,0.063 0.073,0.125 0.113,0.186c0.035,0.056 0.073,0.111 0.113,0.164c0.023,0.032 0.048,0.064 0.073,0.094c0.144,0.175 0.318,0.338 0.535,0.415c0.032,0.011 0.066,0.021 0.1,0.028c0.089,0.019 0.18,0.023 0.27,0.016c0.102,-0.008 0.202,-0.028 0.298,-0.061c0.136,-0.046 0.262,-0.117 0.376,-0.203c0.175,-0.131 0.324,-0.295 0.456,-0.469c0.206,-0.274 0.369,-0.577 0.514,-0.887l-0.002,0.004c0.012,-0.027 0.025,-0.053 0.037,-0.08c0,-0.001 -0.003,0.005 -0.002,0.004c0.012,-0.026 0.023,-0.053 0.035,-0.079c0.012,-0.027 0.023,-0.054 0.035,-0.081c0,-0.002 -0.002,0.004 -0.002,0.003c0.012,-0.028 0.024,-0.056 0.036,-0.084c0.011,-0.027 0.022,-0.055 0.033,-0.082c0,-0.001 -0.002,0.004 -0.001,0.003c0.017,-0.043 0.034,-0.086 0.05,-0.13l-0.001,0.003c0.028,-0.073 0.056,-0.147 0.082,-0.22l-0.001,0.002c0.006,-0.015 0.011,-0.031 0.017,-0.047c0,-0.001 -0.001,0.004 -0.001,0.003c0.016,-0.047 0.016,-0.047 0.033,-0.093c0,-0.001 -0.002,0.003 -0.001,0.002c0.005,-0.016 0.011,-0.032 0.016,-0.048c0.001,-0.001 0,0.002 -0.001,0.003c0.016,-0.048 0.032,-0.095 0.048,-0.142c0,-0.001 -0.001,0.003 -0.001,0.002c0.015,-0.047 0.015,-0.047 0.031,-0.095c0.02,-0.065 0.04,-0.13 0.06,-0.194c0,-0.001 -0.001,0.003 -0.001,0.002c0.011,-0.034 0.021,-0.067 0.031,-0.101l-0.001,0.002c0.015,-0.05 0.029,-0.1 0.044,-0.15c0.019,-0.068 0.038,-0.137 0.057,-0.205c0.077,-0.287 0.148,-0.576 0.214,-0.865c0,-0.001 -0.001,0.004 -0.001,0.003c0.009,-0.039 0.018,-0.077 0.026,-0.116l0,0.003c0.016,-0.076 0.033,-0.153 0.049,-0.229c0.017,-0.078 0.033,-0.157 0.049,-0.235c0,-0.001 -0.001,0.004 0,0.003c0.008,-0.04 0.016,-0.08 0.024,-0.121l-0.001,0.003c0.008,-0.04 0.016,-0.081 0.024,-0.121c0,-0.001 0,0.003 0,0.002c0.023,-0.121 0.023,-0.121 0.046,-0.242l0,0.003c0.015,-0.082 0.03,-0.164 0.045,-0.245c0.007,-0.041 0.028,-0.162 0.022,-0.122c0.014,-0.083 0.029,-0.167 0.043,-0.25c0,-0.001 0,0.003 0,0.002c0.021,-0.127 0.021,-0.127 0.042,-0.253l0,0.002c0.021,-0.128 0.041,-0.256 0.061,-0.384c0,-0.001 0,0.002 0,0.001c0.007,-0.043 0.014,-0.087 0.02,-0.13l0,0.001c0.013,-0.087 0.026,-0.174 0.039,-0.261c0,0 0,0.002 0,0.002c0.006,-0.044 0.025,-0.175 0.019,-0.131c0.026,-0.176 0.051,-0.353 0.075,-0.53l0,0.001c0.031,-0.224 0.06,-0.449 0.089,-0.674l0,0.002c0.006,-0.046 0.011,-0.092 0.017,-0.137c0,-0.001 0,0.001 0,0.001c0.017,-0.136 0.017,-0.136 0.034,-0.273c0.006,-0.046 0.022,-0.184 0.017,-0.138c0.016,-0.138 0.033,-0.276 0.049,-0.414c0,0 0,0.001 0,0.001c0.005,-0.047 0.011,-0.093 0.016,-0.14c0,0 0,0.002 0,0.002c0.032,-0.28 0.063,-0.559 0.094,-0.839l0,0.002c0.031,-0.282 0.061,-0.564 0.09,-0.845c0,0 0,0.001 0,0.001c0.01,-0.095 0.02,-0.189 0.03,-0.283l0,0c0.096,-0.935 0.19,-1.873 0.286,-2.809c0.03,-0.282 0.06,-0.563 0.09,-0.844c0.091,-0.835 0.186,-1.669 0.299,-2.5c0.078,-0.57 0.163,-1.139 0.264,-1.705c0.084,-0.478 0.179,-0.954 0.293,-1.427c0.1,-0.42 0.215,-0.837 0.356,-1.245c0.107,-0.309 0.228,-0.613 0.375,-0.905c0.127,-0.251 0.273,-0.494 0.448,-0.715c0.13,-0.162 0.275,-0.313 0.439,-0.44c0.218,-0.17 0.468,-0.298 0.737,-0.364c0.118,-0.029 0.238,-0.047 0.359,-0.052c0.163,-0.007 0.324,0.012 0.48,0.061c0.136,0.043 0.265,0.107 0.383,0.187c0.191,0.128 0.353,0.296 0.491,0.48c0.178,0.238 0.318,0.502 0.438,0.772c0.132,0.298 0.241,0.606 0.338,0.917c0.11,0.357 0.204,0.718 0.288,1.082c0.096,0.413 0.18,0.828 0.256,1.245c0.085,0.462 0.16,0.925 0.23,1.389c0.171,1.147 0.308,2.298 0.432,3.451c0.145,1.345 0.269,2.693 0.39,4.041c0.096,1.083 0.19,2.166 0.285,3.249c0.01,0.123 0.021,0.246 0.032,0.369c0,0 0,-0.001 0,-0.001c0.094,1.069 0.191,2.139 0.295,3.208l-0.001,-0.001c0.012,0.116 0.023,0.232 0.035,0.348c0,0.001 0,-0.001 0,-0.001c0.017,0.174 0.035,0.347 0.052,0.521ZM17.407,50.14l-0.005,-0.063l-0.114,-0.086c0.039,0.05 0.079,0.1 0.119,0.149Z" style="fill:url(#_Linear26);fill-rule:nonzero;"/><defs><linearGradient id="_Linear1" x1="0" y1="0" x2="1" y2="0" gradientUnits="userSpaceOnUse" gradientTransform="matrix(94.9332,-45.7913,45.7913,94.9332,14.3381,93.5856)"><stop offset="0%" style="stop-color:#d2ad09;stop-opacity:1"/><stop offset="100%" style="stop-color:#866e04;stop-opacity:1"/></linearGradient><linearGradient id="_Linear2" x1="0" y1="0" x2="1" y2="0" gradientUnits="userSpaceOnUse" gradientTransform="matrix(94.9332,-45.7913,45.7913,94.9332,14.3381,93.5856)"><stop offset="0%" style="stop-color:#d2ad09;stop-opacity:1"/><stop offset="100%" style="stop-color:#866e04;stop-opacity:1"/></linearGradient><linearGradient id="_Linear3" x1="0" y1="0" x2="1" y2="0" gradientUnits="userSpaceOnUse" gradientTransform="matrix(94.9332,-45.7913,45.7913,94.9332,14.3381,93.5856)"><stop offset="0%" style="stop-color:#d2ad09;stop-opacity:1"/><stop offset="100%" style="stop-color:#866e04;stop-opacity:1"/></linearGradient><linearGradient id="_Linear4" x1="0" y1="0" x2="1" y2="0" gradientUnits="userSpaceOnUse" gradientTransform="matrix(94.9332,-45.7913,45.7913,94.9332,14.3381,93.5856)"><stop offset="0%" style="stop-color:#d2ad09;stop-opacity:1"/><stop offset="100%" style="stop-color:#866e04;stop-opacity:1"/></linearGradient><linearGradient id="_Linear5" x1="0" y1="0" x2="1" y2="0" gradientUnits="userSpaceOnUse" gradientTransform="matrix(94.9332,-45.7913,45.7913,94.9332,14.3381,93.5856)"><stop offset="0%" style="stop-color:#d2ad09;stop-opacity:1"/><stop offset="100%" style="stop-color:#866e04;stop-opacity:1"/></linearGradient><linearGradient id="_Linear6" x1="0" y1="0" x2="1" y2="0" gradientUnits="userSpaceOnUse" gradientTransform="matrix(94.9332,-45.7913,45.7913,94.9332,14.3381,93.5856)"><stop offset="0%" style="stop-color:#d2ad09;stop-opacity:1"/><stop offset="100%" style="stop-color:#866e04;stop-opacity:1"/></linearGradient><linearGradient id="_Linear7" x1="0" y1="0" x2="1" y2="0" gradientUnits="userSpaceOnUse" gradientTransform="matrix(94.9332,-45.7913,45.7913,94.9332,14.3381,93.5856)"><stop offset="0%" style="stop-color:#d2ad09;stop-opacity:1"/><stop offset="100%" style="stop-color:#866e04;stop-opacity:1"/></linearGradient><linearGradient id="_Linear8" x1="0" y1="0" x2="1" y2="0" gradientUnits="userSpaceOnUse" gradientTransform="matrix(94.9332,-45.7913,45.7913,94.9332,14.3381,93.5856)"><stop offset="0%" style="stop-color:#d2ad09;stop-opacity:1"/><stop offset="100%" style="stop-color:#866e04;stop-opacity:1"/></linearGradient><linearGradient id="_Linear9" x1="0" y1="0" x2="1" y2="0" gradientUnits="userSpaceOnUse" gradientTransform="matrix(94.9332,-45.7913,45.7913,94.9332,14.3381,93.5856)"><stop offset="0%" style="stop-color:#d2ad09;stop-opacity:1"/><stop offset="100%" style="stop-color:#866e04;stop-opacity:1"/></linearGradient><linearGradient id="_Linear10" x1="0" y1="0" x2="1" y2="0" gradientUnits="userSpaceOnUse" gradientTransform="matrix(94.9332,-45.7913,45.7913,94.9332,14.3381,93.5856)"><stop offset="0%" style="stop-color:#d2ad09;stop-opacity:1"/><stop offset="100%" style="stop-color:#866e04;stop-opacity:1"/></linearGradient><linearGradient id="_Linear11" x1="0" y1="0" x2="1" y2="0" gradientUnits="userSpaceOnUse" gradientTransform="matrix(94.9332,-45.7913,45.7913,94.9332,14.3381,93.5856)"><stop offset="0%" style="stop-color:#d2ad09;stop-opacity:1"/><stop offset="100%" style="stop-color:#866e04;stop-opacity:1"/></linearGradient><linearGradient id="_Linear12" x1="0" y1="0" x2="1" y2="0" gradientUnits="userSpaceOnUse" gradientTransform="matrix(94.9332,-45.7913,45.7913,94.9332,14.3381,93.5856)"><stop offset="0%" style="stop-color:#d2ad09;stop-opacity:1"/><stop offset="100%" style="stop-color:#866e04;stop-opacity:1"/></linearGradient><linearGradient id="_Linear13" x1="0" y1="0" x2="1" y2="0" gradientUnits="userSpaceOnUse" gradientTransform="matrix(94.9332,-45.7913,45.7913,94.9332,14.3381,93.5856)"><stop offset="0%" style="stop-color:#d2ad09;stop-opacity:1"/><stop offset="100%" style="stop-color:#866e04;stop-opacity:1"/></linearGradient><linearGradient id="_Linear14" x1="0" y1="0" x2="1" y2="0" gradientUnits="userSpaceOnUse" gradientTransform="matrix(94.9332,-45.7913,45.7913,94.9332,14.3381,93.5856)"><stop offset="0%" style="stop-color:#d2ad09;stop-opacity:1"/><stop offset="100%" style="stop-color:#866e04;stop-opacity:1"/></linearGradient><linearGradient id="_Linear15" x1="0" y1="0" x2="1" y2="0" gradientUnits="userSpaceOnUse" gradientTransform="matrix(94.9332,-45.7913,45.7913,94.9332,14.3381,93.5856)"><stop offset="0%" style="stop-color:#d2ad09;stop-opacity:1"/><stop offset="100%" style="stop-color:#866e04;stop-opacity:1"/></linearGradient><linearGradient id="_Linear16" x1="0" y1="0" x2="1" y2="0" gradientUnits="userSpaceOnUse" gradientTransform="matrix(94.9332,-45.7913,45.7913,94.9332,14.3381,93.5856)"><stop offset="0%" style="stop-color:#d2ad09;stop-opacity:1"/><stop offset="100%" style="stop-color:#866e04;stop-opacity:1"/></linearGradient><linearGradient id="_Linear17" x1="0" y1="0" x2="1" y2="0" gradientUnits="userSpaceOnUse" gradientTransform="matrix(94.9332,-45.7913,45.7913,94.9332,14.3381,93.5856)"><stop offset="0%" style="stop-color:#d2ad09;stop-opacity:1"/><stop offset="100%" style="stop-color:#866e04;stop-opacity:1"/></linearGradient><linearGradient id="_Linear18" x1="0" y1="0" x2="1" y2="0" gradientUnits="userSpaceOnUse" gradientTransform="matrix(94.9332,-45.7913,45.7913,94.9332,14.3381,93.5856)"><stop offset="0%" style="stop-color:#d2ad09;stop-opacity:1"/><stop offset="100%" style="stop-color:#866e04;stop-opacity:1"/></linearGradient><linearGradient id="_Linear19" x1="0" y1="0" x2="1" y2="0" gradientUnits="userSpaceOnUse" gradientTransform="matrix(94.9332,-45.7913,45.7913,94.9332,14.3381,93.5856)"><stop offset="0%" style="stop-color:#d2ad09;stop-opacity:1"/><stop offset="100%" style="stop-color:#866e04;stop-opacity:1"/></linearGradient><linearGradient id="_Linear20" x1="0" y1="0" x2="1" y2="0" gradientUnits="userSpaceOnUse" gradientTransform="matrix(94.9332,-45.7913,45.7913,94.9332,14.3381,93.5856)"><stop offset="0%" style="stop-color:#d2ad09;stop-opacity:1"/><stop offset="100%" style="stop-color:#866e04;stop-opacity:1"/></linearGradient><linearGradient id="_Linear21" x1="0" y1="0" x2="1" y2="0" gradientUnits="userSpaceOnUse" gradientTransform="matrix(94.9332,-45.7913,45.7913,94.9332,14.3381,93.5856)"><stop offset="0%" style="stop-color:#d2ad09;stop-opacity:1"/><stop offset="100%" style="stop-color:#866e04;stop-opacity:1"/></linearGradient><linearGradient id="_Linear22" x1="0" y1="0" x2="1" y2="0" gradientUnits="userSpaceOnUse" gradientTransform="matrix(94.9332,-45.7913,45.7913,94.9332,14.3381,93.5856)"><stop offset="0%" style="stop-color:#d2ad09;stop-opacity:1"/><stop offset="100%" style="stop-color:#866e04;stop-opacity:1"/></linearGradient><linearGradient id="_Linear23" x1="0" y1="0" x2="1" y2="0" gradientUnits="userSpaceOnUse" gradientTransform="matrix(94.9332,-45.7913,45.7913,94.9332,14.3381,93.5856)"><stop offset="0%" style="stop-color:#d2ad09;stop-opacity:1"/><stop offset="100%" style="stop-color:#866e04;stop-opacity:1"/></linearGradient><linearGradient id="_Linear24" x1="0" y1="0" x2="1" y2="0" gradientUnits="userSpaceOnUse" gradientTransform="matrix(94.9332,-45.7913,45.7913,94.9332,14.3381,93.5856)"><stop offset="0%" style="stop-color:#d2ad09;stop-opacity:1"/><stop offset="100%" style="stop-color:#866e04;stop-opacity:1"/></linearGradient><linearGradient id="_Linear25" x1="0" y1="0" x2="1" y2="0" gradientUnits="userSpaceOnUse" gradientTransform="matrix(94.9332,-45.7913,45.7913,94.9332,14.3381,93.5856)"><stop offset="0%" style="stop-color:#d2ad09;stop-opacity:1"/><stop offset="100%" style="stop-color:#866e04;stop-opacity:1"/></linearGradient><linearGradient id="_Linear26" x1="0" y1="0" x2="1" y2="0" gradientUnits="userSpaceOnUse" gradientTransform="matrix(85.5517,-37.3509,37.3509,85.5517,23.7196,85.1452)"><stop offset="0%" style="stop-color:#d0bc64;stop-opacity:1"/><stop offset="30%" style="stop-color:#97894a;stop-opacity:1"/><stop offset="49%" style="stop-color:#ad993f;stop-opacity:1"/><stop offset="67%" style="stop-color:#bca952;stop-opacity:1"/><stop offset="100%" style="stop-color:#866e04;stop-opacity:1"/></linearGradient></defs></svg>