<?xml version="1.0" encoding="UTF-8" standalone="no"?>
<!DOCTYPE svg PUBLIC "-//W3C//DTD SVG 1.1//EN" "http://www.w3.org/Graphics/SVG/1.1/DTD/svg11.dtd">
<svg width="100%" height="100%" viewBox="0 0 388 248" version="1.1" xmlns="http://www.w3.org/2000/svg" xmlns:xlink="http://www.w3.org/1999/xlink" xml:space="preserve" style="fill-rule:evenodd;clip-rule:evenodd;stroke-linejoin:round;stroke-miterlimit:1.41421;">
    <g transform="matrix(1,0,0,1,-447.795,-270.407)">
        <g transform="matrix(0.940479,0,0,0.940479,92.2749,23.3653)">
            <path d="M640.136,262.721L710.903,358.896L696.408,358.896L638.707,281.439L587.114,344.759L604.558,368.138L639.163,325.633L641.172,325.672L713.178,421.408L710.903,425.957L632.244,425.855L604.135,388.183L572.643,426.864L510.559,426.872L508.256,422.026L571.484,344.426L553.428,320.228L468.961,423.584L451.602,423.584L552.931,301.528L554.894,301.578L579.513,334.572L638.093,262.677C638.774,262.692 639.455,262.707 640.136,262.721ZM530.255,414.542L566.782,414.537L596.533,377.995L579.086,354.613C562.809,374.589 546.532,394.566 530.255,414.542ZM612.16,378.326L638.433,413.536L691.883,413.604L639.808,344.367C630.592,355.686 621.376,367.006 612.16,378.326Z" style="fill:black;fill-rule:nonzero;"/>
        </g>
        <g transform="matrix(4.42044,0,0,4.42044,-1056.46,-1366.28)">
            <text x="340.152px" y="426.079px" style="font-family:'UniversLTStd-Bold', 'Univers LT Std', sans-serif;font-weight:700;font-size:10.18px;fill:black;">T<tspan x="349.019px 359.993px 370.967px 380.811px 393.475px 403.878px 412.593px 421.866px " y="426.079px 426.079px 426.079px 426.079px 426.079px 426.079px 426.079px 426.079px ">OURMALET</tspan></text>
        </g>
    </g>
</svg>
