<?xml version="1.0" encoding="UTF-8" standalone="no"?>
<!DOCTYPE svg PUBLIC "-//W3C//DTD SVG 1.1//EN" "http://www.w3.org/Graphics/SVG/1.1/DTD/svg11.dtd">
<svg width="100%" height="100%" viewBox="0 0 295 439" version="1.1" xmlns="http://www.w3.org/2000/svg" xmlns:xlink="http://www.w3.org/1999/xlink" xml:space="preserve" xmlns:serif="http://www.serif.com/" style="fill-rule:evenodd;clip-rule:evenodd;stroke-linejoin:round;stroke-miterlimit:1.41421;">
    <g transform="matrix(1,0,0,1,-1932.15,-195.711)">
        <g transform="matrix(1,0,0,1,87.7891,0)">
            <g transform="matrix(4.7018,0,0,4.7018,-7123.74,-606.627)">
                <g>
                    <g>
                        <g transform="matrix(9.86531,0,0,9.86531,-3565.13,-3376.52)">
                            <path d="M560.698,359.619C560.946,359.715 561.07,359.871 561.07,360.087C561.07,360.167 561.046,360.263 560.998,360.375L557.326,368.631C557.23,368.879 557.074,369.003 556.858,369.003C556.778,369.003 556.682,368.979 556.57,368.931C556.33,368.827 556.21,368.671 556.21,368.463C556.21,368.367 556.234,368.271 556.282,368.175L557.482,365.475L554.782,360.351C554.742,360.279 554.722,360.195 554.722,360.099C554.722,359.995 554.754,359.899 554.818,359.811C554.882,359.723 554.966,359.655 555.07,359.607C555.142,359.575 555.222,359.559 555.31,359.559C555.534,359.559 555.702,359.671 555.814,359.895L558.01,364.263L559.942,359.907C560.046,359.675 560.202,359.559 560.41,359.559C560.514,359.559 560.61,359.579 560.698,359.619Z" style="fill:rgb(0,130,255);fill-rule:nonzero;"/>
                        </g>
                        <g transform="matrix(9.86531,0,0,9.86531,-3565.13,-3376.52)">
                            <path d="M560.698,359.619C560.946,359.715 561.07,359.871 561.07,360.087C561.07,360.167 561.046,360.263 560.998,360.375L557.326,368.631C557.23,368.879 557.074,369.003 556.858,369.003C556.778,369.003 556.682,368.979 556.57,368.931C556.33,368.827 556.21,368.671 556.21,368.463C556.21,368.367 556.234,368.271 556.282,368.175L557.482,365.475L558.01,364.263L559.942,359.907C560.046,359.675 560.202,359.559 560.41,359.559C560.514,359.559 560.61,359.579 560.698,359.619Z" style="fill:url(#_Linear1);fill-rule:nonzero;"/>
                        </g>
                        <g transform="matrix(9.86531,0,0,9.86531,-3565.13,-3376.52)">
                            <path d="M558.01,364.263C558.753,365.806 558.696,365.517 558.351,366.326L557.326,368.631C557.23,368.879 557.074,369.003 556.858,369.003C556.778,369.003 556.682,368.979 556.57,368.931C556.33,368.827 556.21,368.671 556.21,368.463C556.21,368.367 556.234,368.271 556.282,368.175L557.482,365.475L558.01,364.263Z" style="fill:rgb(3,89,253);fill-rule:nonzero;"/>
                        </g>
                        <g transform="matrix(9.86531,0,0,9.86531,-3565.13,-3376.52)">
                            <path d="M557.482,365.475C558.032,366.621 558.226,366.621 557.907,367.325C557.876,367.391 557.411,368.59 557.188,368.862C557.091,368.981 556.923,369.003 556.858,369.003C556.778,369.003 556.682,368.979 556.57,368.931C556.33,368.827 556.21,368.671 556.21,368.463C556.21,368.367 556.234,368.271 556.282,368.175L557.482,365.475L557.482,365.475Z" style="fill:rgb(0,130,255);fill-rule:nonzero;"/>
                        </g>
                        <g transform="matrix(9.86531,0,0,9.86531,-3565.13,-3376.52)">
                            <path d="M557.482,365.475C558.032,366.621 558.226,366.621 557.907,367.325C557.876,367.391 557.411,368.59 557.188,368.862C557.091,368.981 556.923,369.003 556.858,369.003C556.778,369.003 556.682,368.979 556.57,368.931C556.33,368.827 556.21,368.671 556.21,368.463C556.21,368.367 556.234,368.271 556.282,368.175L557.482,365.475L557.482,365.475Z" style="fill:url(#_Linear2);fill-rule:nonzero;"/>
                        </g>
                    </g>
                </g>
            </g>
        </g>
    </g>
    <defs>
        <linearGradient id="_Linear1" x1="0" y1="0" x2="1" y2="0" gradientUnits="userSpaceOnUse" gradientTransform="matrix(4.98884,-3.22632,3.22632,4.98884,557.896,365.381)"><stop offset="0" style="stop-color:rgb(3,89,253);stop-opacity:1"/><stop offset="0.58" style="stop-color:rgb(156,64,152);stop-opacity:1"/><stop offset="1" style="stop-color:rgb(226,52,105);stop-opacity:1"/></linearGradient>
        <linearGradient id="_Linear2" x1="0" y1="0" x2="1" y2="0" gradientUnits="userSpaceOnUse" gradientTransform="matrix(1.26655,-0.791842,0.791842,1.26655,556.474,367.164)"><stop offset="0" style="stop-color:rgb(0,130,255);stop-opacity:1"/><stop offset="0.65" style="stop-color:rgb(0,122,240);stop-opacity:0.972549"/><stop offset="0.84" style="stop-color:rgb(0,102,200);stop-opacity:0.898039"/><stop offset="1" style="stop-color:rgb(0,78,153);stop-opacity:0.811765"/></linearGradient>
    </defs>
</svg>
