<?xml version="1.0" encoding="UTF-8" standalone="no"?>
<!DOCTYPE svg PUBLIC "-//W3C//DTD SVG 1.1//EN" "http://www.w3.org/Graphics/SVG/1.1/DTD/svg11.dtd">
<svg width="100%" height="100%" viewBox="0 0 406 104" version="1.1" xmlns="http://www.w3.org/2000/svg" xmlns:xlink="http://www.w3.org/1999/xlink" xml:space="preserve" xmlns:serif="http://www.serif.com/" style="fill-rule:evenodd;clip-rule:evenodd;stroke-linejoin:round;stroke-miterlimit:1.41421;">
    <g transform="matrix(1,0,0,1,-3323.19,-366.684)">
        <g transform="matrix(1,0,0,1,1556,0)">
            <g transform="matrix(1.95692,0,0,1.95692,894.006,-478.19)">
                <text x="500.009px" y="481.652px" style="font-family:'Avenir-Book', 'Avenir';font-size:12px;fill:rgb(213,213,213);">Digital Business</text>
            </g>
        </g>
        <g transform="matrix(1,0,0,1,1556,0)">
            <g transform="matrix(0.804522,0,0,0.804522,385.092,98.4327)">
                <g transform="matrix(9.86531,0,0,9.86531,-3759.81,-3213.14)">
                    <path d="M558.07,366.171C557.526,366.171 557.014,366.087 556.534,365.919C556.054,365.751 555.678,365.531 555.406,365.259C555.302,365.155 555.25,365.031 555.25,364.887C555.25,364.695 555.33,364.539 555.49,364.419C555.642,364.307 555.782,364.251 555.91,364.251C556.07,364.251 556.222,364.323 556.366,364.467C556.518,364.635 556.746,364.781 557.05,364.905C557.354,365.029 557.678,365.091 558.022,365.091C558.478,365.091 558.832,365.015 559.084,364.863C559.336,364.711 559.462,364.507 559.462,364.251C559.462,364.003 559.338,363.797 559.09,363.633C558.842,363.469 558.422,363.331 557.83,363.219C556.294,362.923 555.526,362.291 555.526,361.323C555.526,360.931 555.642,360.599 555.874,360.327C556.106,360.055 556.41,359.851 556.786,359.715C557.162,359.579 557.562,359.511 557.986,359.511C558.506,359.511 558.972,359.595 559.384,359.763C559.796,359.931 560.122,360.163 560.362,360.459C560.466,360.587 560.518,360.715 560.518,360.843C560.518,360.979 560.45,361.103 560.314,361.215C560.226,361.279 560.114,361.311 559.978,361.311C559.77,361.311 559.582,361.235 559.414,361.083C559.214,360.899 559.002,360.769 558.778,360.693C558.554,360.617 558.282,360.579 557.962,360.579C557.594,360.579 557.292,360.641 557.056,360.765C556.82,360.889 556.702,361.063 556.702,361.287C556.702,361.447 556.742,361.581 556.822,361.689C556.902,361.797 557.054,361.897 557.278,361.989C557.502,362.081 557.826,362.171 558.25,362.259C559.122,362.435 559.74,362.679 560.104,362.991C560.468,363.303 560.65,363.707 560.65,364.203C560.65,364.571 560.55,364.905 560.35,365.205C560.15,365.505 559.856,365.741 559.468,365.913C559.08,366.085 558.614,366.171 558.07,366.171Z" style="fill:white;fill-rule:nonzero;"/>
                    <path d="M572.494,359.499C573.046,359.499 573.542,359.619 573.982,359.859C574.422,360.099 574.766,360.449 575.014,360.909C575.262,361.369 575.386,361.923 575.386,362.571L575.386,365.523C575.386,365.699 575.328,365.845 575.212,365.961C575.096,366.077 574.95,366.135 574.774,366.135C574.598,366.135 574.452,366.077 574.336,365.961C574.22,365.845 574.162,365.699 574.162,365.523L574.162,362.571C574.162,361.923 573.988,361.433 573.64,361.101C573.292,360.769 572.83,360.603 572.254,360.603C571.918,360.603 571.612,360.671 571.336,360.807C571.06,360.943 570.844,361.127 570.688,361.359C570.532,361.591 570.454,361.851 570.454,362.139L570.454,365.523C570.454,365.699 570.398,365.845 570.286,365.961C570.174,366.077 570.026,366.135 569.842,366.135C569.666,366.135 569.52,366.077 569.404,365.961C569.288,365.845 569.23,365.699 569.23,365.523L569.23,360.171C569.23,359.987 569.288,359.839 569.404,359.727C569.52,359.615 569.666,359.559 569.842,359.559C570.026,359.559 570.174,359.615 570.286,359.727C570.398,359.839 570.454,359.987 570.454,360.171L570.454,360.303C570.71,360.047 571.014,359.849 571.366,359.709C571.718,359.569 572.094,359.499 572.494,359.499Z" style="fill:white;fill-rule:nonzero;"/>
                    <path d="M580.39,359.511C581.006,359.511 581.564,359.657 582.064,359.949C582.564,360.241 582.96,360.641 583.252,361.149C583.544,361.657 583.69,362.223 583.69,362.847L583.69,365.523C583.69,365.699 583.632,365.845 583.516,365.961C583.4,366.077 583.254,366.135 583.078,366.135C582.902,366.135 582.756,366.077 582.64,365.961C582.524,365.845 582.466,365.699 582.466,365.523L582.466,365.079C582.186,365.423 581.846,365.691 581.446,365.883C581.046,366.075 580.614,366.171 580.15,366.171C579.574,366.171 579.052,366.027 578.584,365.739C578.116,365.451 577.748,365.053 577.48,364.545C577.212,364.037 577.078,363.471 577.078,362.847C577.078,362.223 577.222,361.657 577.51,361.149C577.798,360.641 578.196,360.241 578.704,359.949C579.212,359.657 579.774,359.511 580.39,359.511ZM580.39,365.091C580.79,365.091 581.152,364.993 581.476,364.797C581.8,364.601 582.054,364.333 582.238,363.993C582.422,363.653 582.514,363.271 582.514,362.847C582.514,362.423 582.422,362.039 582.238,361.695C582.054,361.351 581.8,361.081 581.476,360.885C581.152,360.689 580.79,360.591 580.39,360.591C579.99,360.591 579.628,360.689 579.304,360.885C578.98,361.081 578.724,361.351 578.536,361.695C578.348,362.039 578.254,362.423 578.254,362.847C578.254,363.271 578.348,363.653 578.536,363.993C578.724,364.333 578.98,364.601 579.304,364.797C579.628,364.993 579.99,365.091 580.39,365.091Z" style="fill:white;fill-rule:nonzero;"/>
                    <path d="M588.814,359.511C589.43,359.511 589.992,359.657 590.5,359.949C591.008,360.241 591.406,360.641 591.694,361.149C591.982,361.657 592.126,362.223 592.126,362.847C592.126,363.471 591.992,364.037 591.724,364.545C591.456,365.053 591.088,365.451 590.62,365.739C590.152,366.027 589.63,366.171 589.054,366.171C588.59,366.171 588.158,366.075 587.758,365.883C587.358,365.691 587.018,365.423 586.738,365.079L586.738,368.319C586.738,368.503 586.682,368.651 586.57,368.763C586.458,368.875 586.31,368.931 586.126,368.931C585.95,368.931 585.804,368.875 585.688,368.763C585.572,368.651 585.514,368.503 585.514,368.319L585.514,362.847C585.514,362.223 585.66,361.657 585.952,361.149C586.244,360.641 586.64,360.241 587.14,359.949C587.64,359.657 588.198,359.511 588.814,359.511ZM588.814,365.091C589.214,365.091 589.576,364.993 589.9,364.797C590.224,364.601 590.48,364.333 590.668,363.993C590.856,363.653 590.95,363.271 590.95,362.847C590.95,362.423 590.856,362.039 590.668,361.695C590.48,361.351 590.224,361.081 589.9,360.885C589.576,360.689 589.214,360.591 588.814,360.591C588.414,360.591 588.052,360.689 587.728,360.885C587.404,361.081 587.15,361.351 586.966,361.695C586.782,362.039 586.69,362.423 586.69,362.847C586.69,363.271 586.782,363.653 586.966,363.993C587.15,364.333 587.404,364.601 587.728,364.797C588.052,364.993 588.414,365.091 588.814,365.091Z" style="fill:white;fill-rule:nonzero;"/>
                    <path d="M596.338,366.171C595.794,366.171 595.282,366.087 594.802,365.919C594.322,365.751 593.946,365.531 593.674,365.259C593.57,365.155 593.518,365.031 593.518,364.887C593.518,364.695 593.598,364.539 593.758,364.419C593.91,364.307 594.05,364.251 594.178,364.251C594.338,364.251 594.49,364.323 594.634,364.467C594.786,364.635 595.014,364.781 595.318,364.905C595.622,365.029 595.946,365.091 596.29,365.091C596.746,365.091 597.1,365.015 597.352,364.863C597.604,364.711 597.73,364.507 597.73,364.251C597.73,364.003 597.606,363.797 597.358,363.633C597.11,363.469 596.69,363.331 596.098,363.219C594.562,362.923 593.794,362.291 593.794,361.323C593.794,360.931 593.91,360.599 594.142,360.327C594.374,360.055 594.678,359.851 595.054,359.715C595.43,359.579 595.83,359.511 596.254,359.511C596.774,359.511 597.24,359.595 597.652,359.763C598.064,359.931 598.39,360.163 598.63,360.459C598.734,360.587 598.786,360.715 598.786,360.843C598.786,360.979 598.718,361.103 598.582,361.215C598.494,361.279 598.382,361.311 598.246,361.311C598.038,361.311 597.85,361.235 597.682,361.083C597.482,360.899 597.27,360.769 597.046,360.693C596.822,360.617 596.55,360.579 596.23,360.579C595.862,360.579 595.56,360.641 595.324,360.765C595.088,360.889 594.97,361.063 594.97,361.287C594.97,361.447 595.01,361.581 595.09,361.689C595.17,361.797 595.322,361.897 595.546,361.989C595.77,362.081 596.094,362.171 596.518,362.259C597.39,362.435 598.008,362.679 598.372,362.991C598.736,363.303 598.918,363.707 598.918,364.203C598.918,364.571 598.818,364.905 598.618,365.205C598.418,365.505 598.124,365.741 597.736,365.913C597.348,366.085 596.882,366.171 596.338,366.171Z" style="fill:white;fill-rule:nonzero;"/>
                    <path d="M606.358,362.739C606.358,362.891 606.306,363.017 606.202,363.117C606.098,363.217 605.966,363.267 605.806,363.267L601.246,363.267C601.334,363.827 601.588,364.279 602.008,364.623C602.428,364.967 602.942,365.139 603.55,365.139C603.79,365.139 604.04,365.095 604.3,365.007C604.56,364.919 604.774,364.811 604.942,364.683C605.054,364.595 605.186,364.551 605.338,364.551C605.49,364.551 605.61,364.591 605.698,364.671C605.842,364.791 605.914,364.927 605.914,365.079C605.914,365.223 605.85,365.343 605.722,365.439C605.45,365.655 605.112,365.831 604.708,365.967C604.304,366.103 603.918,366.171 603.55,366.171C602.894,366.171 602.306,366.029 601.786,365.745C601.266,365.461 600.86,365.067 600.568,364.563C600.276,364.059 600.13,363.487 600.13,362.847C600.13,362.207 600.268,361.633 600.544,361.125C600.82,360.617 601.204,360.221 601.696,359.937C602.188,359.653 602.746,359.511 603.37,359.511C603.986,359.511 604.518,359.647 604.966,359.919C605.414,360.191 605.758,360.571 605.998,361.059C606.238,361.547 606.358,362.107 606.358,362.739ZM603.37,360.543C602.786,360.543 602.312,360.703 601.948,361.023C601.584,361.343 601.354,361.771 601.258,362.307L605.254,362.307C605.182,361.771 604.982,361.343 604.654,361.023C604.326,360.703 603.898,360.543 603.37,360.543Z" style="fill:white;fill-rule:nonzero;"/>
                </g>
                <g transform="matrix(0.995748,0,0,0.995748,-115.876,163.821)">
                    <g>
                        <g>
                            <g transform="matrix(9.86531,0,0,9.86531,-3565.13,-3376.52)">
                                <path d="M560.698,359.619C560.946,359.715 561.07,359.871 561.07,360.087C561.07,360.167 561.046,360.263 560.998,360.375L557.326,368.631C557.23,368.879 557.074,369.003 556.858,369.003C556.778,369.003 556.682,368.979 556.57,368.931C556.33,368.827 556.21,368.671 556.21,368.463C556.21,368.367 556.234,368.271 556.282,368.175L557.482,365.475L554.782,360.351C554.742,360.279 554.722,360.195 554.722,360.099C554.722,359.995 554.754,359.899 554.818,359.811C554.882,359.723 554.966,359.655 555.07,359.607C555.142,359.575 555.222,359.559 555.31,359.559C555.534,359.559 555.702,359.671 555.814,359.895L558.01,364.263L559.942,359.907C560.046,359.675 560.202,359.559 560.41,359.559C560.514,359.559 560.61,359.579 560.698,359.619Z" style="fill:rgb(0,130,255);fill-rule:nonzero;"/>
                            </g>
                            <g transform="matrix(9.86531,0,0,9.86531,-3565.13,-3376.52)">
                                <path d="M560.698,359.619C560.946,359.715 561.07,359.871 561.07,360.087C561.07,360.167 561.046,360.263 560.998,360.375L557.326,368.631C557.23,368.879 557.074,369.003 556.858,369.003C556.778,369.003 556.682,368.979 556.57,368.931C556.33,368.827 556.21,368.671 556.21,368.463C556.21,368.367 556.234,368.271 556.282,368.175L557.482,365.475L558.01,364.263L559.942,359.907C560.046,359.675 560.202,359.559 560.41,359.559C560.514,359.559 560.61,359.579 560.698,359.619Z" style="fill:url(#_Linear1);fill-rule:nonzero;"/>
                            </g>
                            <g transform="matrix(9.86531,0,0,9.86531,-3565.13,-3376.52)">
                                <path d="M558.01,364.263C558.753,365.806 558.696,365.517 558.351,366.326L557.326,368.631C557.23,368.879 557.074,369.003 556.858,369.003C556.778,369.003 556.682,368.979 556.57,368.931C556.33,368.827 556.21,368.671 556.21,368.463C556.21,368.367 556.234,368.271 556.282,368.175L557.482,365.475L558.01,364.263Z" style="fill:rgb(3,89,253);fill-rule:nonzero;"/>
                            </g>
                            <g transform="matrix(9.86531,0,0,9.86531,-3565.13,-3376.52)">
                                <path d="M557.482,365.475C558.032,366.621 558.226,366.621 557.907,367.325C557.876,367.391 557.411,368.59 557.188,368.862C557.091,368.981 556.923,369.003 556.858,369.003C556.778,369.003 556.682,368.979 556.57,368.931C556.33,368.827 556.21,368.671 556.21,368.463C556.21,368.367 556.234,368.271 556.282,368.175L557.482,365.475L557.482,365.475Z" style="fill:rgb(0,130,255);fill-rule:nonzero;"/>
                            </g>
                            <g transform="matrix(9.86531,0,0,9.86531,-3565.13,-3376.52)">
                                <path d="M557.482,365.475C558.032,366.621 558.226,366.621 557.907,367.325C557.876,367.391 557.411,368.59 557.188,368.862C557.091,368.981 556.923,369.003 556.858,369.003C556.778,369.003 556.682,368.979 556.57,368.931C556.33,368.827 556.21,368.671 556.21,368.463C556.21,368.367 556.234,368.271 556.282,368.175L557.482,365.475L557.482,365.475Z" style="fill:url(#_Linear2);fill-rule:nonzero;"/>
                            </g>
                        </g>
                    </g>
                </g>
            </g>
        </g>
    </g>
    <defs>
        <linearGradient id="_Linear1" x1="0" y1="0" x2="1" y2="0" gradientUnits="userSpaceOnUse" gradientTransform="matrix(4.98884,-3.22632,3.22632,4.98884,557.896,365.381)"><stop offset="0" style="stop-color:rgb(3,89,253);stop-opacity:1"/><stop offset="0.58" style="stop-color:rgb(156,64,152);stop-opacity:1"/><stop offset="1" style="stop-color:rgb(226,52,105);stop-opacity:1"/></linearGradient>
        <linearGradient id="_Linear2" x1="0" y1="0" x2="1" y2="0" gradientUnits="userSpaceOnUse" gradientTransform="matrix(1.26655,-0.791842,0.791842,1.26655,556.474,367.164)"><stop offset="0" style="stop-color:rgb(0,130,255);stop-opacity:1"/><stop offset="0.65" style="stop-color:rgb(0,122,240);stop-opacity:0.972549"/><stop offset="0.84" style="stop-color:rgb(0,102,200);stop-opacity:0.898039"/><stop offset="1" style="stop-color:rgb(0,78,153);stop-opacity:0.811765"/></linearGradient>
    </defs>
</svg>
