<?xml version="1.0" encoding="UTF-8" standalone="no"?>
<!DOCTYPE svg PUBLIC "-//W3C//DTD SVG 1.1//EN" "http://www.w3.org/Graphics/SVG/1.1/DTD/svg11.dtd">
<svg width="100%" height="100%" viewBox="0 0 149 168" version="1.1" xmlns="http://www.w3.org/2000/svg" xmlns:xlink="http://www.w3.org/1999/xlink" xml:space="preserve" style="fill-rule:evenodd;clip-rule:evenodd;stroke-linejoin:round;stroke-miterlimit:1.41421;">
    <path d="M111.426,104.301L126.532,104.301C132.58,104.302 137.218,105.811 140.452,108.828C143.688,111.845 145.305,115.582 145.305,120.036C145.305,123.773 144.151,126.977 141.842,129.65C140.302,131.432 138.05,132.84 135.085,133.875C139.589,134.967 142.904,136.842 145.027,139.501C147.151,142.159 148.213,145.5 148.213,149.524C148.213,152.8 147.458,155.746 145.947,158.362C144.436,160.977 142.369,163.046 139.746,164.569C138.121,165.518 135.67,166.208 132.391,166.639C128.046,167.211 125.157,167.499 123.71,167.501L110.017,167.501L110.017,167.509L86.139,167.509L73.789,156.077L88.311,155.852L123.278,155.852C131.804,155.785 132.682,140.656 123.278,141.102L85.283,141.102L85.283,141.116L58.11,141.116L44.147,129.124L90.269,129.124L90.269,129.09L114.619,129.09L114.619,129.09L118.236,129.09C121.258,129.09 123.361,128.565 124.544,127.516C125.727,126.467 126.319,124.951 126.319,122.968C126.319,121.128 125.727,119.691 124.544,118.657C123.363,117.624 121.31,117.107 118.365,117.105L109.812,117.105L109.812,117.125L90.269,117.125L90.269,117.077L31.564,117.077L16.11,104.301L111.426,104.301ZM35.992,97.078L13.798,97.078C18.321,94.09 39.107,71.645 30.598,53.092C26.753,44.708 21.893,48.211 21.893,48.211L21.709,48.313C19.926,49.28 18.641,51.594 18.442,53.023C18.343,53.733 18.232,55.123 18.532,56.202C18.787,57.114 19.252,58.273 20.581,59.086C24.832,61.685 28.767,56.182 28.624,57.349C28.517,59.156 28.184,65.286 17.637,64.392C20.534,69.258 13.738,77.701 13.702,77.696C11.947,77.442 3.863,72.397 8.216,63.996C8.301,63.832 5.564,65.418 3.476,64.818C-3.955,62.681 2.839,53.984 2.851,54.486C3.051,63.041 8.245,59.145 9.086,58.726C7.611,57.178 9.065,46.741 15.879,41.706C23.305,36.218 37.85,36.57 39.071,60.636C39.891,76.802 27.353,87.01 28.27,91.026C29.167,94.953 35.848,97.034 35.992,97.078ZM54.44,96.803C55.649,87.83 57.014,76.328 42.173,78.013C45.205,72.596 45.297,72.404 46.908,71.121C47.725,70.471 47.938,68.981 44.355,69.955C40.716,70.944 43.84,70.665 44.454,63.788C44.767,60.279 41.699,51.536 46.829,44.471C47.455,43.609 49.875,42.971 48.326,42.604C45.902,42.03 44.662,41.263 45.36,40.708C46.518,39.787 48.301,39.537 48.003,34.464C47.989,34.228 40.44,35.901 37.327,37.697C36.185,38.355 36.953,29.948 37.424,26.442C37.655,24.715 39.219,20.178 39.394,19.768C39.825,18.756 40.298,17.77 40.81,16.814C45.714,7.666 54.217,1.236 64.008,0.47C67.428,0.202 74.801,-1.152 78.641,2.464C80.079,3.818 77.674,9.866 79.229,11.14C80.426,12.121 94.588,13.788 94.979,13.991C95.052,14.03 96.053,17.752 94.79,21.18C93.688,24.175 92.378,31.462 92.378,31.462C92.378,31.462 75.211,20.97 67.587,31.221C65.094,34.572 67.46,42.656 72.591,42.591C76.367,42.542 89.513,42.94 93.102,42.381C93.102,42.381 91.959,45.217 92.378,47.442C92.931,50.371 94.926,53.106 93.211,55.509C92.49,56.519 79.686,56.26 75.641,56.276C73.801,56.283 64.234,55.105 61.769,50.75L61.559,50.377C59.684,49.646 67.74,64.977 81.536,63.231C85.34,62.749 65.119,74.779 80.427,69.329L80.477,69.248C80.477,69.248 79.893,75.932 73.576,79.873C71.153,81.384 83.629,79.729 90.239,74.618C96.998,69.393 100.468,61.993 101.918,57.811L106.749,39.812C106.749,39.812 112.267,23.397 115.606,18.274C122.37,7.898 128.826,9.456 129.287,9.293C128.535,10.086 122.686,14.592 126.505,18.437C127.269,19.205 127.549,16.802 130.643,15.353C131.148,15.116 135.776,13.086 140.956,15.877C140.964,15.882 140.695,15.977 140.483,16.066C132.596,19.418 130.343,28.127 131.179,27.851C138.87,25.312 138.637,34.017 138.637,34.017C131.252,32.775 128.195,36.214 122.559,41.575C122.559,41.575 118.889,48.139 118.516,56.684L118.512,56.854L120.388,56.129C120.388,56.129 120.881,56.652 120.308,58.302C119.807,59.746 118.266,61.446 118.266,61.446C118.266,61.446 115.827,63.514 115.468,63.707C114.01,64.488 113.832,66.279 113.832,66.279C113.832,66.279 109.93,73.207 113.394,82.424L113.449,82.437L113.398,82.436L113.394,82.424C112.831,82.295 108.313,81.128 107.194,77.01C106.001,72.617 105.136,83.79 104.739,87.697C104.342,91.605 121.016,82.616 133.433,84.47C139.106,85.317 136.15,86.125 136.15,86.125C136.15,86.125 132.609,86.911 131.869,91.281C131.617,92.769 134.146,92.398 135.909,92.465C137.07,92.51 140.347,92.639 141.667,94.45C142.259,95.264 141.874,96.748 141.667,96.803C141.475,96.855 139.808,96.802 138.796,96.803L54.44,96.803ZM71.753,20.767C71.909,18.979 78.586,17.15 78.586,17.15C75.635,16.558 72.797,15.495 70.801,13.501L68.884,11.207C68.884,11.207 70.095,12.616 70.665,14.683C71.298,16.978 71.656,19.805 71.753,20.767L71.753,20.919C71.79,21.224 71.791,21.129 71.753,20.767Z" style="fill:black;"/>
</svg>
