<?xml version="1.0" encoding="UTF-8" standalone="no"?>
<!DOCTYPE svg PUBLIC "-//W3C//DTD SVG 1.1//EN" "http://www.w3.org/Graphics/SVG/1.1/DTD/svg11.dtd">
<svg width="100%" height="100%" viewBox="0 0 234 148" version="1.1" xmlns="http://www.w3.org/2000/svg" xmlns:xlink="http://www.w3.org/1999/xlink" xml:space="preserve" style="fill-rule:evenodd;clip-rule:evenodd;stroke-linejoin:round;stroke-miterlimit:1.41421;">
    <g transform="matrix(1,0,0,1,-1881.92,-326.364)">
        <g>
            <path d="M2041.72,367.448C2041.79,367.391 2041.86,367.327 2041.93,367.271C2049.8,361.005 2060.53,358.807 2070.37,358.817C2083.86,358.831 2098.77,362.611 2106.65,374.495C2108.32,377.012 2109.65,379.849 2110.55,382.731C2111.49,385.742 2111.98,388.841 2112.1,391.99L2098.01,393.051C2097.37,387.05 2095.14,381.053 2090.33,377.145C2083.41,371.531 2073.19,371.18 2064.76,372.073C2061.5,372.419 2058.05,373.123 2055.05,374.516C2046.04,378.691 2041.62,390.988 2049.77,398.276C2053.35,401.536 2059.38,402.95 2063.82,404.177C2074.66,407.172 2086.19,408.585 2096.5,413.273C2102.08,415.844 2107.32,419.452 2110.82,424.596C2119.34,437.124 2115.46,454.623 2104.18,464.055C2095.96,470.931 2084.91,473.638 2074.39,473.636C2058.83,473.633 2042.22,469.805 2033.14,456.027C2031.23,453.121 2029.74,449.954 2028.72,446.626C2027.67,443.191 2027.16,440.298 2027.07,437.065C2026.8,426.804 2027.07,385.061 2027.07,385.061L1969.36,385.061L1969.36,437.396L1954.67,437.396L1954.67,326.364L1969.36,326.364L1969.36,371.958L2027.07,371.958L2027.07,326.364L2041.77,326.364L2041.66,410.282C2043.33,411.565 2045.17,412.594 2047.04,413.576C2059.79,420.345 2074.93,420.73 2088.24,425.921C2091.35,427.103 2096.18,429.346 2098.24,432.472C2102.97,439.628 2101.93,450.221 2094.16,454.995C2092.36,456.103 2090.52,457.197 2088.55,457.958C2086.32,458.819 2083.98,459.436 2081.62,459.833C2069.53,461.868 2052.95,459.545 2045.49,448.529C2042.92,444.727 2042.03,440.966 2041.62,436.902C2040.98,430.528 2041.66,410.282 2041.66,410.282" style="fill:black;"/>
            <g transform="matrix(0.405674,-1.98723e-16,1.24199e-16,0.25354,1772.5,272.323)">
                <path d="M438.775,213.276L269.724,213.276C269.724,213.276 269.724,213.278 269.724,213.281C269.724,245.563 286.08,271.733 306.256,271.733C355.959,271.733 438.775,271.733 438.775,271.733L438.775,213.276Z" style="fill:black;"/>
            </g>
            <g transform="matrix(0.28373,-1.38988e-16,1.14019e-16,0.23276,1826.01,296.497)">
                <path d="M438.775,213.276L269.724,213.276C269.724,213.276 269.724,213.277 269.724,213.278C269.724,245.562 291.194,271.733 317.678,271.733C367.659,271.733 438.775,271.733 438.775,271.733L438.775,213.276Z" style="fill:black;"/>
            </g>
            <g transform="matrix(0.202223,-9.90607e-17,1.14019e-16,0.23276,1861.66,315.632)">
                <path d="M438.775,213.276L269.724,213.276C269.724,213.276 269.724,213.277 269.724,213.278C269.724,245.562 299.848,271.733 337.006,271.733C384.153,271.733 438.775,271.733 438.775,271.733L438.775,213.276Z" style="fill:black;"/>
            </g>
        </g>
    </g>
</svg>
