<?xml version="1.0" encoding="UTF-8" standalone="no"?>
<!DOCTYPE svg PUBLIC "-//W3C//DTD SVG 1.1//EN" "http://www.w3.org/Graphics/SVG/1.1/DTD/svg11.dtd">
<svg width="100%" height="100%" viewBox="0 0 396 134" version="1.1" xmlns="http://www.w3.org/2000/svg" xmlns:xlink="http://www.w3.org/1999/xlink" xml:space="preserve" style="fill-rule:evenodd;clip-rule:evenodd;stroke-linejoin:round;stroke-miterlimit:1.41421;">
    <g transform="matrix(1,0,0,1,-442.347,-248.052)">
        <g transform="matrix(1,0,0,1,-600.157,-35.1741)">
            <g transform="matrix(0.628946,0,0,0.671452,814.346,104.001)">
                <path d="M660.807,399.21C660.883,399.905 660.96,400.601 661.037,401.296C661.038,401.298 661.037,401.29 661.037,401.291C661.154,402.337 661.273,403.383 661.393,404.429L661.393,404.423C661.591,406.131 661.795,407.839 662.003,409.546L662.002,409.539C662.044,409.877 662.086,410.215 662.128,410.552C662.129,410.555 662.127,410.543 662.127,410.546C662.211,411.213 662.296,411.88 662.381,412.547C662.381,412.55 662.379,412.538 662.38,412.54C662.422,412.872 662.465,413.204 662.508,413.536C662.509,413.538 662.507,413.526 662.507,413.528C662.551,413.858 662.594,414.188 662.637,414.517L662.636,414.51C662.723,415.16 662.81,415.811 662.898,416.461C662.898,416.464 662.896,416.45 662.896,416.453C662.94,416.773 663.072,417.735 663.028,417.414C663.117,418.051 663.207,418.688 663.297,419.325C663.297,419.328 663.295,419.313 663.295,419.316C663.386,419.943 663.477,420.57 663.569,421.198L663.567,421.188C663.705,422.114 663.705,422.114 663.846,423.04C663.846,423.044 663.843,423.026 663.844,423.03C663.891,423.336 663.938,423.643 663.985,423.95C663.986,423.953 663.983,423.935 663.984,423.939C664.032,424.243 664.079,424.547 664.127,424.851L664.125,424.84C664.268,425.735 664.268,425.734 664.414,426.629C664.414,426.633 664.411,426.613 664.412,426.617C664.509,427.202 664.607,427.788 664.706,428.373L664.703,428.36C664.801,428.93 664.901,429.5 665.001,430.07C665.101,430.631 665.203,431.192 665.305,431.753C665.306,431.758 665.302,431.733 665.303,431.738C665.355,432.017 665.407,432.296 665.459,432.575L665.456,432.56C665.611,433.375 665.611,433.374 665.77,434.189C665.771,434.195 665.766,434.168 665.767,434.173C665.82,434.443 665.874,434.712 665.928,434.982L665.924,434.965C666.082,435.743 666.244,436.521 666.409,437.298L666.406,437.279C666.515,437.782 666.626,438.285 666.738,438.788C666.847,439.266 666.958,439.744 667.069,440.221C667.37,441.475 667.684,442.725 668.021,443.97C668.023,443.975 668.017,443.952 668.018,443.956C668.164,444.488 668.314,445.018 668.468,445.548C668.469,445.553 668.462,445.528 668.463,445.533C668.555,445.845 668.555,445.845 668.649,446.157C668.65,446.162 668.643,446.136 668.644,446.141C668.676,446.246 668.708,446.351 668.74,446.456L668.735,446.44C668.828,446.743 668.828,446.743 668.923,447.045C668.925,447.051 668.916,447.023 668.917,447.029C669.01,447.321 669.104,447.612 669.2,447.904L669.194,447.886C669.288,448.168 669.383,448.45 669.479,448.731C669.481,448.738 669.47,448.705 669.472,448.712C669.537,448.896 669.602,449.081 669.667,449.265L669.66,449.245C669.694,449.339 669.728,449.433 669.761,449.527C669.764,449.534 669.751,449.499 669.754,449.506C669.849,449.766 669.945,450.024 670.043,450.283C670.138,450.529 670.235,450.774 670.332,451.019C670.335,451.027 670.319,450.988 670.322,450.996C670.355,451.075 670.387,451.154 670.419,451.233C670.823,452.211 671.258,453.178 671.764,454.114C672.143,454.812 672.558,455.497 673.047,456.132C673.332,456.503 673.644,456.863 674.01,457.167C674.116,457.255 674.228,457.338 674.348,457.409C674.409,457.446 674.475,457.482 674.545,457.502C674.566,457.507 674.585,457.504 674.606,457.501C674.983,457.451 675.328,457.287 675.64,457.089C676.181,456.745 676.642,456.295 677.057,455.826C677.627,455.182 678.118,454.478 678.565,453.755C679.189,452.747 679.724,451.696 680.219,450.629C680.223,450.622 680.207,450.655 680.21,450.649C680.329,450.389 680.446,450.129 680.56,449.867C680.921,449.04 681.252,448.203 681.57,447.361L681.559,447.392C681.961,446.305 682.341,445.212 682.693,444.11C683.023,443.078 683.33,442.041 683.628,441.001C683.63,440.995 683.621,441.028 683.623,441.021C683.726,440.654 683.827,440.287 683.929,439.92C683.93,439.913 683.922,439.944 683.924,439.938C684.025,439.563 684.125,439.188 684.225,438.813L684.22,438.831C684.271,438.637 684.321,438.444 684.371,438.251C684.373,438.245 684.366,438.274 684.367,438.268C684.616,437.298 684.855,436.326 685.089,435.353C685.09,435.348 685.084,435.373 685.085,435.368C685.181,434.964 685.275,434.56 685.369,434.156C685.37,434.151 685.365,434.174 685.366,434.17C685.46,433.759 685.553,433.349 685.645,432.938L685.642,432.951C685.688,432.741 685.735,432.531 685.781,432.322C685.782,432.317 685.778,432.338 685.779,432.334C685.867,431.929 685.955,431.523 686.043,431.117C686.136,430.679 686.229,430.24 686.32,429.802C686.363,429.594 686.49,428.972 686.448,429.179C686.536,428.745 686.624,428.311 686.711,427.876C686.712,427.873 686.709,427.889 686.71,427.886C686.797,427.447 686.883,427.007 686.969,426.567C686.97,426.564 686.967,426.58 686.967,426.577C687.053,426.132 687.139,425.687 687.224,425.242C687.224,425.239 687.221,425.254 687.222,425.251C687.264,425.025 687.307,424.8 687.349,424.574C687.35,424.571 687.347,424.586 687.348,424.583C687.432,424.131 687.516,423.679 687.599,423.227L687.598,423.235C687.723,422.55 687.846,421.865 687.968,421.18C687.968,421.178 687.966,421.19 687.967,421.187C688.089,420.493 688.21,419.799 688.331,419.105L688.329,419.114C688.409,418.644 688.489,418.174 688.57,417.703C688.57,417.699 688.567,417.719 688.568,417.715C688.646,417.245 688.886,415.836 688.804,416.305C688.884,415.816 688.965,415.327 689.045,414.838C689.12,414.377 689.345,412.996 689.269,413.456C689.5,412.008 689.728,410.56 689.953,409.111C689.953,409.109 689.951,409.121 689.952,409.118C690.027,408.63 690.102,408.141 690.177,407.653L690.176,407.659C690.25,407.168 690.325,406.678 690.399,406.188C690.399,406.186 690.398,406.195 690.398,406.193C690.472,405.702 690.546,405.21 690.62,404.718C690.62,404.717 690.619,404.725 690.619,404.723C690.767,403.738 690.913,402.752 691.059,401.767L691.058,401.772C691.861,396.313 692.648,390.857 693.456,385.397C693.668,383.98 693.881,382.562 694.096,381.145C694.712,377.129 695.346,373.116 696.045,369.111C696.584,366.025 697.158,362.944 697.795,359.874C698.294,357.473 698.833,355.079 699.434,352.699C699.894,350.879 700.392,349.066 700.947,347.269C701.356,345.949 701.796,344.636 702.282,343.339C702.623,342.428 702.988,341.527 703.38,340.635C703.688,339.934 704.018,339.241 704.371,338.559C704.607,338.104 704.854,337.653 705.113,337.208C705.333,336.833 705.562,336.462 705.801,336.097C707.091,334.127 708.727,332.285 710.862,331.081C711.185,330.899 711.518,330.733 711.859,330.584C712.348,330.372 712.854,330.195 713.373,330.06C714.055,329.882 714.757,329.775 715.464,329.742C716.379,329.699 717.302,329.78 718.195,329.973C718.839,330.113 719.467,330.313 720.07,330.567C720.48,330.74 720.877,330.939 721.26,331.16C723.597,332.507 725.288,334.623 726.547,336.87C726.721,337.182 726.888,337.497 727.047,337.815C727.323,338.364 727.579,338.921 727.819,339.484C728.114,340.178 728.384,340.881 728.635,341.589C728.99,342.594 729.308,343.611 729.598,344.635C729.943,345.856 730.25,347.088 730.528,348.325C730.891,349.937 731.207,351.558 731.493,353.184C731.851,355.222 732.16,357.269 732.44,359.318C732.804,361.979 733.117,364.646 733.406,367.315C733.808,371.032 734.161,374.755 734.513,378.477C734.652,379.946 734.791,381.416 734.931,382.885C734.931,382.887 734.93,382.877 734.93,382.879C734.996,383.565 735.19,385.621 735.129,384.935C735.229,385.954 735.331,386.972 735.434,387.99C735.434,387.993 735.433,387.98 735.433,387.983C735.503,388.654 735.573,389.324 735.643,389.995L735.642,389.986C735.678,390.319 735.714,390.653 735.75,390.987C735.751,390.99 735.749,390.973 735.749,390.977C735.821,391.634 735.895,392.291 735.969,392.948C735.97,392.952 735.967,392.931 735.968,392.935C736.006,393.262 736.044,393.589 736.082,393.915L736.08,393.902C736.118,394.218 736.155,394.534 736.194,394.849C736.233,395.168 736.355,396.126 736.312,395.807C736.392,396.434 736.473,397.061 736.556,397.688C736.557,397.695 736.553,397.664 736.553,397.67C736.616,398.131 736.679,398.592 736.744,399.053C736.744,399.057 736.742,399.04 736.743,399.043C736.786,399.346 736.83,399.648 736.874,399.951C736.874,399.954 736.871,399.936 736.872,399.94C736.916,400.238 736.961,400.537 737.006,400.835C737.007,400.839 737.004,400.82 737.004,400.823C737.027,400.973 737.051,401.123 737.074,401.272C737.074,401.276 737.071,401.256 737.072,401.26C737.095,401.409 737.119,401.557 737.142,401.706C737.143,401.71 737.139,401.689 737.14,401.694C737.164,401.841 737.188,401.989 737.211,402.136L737.209,402.123C737.256,402.411 737.304,402.698 737.352,402.986C737.353,402.99 737.349,402.967 737.35,402.972C737.374,403.116 737.399,403.261 737.424,403.405C737.425,403.41 737.421,403.386 737.421,403.391C737.447,403.534 737.471,403.677 737.497,403.82C737.497,403.825 737.493,403.801 737.494,403.805C737.519,403.947 737.545,404.09 737.57,404.232L737.567,404.216C737.618,404.492 737.669,404.767 737.72,405.042C737.721,405.048 737.716,405.02 737.717,405.026C737.744,405.164 737.77,405.303 737.797,405.441C737.798,405.447 737.792,405.419 737.793,405.425C737.846,405.692 737.899,405.959 737.952,406.227L737.949,406.209C738.003,406.471 738.057,406.733 738.112,406.995C738.113,407.001 738.106,406.969 738.108,406.975C738.136,407.107 738.165,407.239 738.193,407.372C738.195,407.378 738.188,407.345 738.189,407.352C738.299,407.846 738.411,408.339 738.528,408.832L738.523,408.809C738.608,409.159 738.696,409.509 738.786,409.858C738.875,410.196 738.967,410.533 739.061,410.87C739.064,410.879 739.05,410.832 739.053,410.842C739.086,410.958 739.12,411.074 739.153,411.19L739.145,411.161C739.238,411.476 739.333,411.79 739.431,412.104C739.585,412.579 739.743,413.053 739.916,413.523C740.042,413.864 740.176,414.203 740.317,414.538C740.445,414.842 740.579,415.142 740.723,415.439C740.819,415.639 740.92,415.837 741.025,416.032C741.219,416.391 741.429,416.743 741.666,417.078C741.845,417.332 742.04,417.578 742.262,417.8C742.357,417.895 742.458,417.986 742.567,418.066C742.646,418.124 742.739,418.194 742.84,418.212C742.882,418.22 742.926,418.216 742.968,418.213C743.137,418.198 743.306,418.179 743.474,418.157C745.118,417.924 746.678,417.333 748.134,416.596C750.172,415.566 752.027,414.251 753.787,412.849C753.793,412.845 753.766,412.867 753.771,412.862C754.196,412.52 754.617,412.172 755.031,411.818C756.032,410.961 756.996,410.069 757.943,409.16L757.922,409.18C758.169,408.94 758.415,408.699 758.66,408.457C758.908,408.21 759.154,407.962 759.4,407.713C759.645,407.463 759.889,407.212 760.132,406.961C760.137,406.955 760.11,406.984 760.115,406.978C761.114,405.933 762.09,404.871 763.05,403.795C763.054,403.791 763.033,403.814 763.037,403.809C763.163,403.668 763.288,403.526 763.413,403.384C763.417,403.38 763.397,403.402 763.401,403.398C763.648,403.116 763.894,402.835 764.139,402.552C764.143,402.548 764.124,402.57 764.128,402.565C764.617,401.998 765.102,401.429 765.585,400.857C765.588,400.853 765.572,400.872 765.575,400.868C765.698,400.721 765.821,400.574 765.944,400.427L765.935,400.438C766.058,400.29 766.181,400.142 766.304,399.995C766.307,399.991 766.292,400.009 766.295,400.005C766.537,399.712 766.779,399.419 767.02,399.125C767.023,399.121 767.009,399.138 767.012,399.135C767.131,398.989 767.487,398.55 767.369,398.697C767.609,398.4 767.849,398.104 768.088,397.807C768.091,397.804 768.078,397.819 768.081,397.816C768.202,397.665 768.322,397.515 768.443,397.364C768.559,397.219 768.903,396.784 768.789,396.93C769.026,396.631 769.263,396.331 769.5,396.032C769.502,396.029 769.492,396.042 769.494,396.039C769.963,395.442 770.43,394.843 770.895,394.243C770.897,394.24 770.885,394.256 770.888,394.252C771.351,393.651 771.813,393.049 772.274,392.446L772.266,392.457C772.721,391.857 773.176,391.256 773.63,390.655C773.632,390.653 773.622,390.667 773.624,390.664C773.845,390.37 774.065,390.076 774.286,389.782C774.732,389.186 775.178,388.589 775.622,387.992C775.623,387.991 775.618,387.999 775.619,387.997C775.836,387.704 776.496,386.829 776.272,387.118C777.73,385.152 779.183,383.183 780.645,381.219C781.044,380.686 781.444,380.152 781.845,379.619C783.195,377.836 784.556,376.058 785.981,374.326C787.664,372.279 789.432,370.293 791.295,368.388C794.725,364.88 798.482,361.644 802.595,358.848C806.414,356.251 810.538,354.048 814.899,352.352C817.601,351.301 820.389,350.445 823.23,349.786C824.401,349.514 825.582,349.276 826.768,349.069C827.409,348.957 828.052,348.863 828.695,348.762C828.887,348.732 829.079,348.697 829.271,348.666C829.743,348.59 830.215,348.52 830.689,348.455C831.886,348.291 833.089,348.164 834.295,348.078C835.263,348.009 836.234,347.967 837.205,347.955C838.055,347.944 838.905,347.956 839.754,347.994C842.406,348.113 845.056,348.482 847.597,349.213C850.038,349.916 852.376,350.963 854.414,352.412C855.27,353.021 856.061,353.7 856.799,354.432L856.925,354.558C857.093,354.735 857.097,354.731 857.246,354.923L857.246,354.922C857.525,355.33 857.619,355.422 857.809,355.876C857.998,356.33 857.997,356.458 858.087,356.935L858.087,356.937C858.093,357.17 858.12,357.403 858.105,357.636C858.076,358.103 857.961,358.562 857.768,358.993C857.574,359.425 857.305,359.821 856.969,360.168C856.633,360.515 856.238,360.806 855.799,361.029C854.919,361.475 853.885,361.631 852.9,361.462L852.9,361.462C852.72,361.42 852.538,361.389 852.361,361.337C852.185,361.285 852.011,361.222 851.843,361.15C851.555,361.026 851.408,360.935 851.17,360.796C850.909,360.612 850.652,360.423 850.389,360.241C849.249,359.468 848.021,358.814 846.74,358.271C844.33,357.249 841.733,356.628 839.096,356.435C838.328,356.378 837.556,356.358 836.785,356.373C836.234,356.383 835.683,356.415 835.133,356.451C834.573,356.488 834.013,356.532 833.454,356.583C832.214,356.695 830.977,356.843 829.747,357.029C829.297,357.097 828.849,357.17 828.401,357.249C828.175,357.289 827.934,357.326 827.71,357.375C825.699,357.815 823.714,358.375 821.781,359.055C820.838,359.386 819.906,359.746 818.993,360.145C818.531,360.347 818.076,360.562 817.622,360.779C817.616,360.782 817.642,360.769 817.637,360.772C816.803,361.174 815.977,361.588 815.158,362.014C815.153,362.017 815.178,362.004 815.173,362.007C815.076,362.057 814.98,362.108 814.883,362.158C814.879,362.161 814.903,362.148 814.898,362.151C814.71,362.25 814.522,362.35 814.335,362.45C814.33,362.453 814.354,362.44 814.349,362.442C814.253,362.494 814.156,362.546 814.06,362.598C814.055,362.601 814.08,362.588 814.075,362.59C813.978,362.643 813.882,362.695 813.786,362.748C813.781,362.75 813.805,362.737 813.8,362.74C813.52,362.893 813.241,363.048 812.963,363.203C812.958,363.206 812.982,363.192 812.977,363.195C812.881,363.249 812.785,363.303 812.689,363.357C812.684,363.36 812.708,363.346 812.703,363.349C812.607,363.404 812.511,363.458 812.415,363.513C812.41,363.516 812.434,363.502 812.429,363.505C810.392,364.671 808.41,365.916 806.483,367.235C806.478,367.239 806.502,367.222 806.497,367.225C806.405,367.289 806.312,367.353 806.22,367.417C806.215,367.42 806.239,367.404 806.234,367.407C806.142,367.472 806.05,367.536 805.957,367.6C805.953,367.604 805.976,367.587 805.972,367.59C805.705,367.777 805.44,367.966 805.175,368.155C805.17,368.159 805.194,368.141 805.19,368.145C805.012,368.273 804.835,368.401 804.658,368.53L804.672,368.52C804.239,368.838 803.808,369.159 803.381,369.485L803.396,369.474C803.143,369.667 802.891,369.862 802.641,370.058C802.553,370.127 802.465,370.196 802.378,370.265C802.373,370.269 802.388,370.257 802.393,370.253C802.141,370.454 801.89,370.654 801.641,370.857C801.558,370.924 801.476,370.992 801.393,371.06C801.388,371.064 801.403,371.051 801.408,371.047C801.16,371.252 800.913,371.458 800.667,371.665C800.662,371.669 800.687,371.647 800.682,371.652C799.884,372.329 799.101,373.022 798.335,373.732L798.351,373.717C798.271,373.792 798.191,373.868 798.11,373.943C798.105,373.947 798.131,373.923 798.126,373.928C797.972,374.074 797.818,374.22 797.665,374.366C797.659,374.371 797.686,374.346 797.68,374.351C797.605,374.423 797.531,374.495 797.456,374.568C797.165,374.851 796.877,375.137 796.591,375.425L796.421,375.598C796.222,375.814 796.024,376.031 795.827,376.248C795.003,377.167 794.197,378.098 793.408,379.044L793.424,379.025C793.108,379.408 793.033,379.497 792.724,379.879C792.607,380.023 792.49,380.169 792.373,380.314C792.369,380.319 792.381,380.304 792.386,380.299L792.125,380.625L791.994,380.791C791.837,381.007 791.683,381.224 791.53,381.443C790.914,382.333 790.333,383.242 789.802,384.179C788.268,386.891 787.139,389.837 786.777,392.899C786.705,393.504 786.664,394.113 786.655,394.721C786.643,395.553 786.691,396.387 786.801,397.212C786.967,398.463 787.275,399.694 787.71,400.886C788.382,402.728 789.352,404.466 790.515,406.076C792.242,408.47 794.38,410.586 796.697,412.484C797.653,413.267 798.643,414.014 799.658,414.729C799.981,414.957 800.023,414.985 800.339,415.202C800.653,415.419 800.968,415.634 801.295,415.833C801.727,416.095 802.175,416.334 802.637,416.548C804.099,417.228 805.684,417.654 807.296,417.881C809.069,418.13 810.874,418.144 812.658,418.005C814.951,417.826 817.217,417.395 819.43,416.81C823.695,415.684 827.783,414.013 831.679,412.044C832.508,411.625 833.328,411.19 834.142,410.745C834.148,410.742 834.119,410.758 834.125,410.755C835.071,410.233 836.009,409.698 836.934,409.144C837.806,408.622 838.659,408.084 839.525,407.556C839.915,407.32 840.306,407.086 840.698,406.853C841.831,406.188 842.974,405.538 844.134,404.915C845.215,404.334 846.309,403.775 847.418,403.243C852.803,400.659 858.581,398.636 864.619,397.97C865.542,397.869 866.47,397.799 867.399,397.763C868.971,397.702 870.547,397.739 872.115,397.873C874.508,398.078 876.872,398.515 879.185,399.12C881.302,399.673 883.37,400.367 885.421,401.104C887.213,401.754 888.993,402.434 890.786,403.081L890.774,403.077C891.268,403.254 891.763,403.428 892.26,403.599C893.231,403.928 894.208,404.243 895.196,404.523C896.717,404.953 898.264,405.306 899.834,405.535C900.47,405.628 901.109,405.701 901.75,405.752C902.649,405.824 903.552,405.863 904.453,405.91C904.81,405.929 905.168,405.946 905.525,405.965C905.529,405.965 905.511,405.964 905.515,405.964C906.237,405.999 906.959,406.033 907.682,406.064C907.685,406.064 907.668,406.064 907.672,406.064C908.404,406.093 909.136,406.122 909.868,406.149L909.859,406.149C910.23,406.162 910.601,406.175 910.972,406.189C910.975,406.189 910.96,406.188 910.963,406.188C915.594,406.341 920.225,406.434 924.857,406.491L924.852,406.491C926.076,406.504 927.299,406.516 928.523,406.526C928.524,406.526 928.517,406.526 928.518,406.526C928.935,406.529 929.353,406.532 929.77,406.535C931.449,406.545 933.129,406.552 934.808,406.557C937.436,406.561 940.064,406.561 942.692,406.557L942.688,406.558C951.341,406.537 959.994,406.489 968.647,406.456C971.805,406.446 974.963,406.438 978.121,406.433C980.865,406.432 983.61,406.431 986.354,406.435L988.049,406.439L990.337,407.329L991.291,409.46L990.344,411.593L988.06,412.491C986.94,412.496 985.821,412.503 984.701,412.509C984.7,412.509 984.705,412.509 984.704,412.509C982.516,412.524 980.328,412.54 978.14,412.557L978.144,412.557C973.963,412.595 969.796,412.638 965.613,412.685L965.615,412.685C957.991,412.774 950.361,412.873 942.734,412.95C941.843,412.95 940.952,412.967 940.061,412.975C937.888,412.994 935.716,413.007 933.544,413.018C932.277,413.018 931.011,413.027 929.744,413.03C926.886,413.036 924.028,413.027 921.17,413.004C914.757,412.952 908.346,412.805 901.94,412.526C901.61,412.509 901.281,412.49 900.951,412.467C899.91,412.387 898.874,412.267 897.844,412.108C896.107,411.839 894.392,411.446 892.704,410.978C889.984,410.223 887.336,409.263 884.686,408.318C884.685,408.318 884.693,408.321 884.691,408.32C884.435,408.229 884.178,408.138 883.922,408.047C883.918,408.046 883.938,408.053 883.934,408.051C883.678,407.961 883.422,407.872 883.167,407.782C882.669,407.609 882.17,407.438 881.671,407.271C879.955,406.702 878.222,406.176 876.452,405.775C874.357,405.3 872.217,405.004 870.061,404.952C869.082,404.928 868.101,404.954 867.124,405.027C862.066,405.404 857.202,407.039 852.688,409.147C851.944,409.494 851.209,409.857 850.478,410.228C850.472,410.231 850.503,410.216 850.497,410.219C850.383,410.277 850.27,410.335 850.156,410.394C850.15,410.397 850.18,410.382 850.174,410.385C849.841,410.558 849.508,410.733 849.176,410.909C849.171,410.912 849.2,410.897 849.194,410.9C848.276,411.393 847.369,411.9 846.469,412.421C846.464,412.424 846.49,412.409 846.485,412.412C846.363,412.483 846.242,412.554 846.121,412.625C846.115,412.628 846.141,412.613 846.136,412.616C845.896,412.758 845.657,412.9 845.418,413.043C845.413,413.046 845.438,413.031 845.433,413.034C845.309,413.108 845.186,413.182 845.063,413.257C845.058,413.26 845.083,413.245 845.078,413.248C844.712,413.47 844.348,413.694 843.985,413.919C843.98,413.922 844.004,413.907 843.999,413.91C843.251,414.379 842.508,414.856 841.759,415.323C841.378,415.559 840.995,415.792 840.612,416.024C838.614,417.221 836.576,418.355 834.485,419.403C832.839,420.227 831.163,421 829.458,421.709C828.06,422.291 826.643,422.83 825.205,423.319C824.064,423.707 822.911,424.062 821.745,424.378C820.858,424.619 819.963,424.838 819.063,425.033C818.308,425.197 817.548,425.343 816.784,425.47C812.204,426.232 807.421,426.31 802.905,425.153C802.214,424.976 801.53,424.77 800.858,424.535C799.621,424.102 798.423,423.569 797.286,422.938C796.316,422.4 795.403,421.781 794.502,421.148C793.444,420.406 792.41,419.634 791.406,418.829C788.596,416.577 786.009,414.06 783.859,411.236C782.126,408.958 780.683,406.477 779.674,403.841C779.067,402.255 778.625,400.622 778.341,398.959C777.817,399.641 777.287,400.32 776.756,400.997C774.563,403.782 772.322,406.536 769.956,409.195C768.173,411.199 766.336,413.161 764.399,415.037C762.944,416.446 761.436,417.807 759.854,419.09C758.418,420.255 756.922,421.358 755.347,422.355C753.344,423.623 751.209,424.728 748.936,425.511C747.269,426.086 745.528,426.483 743.756,426.631C742.901,426.702 742.036,426.668 741.192,426.522C740.546,426.41 739.914,426.233 739.309,425.996C738.895,425.834 738.494,425.645 738.108,425.43C737.784,425.251 737.472,425.054 737.171,424.842C735.145,423.418 733.722,421.37 732.655,419.248C732.444,418.828 732.246,418.403 732.059,417.974C731.816,417.418 731.591,416.856 731.382,416.29C731.077,415.466 730.802,414.632 730.549,413.793C730.199,412.631 729.892,411.458 729.614,410.28C729.251,408.74 728.934,407.19 728.654,405.635C728.302,403.673 727.989,401.704 727.715,399.731C727.398,397.449 727.115,395.164 726.858,392.876C726.513,389.816 726.207,386.752 725.91,383.687C725.707,381.594 725.509,379.502 725.309,377.409C725.309,377.408 725.31,377.414 725.31,377.413C725.243,376.72 725.176,376.028 725.109,375.335C725.109,375.333 725.109,375.341 725.109,375.34C725.075,374.994 725.042,374.649 725.008,374.303C725.008,374.301 725.009,374.309 725.008,374.307C724.974,373.963 724.94,373.618 724.906,373.273C724.906,373.271 724.907,373.28 724.907,373.278C724.872,372.934 724.838,372.59 724.803,372.246L724.804,372.252C724.699,371.228 724.699,371.229 724.593,370.205C724.593,370.202 724.594,370.215 724.594,370.213C724.558,369.872 724.522,369.532 724.486,369.192C724.486,369.189 724.488,369.203 724.487,369.2C724.451,368.862 724.414,368.523 724.378,368.184L724.379,368.194C724.305,367.525 724.23,366.856 724.155,366.188C724.154,366.184 724.156,366.203 724.156,366.199C724.117,365.866 724.079,365.533 724.04,365.2C724.039,365.196 724.042,365.217 724.041,365.213C724.002,364.882 723.963,364.551 723.923,364.22L723.925,364.234C723.845,363.588 723.765,362.943 723.683,362.297C723.559,361.35 723.431,360.403 723.299,359.457L723.301,359.471C723.234,359.005 723.234,359.006 723.166,358.54C723.165,358.536 723.168,358.554 723.167,358.551C723.144,358.395 723.121,358.239 723.098,358.084C723.097,358.08 723.1,358.098 723.099,358.095C723.076,357.941 723.053,357.788 723.029,357.635C723.007,357.487 722.936,357.044 722.961,357.192C722.89,356.744 722.818,356.296 722.745,355.849C722.744,355.844 722.747,355.866 722.747,355.862C722.721,355.712 722.696,355.562 722.671,355.412C722.67,355.407 722.674,355.429 722.673,355.425C722.623,355.132 722.573,354.84 722.522,354.548C722.521,354.543 722.525,354.567 722.524,354.562C722.498,354.415 722.472,354.268 722.445,354.121C722.445,354.116 722.449,354.141 722.448,354.136C722.421,353.99 722.395,353.844 722.368,353.698C722.367,353.693 722.372,353.718 722.371,353.713C722.344,353.569 722.317,353.424 722.29,353.279L722.293,353.295C722.213,352.873 722.213,352.874 722.131,352.452C722.13,352.447 722.135,352.475 722.134,352.469C722.106,352.329 722.079,352.188 722.05,352.048C722.023,351.912 721.995,351.777 721.968,351.642C721.966,351.636 721.97,351.653 721.971,351.659C721.915,351.391 721.859,351.123 721.802,350.855C721.773,350.723 721.744,350.59 721.715,350.457C721.713,350.45 721.717,350.47 721.719,350.477C721.66,350.214 721.601,349.951 721.541,349.689C721.539,349.682 721.547,349.717 721.546,349.71C721.515,349.577 721.484,349.445 721.452,349.312C721.451,349.305 721.459,349.341 721.457,349.334C721.396,349.08 721.335,348.826 721.272,348.572C721.27,348.564 721.28,348.603 721.278,348.595C721.245,348.466 721.213,348.338 721.18,348.209C721.178,348.201 721.188,348.241 721.186,348.233C721.153,348.106 721.12,347.978 721.087,347.851L721.094,347.876C721,347.525 720.905,347.174 720.807,346.824C720.741,346.595 720.674,346.367 720.607,346.139C720.604,346.129 720.619,346.178 720.616,346.168C720.581,346.054 720.547,345.941 720.512,345.827C720.122,344.58 719.691,343.342 719.146,342.145C718.841,341.474 718.502,340.815 718.101,340.189C717.882,339.848 717.643,339.515 717.375,339.206C717.301,339.121 717.225,339.038 717.146,338.958C717.076,338.887 717.004,338.819 716.93,338.753C716.868,338.698 716.805,338.646 716.74,338.596C716.696,338.563 716.652,338.531 716.607,338.501C716.447,338.394 716.27,338.302 716.073,338.275C715.989,338.264 715.905,338.26 715.822,338.282C715.73,338.306 715.642,338.35 715.561,338.396C715.409,338.482 715.269,338.586 715.137,338.696C714.952,338.851 714.78,339.019 714.618,339.195C714.315,339.524 714.043,339.877 713.79,340.241C713.201,341.087 712.715,341.991 712.267,342.909C712.263,342.916 712.282,342.878 712.278,342.886C711.887,343.702 711.529,344.531 711.198,345.37C710.932,346.043 710.684,346.722 710.447,347.405C710.135,348.306 709.848,349.214 709.57,350.125C709.568,350.132 709.579,350.093 709.577,350.101C709.479,350.43 709.382,350.759 709.285,351.089C709.283,351.096 709.294,351.06 709.292,351.067C709.098,351.744 708.91,352.423 708.727,353.103L708.732,353.084C708.638,353.439 708.545,353.795 708.453,354.151C708.452,354.156 708.459,354.127 708.458,354.133C708.411,354.317 708.364,354.5 708.318,354.684C708.316,354.69 708.323,354.661 708.322,354.667C708.091,355.592 707.869,356.519 707.653,357.447C707.652,357.452 707.657,357.428 707.656,357.432C707.611,357.627 707.567,357.822 707.522,358.017C707.521,358.022 707.526,357.999 707.525,358.003C707.481,358.2 707.437,358.397 707.393,358.594L707.396,358.58C707.352,358.779 707.308,358.977 707.264,359.176C707.263,359.18 707.268,359.158 707.267,359.162C707.18,359.56 707.094,359.958 707.009,360.356C707.008,360.36 707.012,360.339 707.011,360.344C706.968,360.547 706.926,360.751 706.883,360.954L706.885,360.942C706.842,361.147 706.8,361.352 706.757,361.557C706.756,361.561 706.76,361.542 706.759,361.546C706.717,361.753 706.675,361.959 706.632,362.166C706.631,362.17 706.635,362.151 706.634,362.155C706.592,362.363 706.55,362.571 706.508,362.78C706.507,362.783 706.511,362.765 706.51,362.769C706.386,363.395 706.262,364.022 706.14,364.649C706.14,364.653 706.143,364.637 706.142,364.64C706.101,364.854 706.06,365.068 706.019,365.282C706.019,365.285 706.021,365.27 706.021,365.273C705.899,365.917 705.899,365.917 705.779,366.561L705.781,366.552C705.7,366.987 705.621,367.422 705.541,367.857C705.541,367.86 705.543,367.846 705.543,367.849C705.503,368.07 705.463,368.291 705.423,368.511C705.423,368.514 705.425,368.501 705.425,368.504C705.306,369.168 705.307,369.167 705.189,369.832L705.19,369.825C705.151,370.049 705.112,370.274 705.073,370.498C705.073,370.501 705.075,370.489 705.074,370.491C704.957,371.168 704.842,371.845 704.727,372.522C704.727,372.526 704.73,372.506 704.73,372.51C704.422,374.357 704.122,376.205 703.828,378.055C703.828,378.058 703.83,378.043 703.829,378.046C703.755,378.52 703.681,378.993 703.607,379.467L703.608,379.459C703.535,379.936 703.461,380.413 703.388,380.889C703.387,380.892 703.389,380.88 703.389,380.882C703.315,381.362 703.242,381.842 703.169,382.321C703.169,382.323 703.171,382.313 703.17,382.315C702.952,383.763 702.952,383.762 702.736,385.21L702.736,385.205C702.664,385.692 702.592,386.178 702.52,386.665C702.52,386.667 702.521,386.66 702.52,386.661C702.449,387.15 702.377,387.638 702.305,388.127C702.304,388.129 702.306,388.121 702.305,388.122C702.018,390.09 701.732,392.058 701.447,394.025L701.447,394.024C699.9,404.72 698.386,415.425 696.413,426.061C695.758,429.59 695.041,433.11 694.225,436.609C693.619,439.209 692.956,441.799 692.201,444.365C691.672,446.162 691.097,447.948 690.452,449.712C689.972,451.027 689.45,452.328 688.879,453.611C688.482,454.503 688.053,455.383 687.592,456.247C687.297,456.801 686.987,457.347 686.66,457.885C686.423,458.275 686.177,458.66 685.921,459.038C684.328,461.392 682.291,463.58 679.631,464.902C679.218,465.108 678.792,465.291 678.355,465.449C677.764,465.663 677.155,465.831 676.534,465.948C675.815,466.084 675.083,466.153 674.349,466.137C673.369,466.116 672.396,465.947 671.472,465.643C670.237,465.237 669.104,464.591 668.107,463.8C666.579,462.588 665.371,461.054 664.367,459.441C663.623,458.246 662.984,456.996 662.41,455.722C661.769,454.297 661.209,452.84 660.7,451.37C659.816,448.814 659.085,446.211 658.433,443.596C657.714,440.713 657.095,437.81 656.533,434.897C655.106,427.496 654.045,420.037 653.092,412.571C651.959,403.688 651.04,394.782 650.158,385.875C649.716,381.41 649.295,376.942 648.877,372.474C648.245,365.714 647.62,358.949 646.978,352.198L646.979,352.201C646.908,351.459 646.836,350.716 646.765,349.974C646.765,349.973 646.766,349.979 646.766,349.978C646.694,349.238 646.623,348.499 646.551,347.759C646.551,347.758 646.551,347.765 646.551,347.763C646.479,347.027 646.407,346.291 646.335,345.554C646.335,345.553 646.336,345.561 646.336,345.559C646.263,344.826 646.19,344.094 646.118,343.361L646.118,343.366C646.045,342.638 645.972,341.909 645.899,341.18C645.898,341.178 645.899,341.188 645.899,341.186C645.607,338.324 645.308,335.463 645.001,332.603C645.001,332.601 645.002,332.612 645.001,332.61C644.886,331.556 644.886,331.557 644.77,330.504C644.77,330.502 644.771,330.51 644.771,330.509C644.732,330.159 644.693,329.81 644.654,329.46C644.654,329.459 644.655,329.467 644.654,329.465C644.615,329.117 644.576,328.77 644.537,328.422C644.537,328.42 644.537,328.429 644.537,328.427C644.498,328.081 644.458,327.734 644.419,327.388C644.419,327.386 644.42,327.395 644.419,327.394C644.38,327.049 644.34,326.705 644.3,326.36L644.301,326.366C644.181,325.342 644.181,325.343 644.06,324.32C644.06,324.318 644.061,324.328 644.061,324.326C644.02,323.987 643.98,323.648 643.939,323.309C643.939,323.307 643.94,323.317 643.94,323.315C643.899,322.978 643.858,322.64 643.817,322.303C643.817,322.301 643.818,322.312 643.818,322.309C643.777,321.974 643.735,321.639 643.694,321.303L643.695,321.31C643.612,320.647 643.529,319.985 643.445,319.323C643.445,319.32 643.447,319.332 643.446,319.33C643.404,319 643.362,318.671 643.32,318.342C643.319,318.339 643.321,318.352 643.321,318.349C643.278,318.022 643.235,317.695 643.193,317.368C643.193,317.365 643.194,317.378 643.194,317.375C643.151,317.05 643.108,316.725 643.065,316.4L643.066,316.408C643.023,316.085 642.98,315.762 642.936,315.44C642.936,315.437 642.938,315.451 642.938,315.448C642.851,314.812 642.764,314.176 642.676,313.54C642.675,313.537 642.677,313.551 642.677,313.548C642.633,313.233 642.588,312.917 642.544,312.601L642.545,312.61C642.456,311.988 642.367,311.367 642.277,310.745C642.276,310.742 642.279,310.758 642.278,310.755C642.233,310.446 642.187,310.138 642.142,309.829C642.141,309.826 642.143,309.842 642.143,309.839C642.097,309.533 642.051,309.227 642.005,308.921L642.007,308.931C641.869,308.029 641.869,308.03 641.728,307.129C641.728,307.125 641.731,307.144 641.73,307.14C641.683,306.842 641.636,306.544 641.588,306.245C641.588,306.241 641.591,306.261 641.59,306.257C641.543,305.961 641.495,305.666 641.447,305.37L641.449,305.382C641.401,305.09 641.353,304.797 641.305,304.504C641.304,304.5 641.307,304.521 641.307,304.517C641.258,304.227 641.209,303.937 641.161,303.647C641.16,303.642 641.164,303.664 641.163,303.66C640.972,302.542 640.775,301.425 640.572,300.309C640.571,300.304 640.576,300.329 640.575,300.324C640.475,299.782 640.373,299.239 640.27,298.697C640.269,298.692 640.274,298.719 640.273,298.713C640.221,298.445 640.169,298.176 640.117,297.907L640.12,297.923C639.966,297.143 639.966,297.143 639.808,296.364C639.757,296.114 639.706,295.864 639.653,295.614C639.601,295.364 639.44,294.616 639.495,294.865C639.335,294.131 639.173,293.397 639.006,292.664L639.011,292.686C638.902,292.217 638.791,291.749 638.679,291.281C638.569,290.83 638.457,290.38 638.344,289.93C638.176,289.281 638.005,288.633 637.827,287.986L637.831,288C637.801,287.892 637.771,287.783 637.74,287.674C637.739,287.67 637.746,287.694 637.744,287.689C637.685,287.48 637.625,287.27 637.566,287.061C637.564,287.056 637.571,287.081 637.57,287.076C637.539,286.971 637.508,286.865 637.478,286.759C637.476,286.754 637.484,286.78 637.482,286.775C637.451,286.67 637.42,286.565 637.389,286.461C637.388,286.455 637.396,286.482 637.394,286.477C637.363,286.373 637.332,286.269 637.301,286.165L637.306,286.182C637.215,285.883 637.215,285.883 637.123,285.585C637.121,285.579 637.13,285.608 637.128,285.602C637.096,285.501 637.065,285.401 637.033,285.3C637.032,285.294 637.041,285.323 637.039,285.317C637.007,285.218 636.976,285.119 636.944,285.02C636.884,284.835 636.824,284.65 636.763,284.465C636.761,284.459 636.772,284.49 636.77,284.484C636.738,284.389 636.706,284.294 636.674,284.199C636.644,284.108 636.613,284.017 636.582,283.926C636.58,283.92 636.586,283.939 636.588,283.946C636.526,283.764 636.463,283.583 636.399,283.401C636.397,283.395 636.409,283.429 636.407,283.422C636.171,282.76 635.923,282.103 635.661,281.45C635.657,281.442 635.674,281.483 635.671,281.475C635.575,281.244 635.479,281.012 635.381,280.782L635.392,280.809C635.269,280.524 635.143,280.24 635.012,279.958C634.894,279.706 634.773,279.455 634.648,279.206C634.193,278.315 633.696,277.433 633.063,276.64C632.885,276.418 632.696,276.203 632.488,276.005C632.331,275.856 632.162,275.71 631.968,275.605C631.949,275.596 631.95,275.596 631.931,275.587C631.92,275.582 631.92,275.585 631.906,275.586C631.883,275.587 631.861,275.588 631.838,275.589C631.793,275.592 631.748,275.596 631.704,275.6C631.47,275.624 631.24,275.675 631.019,275.751C630.621,275.887 630.257,276.098 629.925,276.341C629.415,276.714 628.972,277.163 628.57,277.636C628.126,278.159 627.732,278.719 627.369,279.294C626.803,280.192 626.319,281.131 625.872,282.085C625.868,282.093 625.888,282.051 625.884,282.059C625.423,283.064 625.007,284.085 624.623,285.118C624.621,285.124 624.633,285.091 624.63,285.098C624.57,285.263 624.51,285.428 624.451,285.593C624.448,285.6 624.459,285.568 624.457,285.574C624.426,285.661 624.396,285.748 624.365,285.835C624.363,285.841 624.373,285.81 624.371,285.817C624.341,285.904 624.31,285.992 624.279,286.079C624.277,286.085 624.288,286.055 624.286,286.061C624.198,286.316 624.112,286.571 624.026,286.827C624.024,286.832 624.034,286.804 624.032,286.809C624.002,286.9 623.972,286.99 623.943,287.081C623.941,287.086 623.95,287.058 623.948,287.064C623.919,287.155 623.889,287.246 623.859,287.337C623.858,287.343 623.866,287.315 623.865,287.321C623.779,287.589 623.779,287.589 623.694,287.857L623.699,287.841C623.615,288.111 623.533,288.382 623.451,288.652C623.289,289.198 623.289,289.198 623.132,289.744C622.863,290.703 622.605,291.664 622.364,292.63C622.053,293.878 621.768,295.13 621.494,296.386L621.498,296.367C621.357,297.026 621.357,297.026 621.219,297.687C621.129,298.128 621.04,298.57 620.952,299.011C620.944,299.053 620.766,299.95 620.82,299.688C620.641,300.618 620.469,301.549 620.301,302.481L620.304,302.467C620.219,302.947 620.135,303.427 620.052,303.908C620.051,303.912 620.055,303.89 620.054,303.895C619.971,304.382 619.89,304.87 619.808,305.358L619.81,305.346C619.77,305.595 619.729,305.843 619.689,306.092C619.688,306.096 619.691,306.076 619.69,306.08C619.65,306.331 619.61,306.581 619.57,306.832C619.569,306.835 619.572,306.817 619.572,306.82C619.453,307.574 619.453,307.574 619.336,308.327L619.338,308.317C619.299,308.572 619.26,308.828 619.221,309.083C619.221,309.087 619.223,309.07 619.223,309.073C619.184,309.33 619.146,309.587 619.107,309.844C619.107,309.847 619.109,309.831 619.109,309.835C619.033,310.35 618.957,310.866 618.882,311.381L618.884,311.373C618.81,311.894 618.736,312.416 618.662,312.938C618.662,312.941 618.664,312.927 618.664,312.93C618.627,313.194 618.59,313.459 618.554,313.723C618.553,313.726 618.555,313.713 618.555,313.715C618.519,313.979 618.413,314.769 618.447,314.506C618.375,315.039 618.304,315.572 618.233,316.106C618.233,316.108 618.234,316.096 618.234,316.099C618.199,316.369 618.163,316.639 618.128,316.908C618.128,316.911 618.129,316.9 618.129,316.902C618.024,317.714 618.024,317.714 617.92,318.526L617.921,318.52C617.766,319.751 617.767,319.751 617.614,320.983C617.614,320.986 617.616,320.969 617.615,320.972C617.548,321.527 617.481,322.082 617.413,322.636L617.414,322.627C617.348,323.186 617.282,323.744 617.215,324.303C617.215,324.306 617.216,324.292 617.216,324.295C617.018,325.983 617.019,325.983 616.824,327.672L616.825,327.666C616.76,328.235 616.696,328.804 616.631,329.373C616.631,329.375 616.632,329.366 616.632,329.368C616.568,329.94 616.504,330.512 616.44,331.084C616.439,331.085 616.44,331.078 616.44,331.079C616.247,332.811 616.058,334.53 615.869,336.264L615.869,336.262C615.36,340.938 614.853,345.614 614.331,350.289C614.242,350.869 614.2,351.455 614.133,352.038C613.999,353.22 613.862,354.402 613.723,355.584C613.417,358.196 613.098,360.806 612.765,363.415C612.08,368.773 611.313,374.122 610.413,379.452C609.62,384.147 608.704,388.828 607.58,393.464C606.546,397.726 605.339,401.961 603.779,406.083C603.019,408.092 602.173,410.074 601.201,412.002C600.437,413.516 599.595,414.998 598.647,416.419C597.091,418.749 595.24,420.936 592.983,422.706C591.375,423.966 589.565,425.002 587.601,425.698C586.155,426.211 584.636,426.536 583.096,426.665C581.807,426.774 580.506,426.746 579.228,426.557C578.341,426.426 577.468,426.219 576.622,425.937C575.948,425.713 575.292,425.442 574.659,425.13C574.182,424.894 573.719,424.635 573.27,424.355C570.249,422.467 567.991,419.696 566.218,416.766C565.895,416.232 565.586,415.691 565.289,415.144C564.889,414.403 564.511,413.652 564.151,412.894C563.079,410.638 562.164,408.318 561.315,405.981C560.261,403.081 559.316,400.147 558.364,397.217L558.365,397.219C558.095,396.39 557.824,395.561 557.553,394.733C557.552,394.73 557.557,394.746 557.556,394.742C557.353,394.128 557.353,394.128 557.149,393.514L557.152,393.523C556.948,392.915 556.948,392.916 556.742,392.308C556.741,392.304 556.748,392.325 556.746,392.321C556.679,392.123 556.476,391.528 556.543,391.727C556.406,391.332 556.269,390.938 556.13,390.545C556.061,390.349 555.99,390.153 555.92,389.957C555.918,389.95 555.925,389.97 555.927,389.976C555.586,389.034 555.234,388.096 554.869,387.161L554.877,387.183C554.767,386.907 554.768,386.908 554.657,386.633C554.655,386.628 554.665,386.653 554.663,386.648C554.625,386.555 554.587,386.462 554.549,386.368C554.547,386.363 554.558,386.389 554.556,386.384C554.447,386.121 554.447,386.121 554.338,385.859C554.195,385.52 554.049,385.181 553.901,384.844C553.789,384.593 553.676,384.342 553.561,384.092C553.558,384.085 553.574,384.121 553.571,384.114C552.865,382.598 552.093,381.104 551.141,379.71C550.507,378.781 549.791,377.884 548.922,377.136C548.284,376.585 547.544,376.113 546.708,375.871C545.788,375.605 544.815,375.647 543.882,375.83C543.142,375.974 542.418,376.194 541.737,376.502C541.148,376.768 540.592,377.098 540.08,377.48C539.317,378.048 538.65,378.722 538.057,379.445C537.172,380.525 536.45,381.709 535.788,382.918C535.784,382.925 535.803,382.89 535.799,382.897C535.671,383.136 535.544,383.375 535.42,383.615C534.894,384.638 534.415,385.681 533.945,386.727L533.952,386.71C533.827,386.991 533.703,387.272 533.579,387.554C533.578,387.558 533.586,387.538 533.584,387.542C533.398,387.971 533.398,387.97 533.212,388.4L533.216,388.39C533.091,388.682 532.966,388.973 532.841,389.265C532.84,389.267 532.844,389.257 532.843,389.259C532.459,390.158 532.074,391.057 531.686,391.955C531.49,392.403 531.293,392.851 531.094,393.298C530.602,394.391 530.099,395.478 529.56,396.551C528.64,398.384 527.624,400.177 526.456,401.883C525.237,403.661 523.844,405.339 522.252,406.838C520.707,408.294 518.977,409.576 517.095,410.63C515.558,411.492 513.924,412.198 512.234,412.752C509.007,413.81 505.596,414.307 502.186,414.419C501.04,414.456 499.893,414.451 498.748,414.409C498.35,414.394 497.952,414.373 497.554,414.353C497.441,414.348 497.328,414.343 497.215,414.338C497.088,414.332 496.707,414.317 496.834,414.322C496.37,414.303 495.906,414.287 495.442,414.27C494.656,414.245 493.869,414.221 493.083,414.198C493.08,414.198 493.095,414.198 493.092,414.198C491.586,414.157 490.081,414.119 488.575,414.083C488.573,414.083 488.582,414.083 488.58,414.083C487.998,414.07 487.416,414.056 486.833,414.043L486.838,414.043C486.219,414.03 485.6,414.016 484.982,414.002C484.981,414.002 484.986,414.003 484.985,414.003C484.332,413.989 483.678,413.975 483.025,413.961C483.024,413.961 483.029,413.961 483.028,413.961C482.342,413.947 481.655,413.933 480.969,413.919C480.968,413.919 480.972,413.919 480.972,413.919C476.261,413.827 471.546,413.742 466.833,413.659L466.835,413.659C463.251,413.598 459.667,413.536 456.082,413.479C454.199,413.449 452.315,413.421 450.432,413.389C442.614,413.255 434.796,413.127 426.975,412.999L426.976,412.999C419.366,412.877 411.755,412.756 404.144,412.636C400.693,412.581 397.242,412.527 393.791,412.47C392.202,412.445 390.613,412.439 389.025,412.393C386.19,412.346 383.354,412.299 380.519,412.249C379.302,412.228 378.086,412.203 376.869,412.184C374.901,412.147 372.933,412.11 370.965,412.067C369.421,412.033 367.876,412.004 366.333,411.936C366.122,411.925 366.123,411.926 365.912,411.912C365.649,411.889 365.384,411.864 365.127,411.8C365.034,411.776 364.947,411.737 364.857,411.705L364.857,411.705L364.438,411.525L364.051,411.29C363.704,411.006 363.704,411.006 363.403,410.679L363.401,410.677C363.309,410.538 363.203,410.405 363.123,410.259C362.8,409.672 362.69,408.991 362.814,408.341C362.896,407.907 362.972,407.813 363.163,407.415L363.164,407.413L365.119,405.981L367.368,406.207C367.291,406.153 367.225,406.079 367.136,406.043C366.888,405.943 366.616,405.899 366.35,405.872C366.507,405.883 366.664,405.886 366.821,405.891C368.235,405.926 369.65,405.94 371.064,405.954C373.033,405.973 374.986,405.985 376.957,405.998L376.954,405.997C381.001,406.019 385.046,406.036 389.099,406.051L389.097,406.051C394.149,406.068 399.198,406.081 404.248,406.094C415.8,406.119 427.352,406.14 438.903,406.162C442.773,406.169 446.642,406.185 450.511,406.185C454.211,406.193 457.921,406.212 461.62,406.228C466.643,406.249 471.665,406.272 476.688,406.304C480.7,406.33 484.712,406.359 488.724,406.399C491.043,406.422 493.362,406.45 495.681,406.498C496.3,406.51 496.92,406.525 497.54,406.544C498.034,406.559 498.527,406.58 499.021,406.593C499.386,406.6 499.385,406.6 499.749,406.604C501.972,406.61 504.197,406.465 506.375,406.034C508.079,405.697 509.747,405.185 511.306,404.453C513.029,403.644 514.597,402.574 515.955,401.293C517.541,399.796 518.825,398.05 519.928,396.217C519.933,396.21 519.91,396.248 519.915,396.24C520.18,395.792 520.438,395.341 520.688,394.885L520.677,394.905C520.751,394.768 520.824,394.631 520.897,394.494C520.9,394.488 520.884,394.518 520.887,394.512C520.993,394.311 520.993,394.312 521.098,394.11C521.201,393.909 521.303,393.707 521.404,393.506C521.744,392.817 522.071,392.124 522.39,391.426L522.38,391.448C522.554,391.058 522.592,390.978 522.761,390.592C522.823,390.45 523.01,390.025 522.947,390.167C523.072,389.875 523.198,389.584 523.322,389.293C523.382,389.151 523.563,388.727 523.501,388.868C524.115,387.4 524.719,385.928 525.337,384.461C525.57,383.916 525.803,383.372 526.043,382.83C527.427,379.723 529.006,376.634 531.25,373.982C532.087,372.992 533.016,372.068 534.042,371.247C534.963,370.509 535.96,369.855 537.021,369.306C538.669,368.451 540.455,367.861 542.299,367.512C543.59,367.267 544.917,367.169 546.232,367.244C547.173,367.298 548.108,367.441 549.017,367.675C549.696,367.85 550.36,368.074 551.002,368.345C551.443,368.531 551.875,368.738 552.293,368.967C552.833,369.265 553.355,369.59 553.854,369.945C556.335,371.712 558.224,374.111 559.745,376.635C560.061,377.16 560.362,377.692 560.651,378.229C560.993,378.864 561.317,379.507 561.627,380.155C562.079,381.099 562.501,382.056 562.903,383.02C563.401,384.217 563.867,385.425 564.314,386.64C564.915,388.279 565.478,389.928 566.031,391.581C566.527,393.076 567.015,394.573 567.504,396.069C567.63,396.455 567.757,396.841 567.883,397.226C567.884,397.229 567.879,397.213 567.88,397.217C568.016,397.629 568.428,398.863 568.289,398.453C568.426,398.863 568.563,399.274 568.701,399.684C568.702,399.688 568.696,399.67 568.698,399.673C568.767,399.879 568.837,400.085 568.907,400.291C568.909,400.295 568.902,400.274 568.903,400.278C568.973,400.483 569.043,400.688 569.114,400.893L569.109,400.88C569.318,401.483 569.319,401.482 569.53,402.085C569.532,402.091 569.522,402.062 569.524,402.068C569.665,402.464 569.808,402.861 569.951,403.256L569.943,403.236C570.326,404.276 570.72,405.311 571.135,406.34C571.137,406.345 571.127,406.32 571.129,406.325C571.168,406.42 571.206,406.515 571.245,406.61C571.247,406.615 571.237,406.589 571.239,406.594C571.495,407.212 571.758,407.826 572.031,408.438C572.034,408.444 572.019,408.412 572.022,408.418C572.063,408.509 572.104,408.599 572.146,408.69C572.149,408.696 572.133,408.663 572.136,408.67C572.505,409.471 572.889,410.267 573.306,411.048C573.575,411.551 573.856,412.048 574.152,412.536C574.39,412.927 574.638,413.312 574.898,413.69C575.136,414.036 575.385,414.375 575.646,414.705C575.804,414.904 575.967,415.1 576.135,415.292C577.084,416.372 578.242,417.388 579.675,417.862C579.891,417.933 580.113,417.992 580.338,418.038C580.927,418.157 581.532,418.18 582.132,418.138C582.803,418.091 583.468,417.966 584.106,417.761C585.003,417.473 585.836,417.033 586.594,416.5C587.754,415.685 588.742,414.668 589.612,413.586C590.976,411.887 592.059,410.008 593.019,408.086L593.008,408.109C593.089,407.944 593.169,407.78 593.249,407.615C593.252,407.607 593.235,407.644 593.238,407.637C593.315,407.474 593.393,407.312 593.469,407.149C593.547,406.98 593.625,406.811 593.702,406.642C593.705,406.635 593.689,406.67 593.692,406.663C593.77,406.49 593.847,406.316 593.924,406.142C593.999,405.972 594.072,405.802 594.146,405.631C594.149,405.624 594.135,405.657 594.137,405.65C594.251,405.383 594.363,405.116 594.474,404.848L594.466,404.866C594.651,404.411 594.832,403.955 595.009,403.497L595.002,403.514C595.039,403.416 595.077,403.318 595.114,403.22C595.116,403.214 595.105,403.242 595.108,403.237C595.216,402.948 595.216,402.948 595.323,402.659C595.325,402.654 595.315,402.681 595.317,402.676C595.354,402.576 595.39,402.476 595.426,402.376C595.428,402.37 595.423,402.386 595.421,402.392C595.526,402.099 595.631,401.806 595.734,401.512C595.736,401.507 595.727,401.533 595.728,401.528C595.831,401.232 595.831,401.232 595.932,400.936C596.069,400.535 596.202,400.132 596.333,399.729C596.335,399.724 596.327,399.748 596.329,399.743C596.396,399.535 596.462,399.327 596.529,399.118L596.524,399.132C596.621,398.822 596.717,398.511 596.813,398.2C596.94,397.776 597.066,397.352 597.191,396.927C597.702,395.146 598.172,393.356 598.611,391.558C598.613,391.551 598.605,391.584 598.606,391.578C598.664,391.338 598.721,391.098 598.779,390.858L598.774,390.877C598.885,390.404 598.995,389.93 599.103,389.455C599.212,388.97 599.32,388.484 599.427,387.998C599.428,387.992 599.422,388.02 599.423,388.015C599.477,387.766 599.53,387.517 599.584,387.268L599.58,387.284C599.633,387.034 599.686,386.783 599.739,386.532C599.74,386.527 599.734,386.553 599.736,386.548C599.891,385.796 599.891,385.797 600.043,385.044L600.04,385.059C600.141,384.553 600.241,384.048 600.339,383.541C600.387,383.29 600.529,382.534 600.483,382.786C600.58,382.269 600.676,381.751 600.771,381.233C600.772,381.228 600.768,381.25 600.769,381.246C600.911,380.46 600.911,380.46 601.05,379.674L601.048,379.686C601.186,378.892 601.322,378.097 601.455,377.302C601.456,377.299 601.453,377.317 601.453,377.314C601.498,377.044 601.543,376.773 601.587,376.503L601.585,376.514C601.673,375.974 601.76,375.434 601.846,374.893C601.847,374.89 601.844,374.907 601.845,374.903C601.887,374.633 602.009,373.821 601.972,374.092C602.142,372.996 602.307,371.899 602.469,370.802L602.467,370.811C602.669,369.417 602.866,368.023 603.057,366.629L603.056,366.636C603.094,366.353 603.133,366.069 603.171,365.785C603.171,365.783 603.17,365.795 603.17,365.792C603.283,364.947 603.283,364.948 603.394,364.103C603.431,363.817 603.541,362.961 603.506,363.246C603.616,362.389 603.725,361.532 603.832,360.674C603.832,360.672 603.831,360.682 603.831,360.68C603.867,360.391 603.903,360.103 603.939,359.815C603.939,359.812 603.938,359.825 603.938,359.823C604.15,358.089 604.358,356.355 604.562,354.621L604.561,354.629C604.763,352.881 604.962,351.134 605.159,349.386C605.159,349.384 605.158,349.393 605.158,349.391C605.223,348.806 605.288,348.221 605.353,347.635L605.353,347.639C605.993,341.832 606.612,336.017 607.253,330.204C607.448,328.458 607.645,326.712 607.844,324.967C608.447,319.789 609.08,314.614 609.83,309.453C610.344,305.918 610.91,302.389 611.574,298.876C612.134,295.909 612.764,292.953 613.514,290.023C614.181,287.416 614.942,284.827 615.876,282.293C616.583,280.377 617.389,278.489 618.363,276.677C619.201,275.118 620.169,273.61 621.331,272.242C622.187,271.234 623.151,270.302 624.236,269.508C625.679,268.454 627.337,267.659 629.118,267.249C629.897,267.07 630.696,266.963 631.498,266.93C632.574,266.886 633.646,267.006 634.675,267.309C635.577,267.575 636.431,267.972 637.215,268.466C638.481,269.264 639.555,270.307 640.467,271.448C641.643,272.921 642.572,274.56 643.368,276.238C644.245,278.087 644.966,279.998 645.605,281.93C646.337,284.141 646.958,286.385 647.518,288.64C648.155,291.202 648.709,293.782 649.215,296.37C649.775,299.234 650.273,302.108 650.733,304.987C651.871,312.102 652.779,319.249 653.598,326.401C654.555,334.751 655.381,343.113 656.182,351.477C656.819,358.197 657.44,364.918 658.066,371.639C658.138,372.402 658.209,373.165 658.281,373.928C658.281,373.928 658.28,373.925 658.28,373.926C658.905,380.555 659.547,387.2 660.233,393.832L660.232,393.825C660.308,394.545 660.383,395.265 660.459,395.986C660.46,395.988 660.458,395.975 660.458,395.978C660.574,397.055 660.689,398.132 660.807,399.21ZM368.615,407.461L368.586,407.067L367.827,406.531C368.09,406.841 368.352,407.151 368.615,407.461Z" style="fill:black;fill-opacity:0.913726;fill-rule:nonzero;"/>
            </g>
        </g>
    </g>
</svg>
