<?xml version="1.0" encoding="UTF-8" standalone="no"?>
<!DOCTYPE svg PUBLIC "-//W3C//DTD SVG 1.1//EN" "http://www.w3.org/Graphics/SVG/1.1/DTD/svg11.dtd">
<svg width="100%" height="100%" viewBox="0 0 299 205" version="1.1" xmlns="http://www.w3.org/2000/svg" xmlns:xlink="http://www.w3.org/1999/xlink" xml:space="preserve" style="fill-rule:evenodd;clip-rule:evenodd;stroke-linejoin:round;stroke-miterlimit:1.41421;">
    <g transform="matrix(1,0,0,1,-505.39,-175.917)">
        <g transform="matrix(0.859361,0,0,0.859361,113.439,-50.1785)">
            <clipPath id="_clip1">
                <path d="M633.129,370.81L626.387,366.725L634.206,364.639L641.513,369.065L633.129,370.81ZM801.21,263.099C780.668,300.531 733.053,323.218 695.705,330.592C686.748,359.61 672.709,384.621 649.556,393.495L647.665,376.648L655.388,373.413L661.677,374.911L657.674,362.404L645.664,362.404L643.089,355.803L615.923,355.803L609.095,392.666C587.152,383.135 573.683,358.745 564.991,330.591C527.644,323.218 480.028,300.531 459.486,263.097C456.469,273.89 455.586,284.44 456.363,294.65C470.417,313.627 489.892,328.604 508.04,331.158C493.775,332.442 477.867,330.264 462.933,323.105C466.205,331.591 470.513,339.71 475.556,347.39C489.605,353.092 505.419,355.607 527.181,351.01C515.072,359.347 501.618,363.448 488.619,364.598C494.331,371.194 500.482,377.335 506.826,382.954C516.309,383.713 526.237,381.562 535.73,373.413C532.386,380.809 527.287,388.689 519.923,393.653C524.231,396.895 528.541,399.9 532.78,402.621C534.786,403.908 536.768,405.204 538.749,406.501C548.338,404.195 553.263,398.307 556.614,392.489C557.605,399.702 554.401,407.806 548.638,413.084C557.587,419.155 566.205,425.303 574.36,431.464C576.064,432.751 577.747,434.039 579.409,435.327C600.759,451.868 618.581,468.41 630.348,483.726C647.417,461.511 677.223,436.717 712.058,413.084C706.295,407.806 703.091,399.702 704.082,392.49C707.433,398.307 712.358,404.196 721.947,406.503C723.929,405.204 725.911,403.908 727.917,402.621C732.156,399.901 736.466,396.896 740.773,393.653C733.41,388.689 728.31,380.811 724.966,373.413C734.46,381.563 744.388,383.714 753.871,382.954C760.214,377.335 766.366,371.195 772.078,364.598C759.079,363.448 745.625,359.347 733.515,351.01C755.277,355.607 771.092,353.094 785.14,347.39C790.183,339.71 794.491,331.591 797.763,323.106C782.829,330.266 766.922,332.444 752.656,331.16C770.804,328.604 790.279,313.628 804.333,294.65C805.11,284.442 804.227,273.891 801.21,263.099" clip-rule="nonzero"/>
            </clipPath>
            <g clip-path="url(#_clip1)">
                <g transform="matrix(0.480328,0,0,1.16498,182.089,-18.1066)">
                    <rect x="539.257" y="325.197" width="45.66" height="343.68" style="fill:black;"/>
                </g>
                <g transform="matrix(0.480328,0,0,1.16498,210.441,-19.4759)">
                    <rect x="539.257" y="325.197" width="45.66" height="343.68" style="fill:black;"/>
                </g>
                <g transform="matrix(0.480328,0,0,1.16498,239.193,-15.0729)">
                    <rect x="539.257" y="325.197" width="45.66" height="343.68" style="fill:black;"/>
                </g>
                <g transform="matrix(0.480328,0,0,1.16498,265.226,-15.2729)">
                    <rect x="539.257" y="325.197" width="45.66" height="343.68" style="fill:black;"/>
                </g>
                <g transform="matrix(0.480328,0,0,1.16498,291.34,-19.7522)">
                    <rect x="539.257" y="325.197" width="45.66" height="343.68" style="fill:black;"/>
                </g>
                <g transform="matrix(0.480328,0,0,1.16498,317.394,-19.7522)">
                    <rect x="539.257" y="325.197" width="45.66" height="343.68" style="fill:black;"/>
                </g>
                <g transform="matrix(0.48303,0,0,1.16067,342.485,-14.0694)">
                    <rect x="539.257" y="325.197" width="45.66" height="343.68" style="fill:black;"/>
                </g>
                <g transform="matrix(1.16366,0,0,1.16366,-175.799,-13.7614)">
                    <path d="M333.571,325.197C333.571,325.197 334.221,226.452 436.645,222.102L436.645,222.102C539.068,226.452 539.718,325.197 539.718,325.197" style="fill:none;stroke-width:19px;stroke:black;"/>
                </g>
                <g transform="matrix(1.42861,0,0,1.39096,-288.537,-88.6266)">
                    <path d="M333.571,325.197C333.571,325.197 334.221,226.452 436.645,222.102L436.645,222.102C539.068,226.452 539.718,325.197 539.718,325.197" style="fill:none;stroke-width:15.68px;stroke:black;"/>
                </g>
                <g transform="matrix(1.70512,0,0,1.63669,-411.184,-167.845)">
                    <path d="M333.571,325.197C333.571,325.197 334.221,226.452 436.645,222.102L436.645,222.102C539.068,226.452 539.718,325.197 539.718,325.197" style="fill:none;stroke-width:13.23px;stroke:black;"/>
                </g>
                <g transform="matrix(1.9593,0,0,1.90572,-522.342,-255.078)">
                    <path d="M333.571,325.197C333.571,325.197 334.221,226.452 436.645,222.102L436.645,222.102C539.068,226.452 539.718,325.197 539.718,325.197" style="fill:none;stroke-width:11.44px;stroke:black;"/>
                </g>
                <g transform="matrix(2.21304,0,0,2.17052,-633.138,-341.192)">
                    <path d="M333.571,325.197C333.571,325.197 334.221,226.452 436.645,222.102L436.645,222.102C539.068,226.452 539.718,325.197 539.718,325.197" style="fill:none;stroke-width:10.09px;stroke:black;"/>
                </g>
                <g transform="matrix(2.46625,0,0,2.44325,-743.701,-429.881)">
                    <path d="M333.571,325.197C333.571,325.197 334.221,226.452 436.645,222.102L436.645,222.102C539.068,226.452 539.718,325.197 539.718,325.197" style="fill:none;stroke-width:9.01px;stroke:black;"/>
                </g>
                <g transform="matrix(2.72451,0,0,2.68987,-856.466,-510.082)">
                    <path d="M333.571,325.197C333.571,325.197 334.221,226.452 436.645,222.102L436.645,222.102C539.068,226.452 539.718,325.197 539.718,325.197" style="fill:none;stroke-width:8.17px;stroke:black;"/>
                </g>
            </g>
        </g>
        <g transform="matrix(0.292714,0,0,0.323995,460.947,8.81772)">
            <clipPath id="_clip2">
                <rect x="661.575" y="536.564" width="511.575" height="533.154"/>
            </clipPath>
            <g clip-path="url(#_clip2)">
                <path d="M669.739,796.854L649.947,786.983L672.901,781.941L694.354,792.638L669.739,796.854ZM1163.2,536.568C1102.89,627.024 963.1,681.848 853.453,699.666C827.157,769.789 785.94,830.228 717.965,851.673L712.414,810.962L735.087,803.145L753.552,806.765L741.8,776.541L706.539,776.541L698.981,760.589L619.225,760.589L599.18,849.67C534.757,826.637 495.215,767.699 469.697,699.663C360.051,681.848 220.26,627.024 159.951,536.564C151.094,562.644 148.503,588.139 150.784,612.812C192.044,658.669 249.22,694.862 302.499,701.034C260.618,704.138 213.916,698.875 170.071,681.573C179.678,702.081 192.325,721.7 207.131,740.258C248.376,754.039 294.804,760.116 358.694,749.007C323.143,769.153 283.644,779.064 245.481,781.843C262.25,797.781 280.309,812.623 298.933,826.2C326.774,828.034 355.922,822.836 383.792,803.145C373.975,821.017 359.004,840.059 337.385,852.056C350.032,859.888 362.685,867.15 375.13,873.726C381.02,876.836 386.838,879.969 392.656,883.102C420.807,877.53 435.266,863.302 445.104,849.241C448.013,866.673 438.608,886.256 421.688,899.011C447.962,913.681 473.261,928.538 497.202,943.426C502.205,946.537 507.148,949.649 512.028,952.761C574.707,992.734 627.029,1032.71 661.575,1069.72C711.685,1016.03 799.193,956.12 901.463,899.011C884.543,886.256 875.137,866.673 878.046,849.245C887.885,863.302 902.343,877.533 930.495,883.106C936.313,879.969 942.131,876.836 948.02,873.726C960.466,867.153 973.119,859.892 985.765,852.056C964.147,840.059 949.176,821.021 939.359,803.145C967.229,822.84 996.377,828.037 1024.22,826.2C1042.84,812.623 1060.9,797.785 1077.67,781.843C1039.51,779.064 1000.01,769.153 964.457,749.007C1028.35,760.116 1074.78,754.042 1116.02,740.258C1130.83,721.7 1143.47,702.081 1153.08,681.577C1109.24,698.879 1062.53,704.142 1020.65,701.038C1073.93,694.862 1131.11,658.673 1172.37,612.812C1174.65,588.143 1172.06,562.647 1163.2,536.568" style="fill:black;fill-rule:nonzero;"/>
            </g>
        </g>
        <g transform="matrix(0.729372,0,0,-0.911381,362.263,688.061)">
            <path d="M457.054,433.951C440.036,420.214 418.752,436.776 394.904,433.951C375.065,436.176 356.999,419.784 335.6,433.951L343.525,366.109L375.116,341.479L416.156,341.771L446.566,366.011L457.054,433.951Z" style="fill:black;"/>
            <path d="M460.551,436.47L449.497,364.863L417.441,339.311L373.873,339.002L340.56,364.975L332.208,436.463L334.897,437.606L337.798,435.701L338.03,435.551L338.261,435.404L338.491,435.26L338.721,435.118L338.95,434.979L339.179,434.843L339.407,434.709L339.635,434.578L339.862,434.45L340.089,434.324L340.315,434.201L340.54,434.08L340.765,433.962L340.989,433.846L341.213,433.733L341.436,433.622L341.659,433.513L341.881,433.407L342.103,433.303L342.324,433.202L342.544,433.103L342.764,433.006L342.984,432.911L343.203,432.819L343.422,432.729L343.64,432.641L343.858,432.555L344.075,432.472L344.292,432.39L344.508,432.311L344.724,432.233L344.94,432.158L345.155,432.085L345.37,432.014L345.584,431.945L345.798,431.878L346.012,431.812L346.225,431.749L346.438,431.688L346.65,431.628L346.863,431.571L347.075,431.515L347.286,431.461L347.498,431.409L347.709,431.358L347.92,431.31L348.131,431.263L348.341,431.218L348.551,431.175L348.761,431.133L348.971,431.093L349.181,431.055L349.39,431.018L349.599,430.983L349.809,430.949L350.018,430.918L350.227,430.887L350.435,430.859L350.644,430.831L350.853,430.806L351.061,430.782L351.27,430.759L351.478,430.738L351.687,430.718L351.895,430.7L352.104,430.683L352.312,430.668L352.52,430.654L352.729,430.642L352.937,430.63L353.146,430.621L353.354,430.612L353.563,430.605L353.771,430.599L353.98,430.595L354.189,430.592L354.398,430.59L354.607,430.59L354.816,430.59L355.025,430.592L355.234,430.596L355.444,430.6L355.653,430.606L355.863,430.613L356.073,430.621L356.282,430.63L356.493,430.64L356.703,430.652L356.913,430.665L357.124,430.679L357.334,430.693L357.545,430.71L357.756,430.727L357.967,430.745L358.179,430.764L358.39,430.784L358.602,430.806L358.814,430.828L359.026,430.852L359.238,430.876L359.451,430.901L359.664,430.928L359.876,430.955L360.09,430.983L360.303,431.012L360.516,431.042L360.73,431.073L360.944,431.105L361.158,431.138L361.372,431.172L361.583,431.205L362.017,431.277L362.447,431.352L362.878,431.429L363.311,431.51L363.744,431.593L364.178,431.68L364.612,431.768L365.048,431.859L365.484,431.953L365.922,432.049L366.36,432.147L366.799,432.246L367.239,432.348L367.68,432.451L368.122,432.556L368.565,432.663L369.009,432.77L369.452,432.879L370.346,433.1L371.242,433.324L372.142,433.549L373.046,433.776L373.955,434.002L374.865,434.226L375.325,434.338L375.784,434.449L376.244,434.558L376.706,434.667L377.169,434.774L377.633,434.88L378.098,434.984L378.564,435.087L379.032,435.188L379.501,435.287L379.972,435.383L380.444,435.478L380.917,435.57L381.392,435.659L381.868,435.745L382.346,435.829L382.822,435.909L383.066,435.948L383.306,435.986L383.547,436.023L383.789,436.06L384.03,436.095L384.273,436.13L384.515,436.163L384.758,436.196L385.001,436.227L385.245,436.258L385.489,436.288L385.734,436.316L385.979,436.344L386.225,436.37L386.47,436.395L386.717,436.419L386.964,436.442L387.211,436.464L387.458,436.484L387.706,436.503L387.954,436.521L388.203,436.538L388.452,436.554L388.702,436.568L388.952,436.58L389.203,436.592L389.454,436.602L389.705,436.61L389.957,436.617L390.209,436.623L390.461,436.627L390.714,436.63L390.967,436.631L391.221,436.631L391.475,436.629L391.73,436.625L391.985,436.62L392.24,436.613L392.496,436.605L392.752,436.595L393.008,436.583L393.265,436.569L393.522,436.554L393.78,436.537L394.038,436.518L394.296,436.497L394.554,436.475L394.813,436.45L394.885,436.443L394.891,436.444L394.895,436.444L395.057,436.461L395.359,436.492L395.66,436.522L395.962,436.549L396.262,436.574L396.563,436.598L396.863,436.62L397.162,436.64L397.461,436.659L397.76,436.675L398.058,436.69L398.356,436.703L398.654,436.715L398.951,436.725L399.247,436.733L399.543,436.74L399.839,436.745L400.134,436.749L400.429,436.751L400.724,436.751L401.017,436.75L401.311,436.748L401.604,436.744L401.896,436.738L402.188,436.732L402.48,436.723L402.771,436.714L403.061,436.703L403.351,436.69L403.641,436.677L403.93,436.662L404.219,436.646L404.507,436.628L404.794,436.61L405.081,436.59L405.368,436.569L405.654,436.547L405.94,436.523L406.225,436.499L406.51,436.473L406.794,436.447L407.077,436.419L407.36,436.39L407.643,436.361L407.925,436.33L408.207,436.298L408.488,436.265L408.768,436.232L409.048,436.197L409.328,436.162L409.607,436.125L409.885,436.088L410.163,436.05L410.441,436.011L410.72,435.971L411.27,435.89L411.82,435.805L412.369,435.718L412.915,435.628L413.459,435.535L414.001,435.44L414.541,435.343L415.079,435.244L415.615,435.143L416.149,435.04L416.68,434.936L417.21,434.83L417.738,434.724L418.263,434.616L418.787,434.507L419.308,434.397L419.827,434.286L420.346,434.175L421.372,433.953L422.392,433.729L423.403,433.507L424.405,433.287L425.398,433.07L426.385,432.857L426.873,432.752L427.359,432.649L427.844,432.548L428.326,432.449L428.806,432.351L429.283,432.255L429.758,432.162L430.231,432.071L430.701,431.982L431.169,431.896L431.634,431.813L432.097,431.732L432.557,431.654L433.015,431.58L433.47,431.509L433.923,431.441L434.376,431.375L434.597,431.345L434.82,431.315L435.043,431.286L435.265,431.258L435.486,431.23L435.707,431.204L435.927,431.179L436.146,431.155L436.364,431.131L436.582,431.109L436.799,431.088L437.016,431.067L437.231,431.048L437.446,431.03L437.661,431.013L437.874,430.997L438.087,430.983L438.299,430.969L438.511,430.956L438.721,430.945L438.931,430.935L439.141,430.926L439.349,430.918L439.557,430.911L439.764,430.906L439.971,430.901L440.176,430.898L440.381,430.896L440.586,430.896L440.789,430.896L440.992,430.898L441.194,430.902L441.395,430.906L441.596,430.912L441.796,430.919L441.996,430.928L442.194,430.937L442.392,430.949L442.589,430.961L442.786,430.975L442.982,430.99L443.177,431.007L443.371,431.025L443.565,431.044L443.759,431.065L443.951,431.087L444.143,431.111L444.335,431.136L444.526,431.163L444.716,431.191L444.906,431.221L445.095,431.252L445.283,431.285L445.471,431.319L445.659,431.354L445.846,431.392L446.032,431.431L446.218,431.471L446.404,431.513L446.589,431.557L446.773,431.602L446.957,431.649L447.141,431.698L447.325,431.748L447.508,431.8L447.69,431.854L447.873,431.909L448.055,431.967L448.236,432.026L448.418,432.087L448.599,432.149L448.78,432.214L448.96,432.28L449.141,432.349L449.321,432.419L449.501,432.491L449.681,432.565L449.86,432.641L450.04,432.719L450.219,432.8L450.398,432.882L450.577,432.966L450.756,433.053L450.935,433.141L451.114,433.232L451.293,433.325L451.472,433.42L451.65,433.518L451.829,433.618L452.007,433.72L452.186,433.824L452.364,433.931L452.543,434.04L452.721,434.152L452.9,434.266L453.078,434.382L453.257,434.501L453.435,434.623L453.614,434.747L453.792,434.873L453.971,435.003L454.149,435.135L454.328,435.269L454.506,435.407L454.685,435.547L457.387,437.707L460.551,436.47ZM400.462,431.813L400.207,431.811L399.952,431.808L399.697,431.804L399.442,431.798L399.188,431.791L398.933,431.783L398.677,431.773L398.422,431.761L398.167,431.748L397.912,431.734L397.657,431.719L397.401,431.701L397.146,431.683L396.89,431.662L396.635,431.641L396.379,431.618L396.123,431.593L395.867,431.566L395.611,431.538L394.917,431.458L394.27,431.529L394.065,431.549L393.86,431.569L393.654,431.587L393.449,431.603L393.244,431.618L393.038,431.632L392.833,431.644L392.627,431.655L392.422,431.664L392.216,431.672L392.01,431.679L391.804,431.685L391.598,431.689L391.392,431.692L391.186,431.693L390.98,431.694L390.773,431.693L390.566,431.69L390.36,431.687L390.153,431.682L389.946,431.677L389.738,431.669L389.531,431.661L389.323,431.652L389.115,431.641L388.907,431.629L388.699,431.617L388.491,431.603L388.282,431.587L388.073,431.571L387.864,431.554L387.655,431.536L387.446,431.516L387.236,431.496L387.026,431.474L386.816,431.452L386.606,431.428L386.395,431.404L386.184,431.378L385.973,431.352L385.762,431.324L385.551,431.296L385.339,431.266L385.127,431.236L384.915,431.205L384.702,431.173L384.49,431.14L384.277,431.107L384.067,431.073L383.636,431L383.208,430.926L382.779,430.848L382.349,430.767L381.919,430.683L381.487,430.597L381.054,430.508L380.62,430.417L380.185,430.323L379.749,430.227L379.312,430.129L378.874,430.029L378.435,429.927L377.995,429.824L377.553,429.718L377.111,429.612L376.67,429.504L375.778,429.285L374.884,429.062L373.986,428.837L373.083,428.611L372.176,428.385L371.265,428.159L370.806,428.047L370.347,427.936L369.887,427.825L369.425,427.715L368.962,427.607L368.498,427.5L368.032,427.394L367.565,427.289L367.096,427.187L366.626,427.086L366.155,426.988L365.682,426.891L365.208,426.797L364.732,426.705L364.255,426.616L363.776,426.53L363.295,426.447L362.817,426.367L362.572,426.328L362.33,426.29L362.087,426.253L361.844,426.217L361.601,426.182L361.357,426.147L361.113,426.114L360.868,426.082L360.623,426.05L360.378,426.02L360.132,425.99L359.885,425.962L359.639,425.935L359.391,425.909L359.144,425.884L358.896,425.86L358.647,425.837L358.398,425.816L358.149,425.796L357.899,425.777L357.649,425.759L357.398,425.742L357.147,425.727L356.895,425.713L356.643,425.701L356.39,425.69L356.137,425.68L355.884,425.672L355.63,425.665L355.376,425.659L355.121,425.655L354.866,425.653L354.611,425.652L354.355,425.653L354.098,425.655L353.842,425.659L353.585,425.664L353.327,425.671L353.069,425.68L352.811,425.69L352.552,425.702L352.293,425.716L352.033,425.732L351.773,425.749L351.513,425.768L351.252,425.789L350.991,425.812L350.73,425.837L350.468,425.863L350.206,425.892L349.944,425.922L349.681,425.954L349.418,425.989L349.155,426.025L348.891,426.063L348.628,426.103L348.363,426.145L348.099,426.19L347.834,426.236L347.569,426.284L347.304,426.335L347.039,426.388L346.773,426.442L346.507,426.499L346.241,426.558L345.975,426.62L345.709,426.683L345.442,426.749L345.175,426.817L344.909,426.887L344.641,426.96L344.374,427.034L344.107,427.111L343.839,427.191L343.572,427.273L343.304,427.357L343.036,427.443L342.768,427.532L342.5,427.623L342.232,427.717L341.964,427.812L341.696,427.911L341.427,428.012L341.159,428.115L340.891,428.221L340.622,428.329L340.354,428.44L340.085,428.553L339.816,428.668L339.548,428.787L339.288,428.903L346.491,367.244L376.359,343.957L414.87,344.23L443.635,367.159L453.093,428.429L453.019,428.396L452.779,428.291L452.538,428.189L452.296,428.089L452.054,427.992L451.811,427.897L451.568,427.805L451.324,427.716L451.08,427.629L450.835,427.544L450.59,427.462L450.345,427.382L450.098,427.304L449.852,427.229L449.605,427.157L449.358,427.086L449.111,427.018L448.863,426.953L448.614,426.889L448.366,426.828L448.117,426.77L447.868,426.713L447.619,426.659L447.369,426.607L447.119,426.557L446.869,426.51L446.619,426.464L446.369,426.421L446.118,426.379L445.867,426.34L445.617,426.303L445.366,426.268L445.115,426.235L444.864,426.204L444.612,426.175L444.361,426.148L444.11,426.123L443.858,426.099L443.607,426.078L443.355,426.058L443.104,426.041L442.852,426.025L442.6,426.011L442.349,425.998L442.097,425.987L441.846,425.978L441.594,425.971L441.342,425.965L441.091,425.961L440.839,425.959L440.588,425.958L440.336,425.959L440.085,425.961L439.834,425.965L439.582,425.97L439.331,425.977L439.079,425.985L438.828,425.994L438.577,426.005L438.326,426.017L438.075,426.031L437.824,426.046L437.573,426.062L437.322,426.08L437.071,426.098L436.82,426.118L436.569,426.139L436.318,426.162L436.067,426.185L435.816,426.21L435.566,426.235L435.315,426.262L435.064,426.29L434.813,426.319L434.563,426.348L434.312,426.379L434.062,426.411L433.811,426.444L433.56,426.478L433.307,426.513L432.809,426.584L432.308,426.659L431.807,426.738L431.306,426.819L430.805,426.904L430.304,426.991L429.803,427.081L429.302,427.173L428.801,427.268L428.3,427.364L427.798,427.463L427.297,427.563L426.795,427.665L426.293,427.769L425.791,427.874L425.289,427.98L424.785,428.088L423.782,428.305L422.775,428.525L421.768,428.746L420.76,428.968L419.752,429.188L418.74,429.408L418.236,429.516L417.731,429.623L417.225,429.73L416.719,429.835L416.213,429.939L415.707,430.042L415.201,430.143L414.694,430.242L414.187,430.339L413.68,430.435L413.173,430.528L412.666,430.62L412.158,430.708L411.651,430.795L411.143,430.878L410.635,430.959L410.127,431.038L409.616,431.113L409.365,431.149L409.111,431.185L408.857,431.219L408.603,431.253L408.349,431.287L408.095,431.319L407.84,431.35L407.586,431.381L407.332,431.41L407.078,431.439L406.823,431.467L406.569,431.493L406.315,431.519L406.061,431.544L405.806,431.568L405.552,431.591L405.298,431.613L405.043,431.633L404.789,431.653L404.535,431.672L404.28,431.689L404.026,431.706L403.771,431.721L403.517,431.736L403.262,431.749L403.008,431.761L402.753,431.771L402.499,431.781L402.244,431.789L401.99,431.796L401.735,431.802L401.481,431.807L401.226,431.811L400.971,431.813L400.717,431.814L400.462,431.813ZM394.889,436.443L395.072,436.424L394.895,436.444L394.889,436.443ZM394.755,436.428L394.889,436.443L394.885,436.443L394.755,436.428Z" style="fill:white;"/>
        </g>
        <g transform="matrix(1.70701,0,0,1.58708,-149.051,-432.702)">
            <text x="464.499px" y="472.485px" style="font-family:'Krungthep';font-size:12px;fill:white;">V</text>
        </g>
        <g transform="matrix(1.86965,0,0,1.75172,-221.259,-463.462)">
            <text x="464.499px" y="472.485px" style="font-family:'Krungthep';font-size:12px;fill:white;">L</text>
        </g>
        <g transform="matrix(0.746499,0.60804,1.0742,-0.874956,-289.303,338.989)">
            <rect x="622.146" y="424.58" width="4.352" height="32.834" style="fill:white;"/>
        </g>
        <g transform="matrix(-0.746499,0.60804,-1.0742,-0.874956,1590.24,338.989)">
            <rect x="622.146" y="424.58" width="4.352" height="32.834" style="fill:white;"/>
        </g>
    </g>
</svg>
