<?xml version="1.0" encoding="UTF-8" standalone="no"?>
<!DOCTYPE svg PUBLIC "-//W3C//DTD SVG 1.1//EN" "http://www.w3.org/Graphics/SVG/1.1/DTD/svg11.dtd">
<svg width="100%" height="100%" viewBox="0 0 574 161" version="1.1" xmlns="http://www.w3.org/2000/svg" xmlns:xlink="http://www.w3.org/1999/xlink" xml:space="preserve" style="fill-rule:evenodd;clip-rule:evenodd;stroke-linejoin:round;stroke-miterlimit:1.41421;">
    <g transform="matrix(1,0,0,1,-172.156,-349.346)">
        <g transform="matrix(13.3846,0,0,13.3846,-4018.03,-5200.9)">
            <path d="M313.06,425.434L313.06,421.549C313.06,421.549 314.231,421.189 314.231,421.063C314.231,420.936 313.06,420.382 313.06,420.382L313.06,416.434L317.063,416.434C317.61,416.434 318.079,416.631 318.472,417.024C318.864,417.418 319.06,417.887 319.06,418.431L319.06,420.382C319.06,420.382 319.953,420.939 319.953,421.063C319.953,421.187 319.06,421.549 319.06,421.549L319.06,423.437C319.06,423.978 318.864,424.446 318.472,424.841C318.079,425.236 317.61,425.434 317.063,425.434L313.06,425.434ZM315.057,424.431L316.06,424.431C316.338,424.431 316.575,424.332 316.77,424.135C316.965,423.939 317.063,423.706 317.063,423.437L317.063,421.549C317.063,421.549 317.834,421.187 317.834,421.063C317.834,420.939 317.063,420.382 317.063,420.382L317.063,418.431C317.063,418.159 316.964,417.925 316.765,417.73C316.567,417.535 316.332,417.437 316.06,417.437L315.057,417.437L315.057,420.382C315.057,420.382 316.208,420.862 316.208,421.057C316.208,421.251 315.057,421.549 315.057,421.549L315.057,424.431Z" style="fill:black;fill-rule:nonzero;"/>
        </g>
        <g transform="matrix(13.3846,0,0,13.3846,-4018.03,-5200.9)">
            <path d="M324.254,416.434L326.26,416.434C326.807,416.434 327.276,416.631 327.668,417.024C328.061,417.418 328.257,417.887 328.257,418.431L328.257,420.548C328.257,420.548 329.201,420.933 329.201,421.139C329.201,421.344 328.257,421.781 328.257,421.781L328.257,423.437C328.257,423.978 328.061,424.446 327.668,424.841C327.276,425.236 326.807,425.434 326.26,425.434L324.254,425.434C323.707,425.434 323.237,425.238 322.845,424.846C322.453,424.453 322.257,423.984 322.257,423.437L322.257,421.781C322.257,421.781 323.145,421.299 323.145,421.094C323.145,420.888 322.257,420.548 322.257,420.548L322.257,418.431C322.257,417.884 322.453,417.414 322.845,417.022C323.237,416.63 323.707,416.434 324.254,416.434ZM324.254,418.431L324.254,420.548C324.254,420.548 325.257,420.864 325.257,421.069C325.257,421.275 324.254,421.781 324.254,421.781L324.254,423.437C324.254,423.706 324.351,423.939 324.547,424.135C324.742,424.332 324.979,424.431 325.257,424.431C325.535,424.431 325.772,424.332 325.967,424.135C326.162,423.939 326.26,423.706 326.26,423.437L326.26,421.781C326.26,421.781 327.21,421.317 327.21,421.112C327.21,420.906 326.26,420.548 326.26,420.548L326.26,418.431C326.26,418.159 326.161,417.925 325.962,417.73C325.764,417.535 325.529,417.437 325.257,417.437C324.982,417.437 324.746,417.535 324.549,417.73C324.352,417.925 324.254,418.159 324.254,418.431Z" style="fill:black;fill-rule:nonzero;"/>
        </g>
        <g transform="matrix(13.3846,0,0,13.3846,-4018.03,-5200.9)">
            <path d="M334.454,420.437L337.454,420.437L337.454,420.606C337.454,420.606 338.402,420.938 338.402,421.075C338.402,421.213 337.454,421.431 337.454,421.431L337.454,423.437C337.454,424.099 337.24,424.598 336.814,424.932C336.387,425.267 335.935,425.434 335.457,425.434L333.451,425.434C332.904,425.434 332.434,425.238 332.042,424.846C331.65,424.453 331.454,423.984 331.454,423.437L331.454,421.768C331.454,421.768 332.36,421.349 332.36,421.155C332.36,420.962 331.454,420.606 331.454,420.606L331.454,418.431C331.454,417.893 331.647,417.426 332.033,417.029C332.418,416.632 332.891,416.434 333.451,416.434L335.457,416.434C336.713,416.434 337.379,417.099 337.454,418.431L336.451,418.431C336.372,417.768 336.041,417.437 335.457,417.437L334.454,417.437C334.179,417.437 333.943,417.535 333.746,417.73C333.549,417.925 333.451,418.159 333.451,418.431L333.451,420.606C333.451,420.606 334.199,421.043 334.199,421.155C334.199,421.267 333.451,421.768 333.451,421.768L333.451,423.437C333.451,423.712 333.549,423.946 333.746,424.14C333.943,424.334 334.179,424.431 334.454,424.431C335.091,424.399 335.426,424.068 335.457,423.437L335.457,421.431L334.454,421.431L334.454,420.437Z" style="fill:black;fill-rule:nonzero;"/>
        </g>
        <g transform="matrix(13.3846,0,0,13.3846,-4018.03,-5200.9)">
            <path d="M352.915,420.695L352.913,425.434L354.91,425.434L354.91,421.624C354.91,421.624 355.917,421.132 355.917,420.934C355.917,420.736 354.91,420.438 354.91,420.438L354.91,418.431C354.91,417.887 354.714,417.418 354.322,417.024C353.929,416.631 353.46,416.434 352.913,416.434L350.907,416.434C350.36,416.434 349.89,416.63 349.498,417.022C349.106,417.414 348.91,417.884 348.91,418.431L348.91,420.554C348.91,420.554 349.914,420.939 349.914,421.097C349.914,421.255 348.91,421.504 348.91,421.504L348.91,425.434L350.907,425.434L350.907,422.318M350.907,422.318L350.907,421.624C350.907,421.624 351.91,421.317 351.91,421.139C351.91,420.96 350.907,420.554 350.907,420.554L350.907,418.431C350.907,418.159 351.005,417.925 351.202,417.73C351.399,417.535 351.635,417.437 351.91,417.437C352.182,417.437 352.417,417.535 352.615,417.73C352.814,417.925 352.913,418.159 352.913,418.431L352.915,420.695" style="fill:black;fill-rule:nonzero;"/>
        </g>
        <g transform="matrix(14.2721,0,0,14.2721,-3926.78,-5576.56)">
            <path d="M312.645,417.214L312.645,420.67C312.645,420.67 313.551,421.066 313.551,421.238C313.551,421.409 312.645,421.701 312.645,421.701L312.645,425.254C312.645,425.374 312.705,425.434 312.825,425.434L314.097,425.434C314.217,425.434 314.277,425.374 314.277,425.254L314.277,421.486L314.361,421.486L315.189,423.562L315.621,423.562L316.461,421.486L316.545,421.486L316.545,425.254C316.545,425.374 316.605,425.434 316.725,425.434L318.057,425.434C318.177,425.434 318.237,425.374 318.237,425.254L318.237,421.701C318.718,421.564 319.314,421.317 319.293,421.093C319.275,420.914 318.757,420.75 318.237,420.67L318.237,417.214C318.237,417.094 318.177,417.034 318.057,417.034L316.797,417.034C316.677,417.034 316.569,417.094 316.533,417.214L315.441,420.982L315.369,420.982L314.289,417.214C314.253,417.094 314.145,417.034 314.025,417.034L312.825,417.034C312.705,417.034 312.645,417.094 312.645,417.214Z" style="fill:black;fill-rule:nonzero;"/>
        </g>
    </g>
</svg>
