<?xml version="1.0" encoding="UTF-8" standalone="no"?>
<!DOCTYPE svg PUBLIC "-//W3C//DTD SVG 1.1//EN" "http://www.w3.org/Graphics/SVG/1.1/DTD/svg11.dtd">
<svg width="100%" height="100%" viewBox="0 0 230 149" version="1.1" xmlns="http://www.w3.org/2000/svg" xmlns:xlink="http://www.w3.org/1999/xlink" xml:space="preserve" style="fill-rule:evenodd;clip-rule:evenodd;stroke-linejoin:round;stroke-miterlimit:1.41421;">
    <g transform="matrix(1,0,0,1,-2281.17,-325.919)">
        <g transform="matrix(0.498069,-1.21992e-16,1.21992e-16,0.498069,2097.27,207.132)">
            <path d="M442.656,341.158C526.767,348.476 677.35,394.016 750.334,436.451L819.69,520.94L794.593,520.91C780.106,502.013 758.765,484.799 729.706,471.016L689.975,517.943L662.017,517.852L670.056,498.153L681.001,495.344L700.625,454.049C624.395,421.631 543.866,420.3 528.305,430.923C518.763,437.437 526.646,453.47 526.403,463.737C526.041,479.029 526.183,489.376 526.183,489.376L533.507,519.627L507.376,518.86L502.828,492.133L493.912,473.3L478.191,447.905C477.627,450.354 470.72,468.084 470.72,468.084L469.271,503.237L469.837,519.467L444.048,518.683L442.463,502.372L441.754,457.327C441.754,457.327 454.549,415.886 455.497,413.064C455.497,413.064 435.043,373.23 438.69,354.596C439.314,351.475 440.549,346.622 442.656,341.158ZM488.642,305.468C523.824,306.174 577.384,318.182 637.611,332.253C637.611,332.253 651.469,281.502 671.751,269.562C693.604,256.697 761.017,263.605 761.017,263.605L796.184,240.814L823.563,280.862L779.85,370.748L749.676,350.302L750.41,319.373L719.486,335.356C719.486,335.356 739.922,372.148 741.926,385.058C743.441,394.825 732.497,409.949 731.507,412.818C680.383,366.545 585.536,329.431 488.642,305.468Z" style="fill:black;"/>
            <g transform="matrix(-1.54187,0,0,1.33788,1236.59,152.563)">
                <path d="M375.057,272.832L381.374,272.79L379.018,259.624L369.538,258.284L375.057,272.832Z" style="fill:black;"/>
            </g>
            <g transform="matrix(9.44121e-17,1.44441,-1.5533,8.91003e-17,921.746,26.0133)">
                <path d="M344.048,290.339L343.527,307.535L352.048,305.256L352.412,288.15L344.048,290.339Z" style="fill:black;"/>
            </g>
            <g transform="matrix(9.44121e-17,1.44441,-1.5533,8.91003e-17,982.335,38.8672)">
                <path d="M335.292,288.188L334.883,305.04L343.885,303.813L344.156,285.461L335.292,288.188Z" style="fill:black;"/>
            </g>
            <g transform="matrix(1.54187,0,0,1.44441,71.7276,61.7233)">
                <path d="M366.433,185.18C366.433,185.18 365.232,140.089 381.436,130.133C398.357,119.737 467.954,122.807 467.954,122.807L447.462,136.49C447.462,136.49 401.485,133.414 387.98,141.529C374.475,149.644 366.433,185.18 366.433,185.18Z" style="fill:black;"/>
            </g>
            <g transform="matrix(1.50559,0,0,1.38822,147.127,127.447)">
                <path d="M447.849,285.373L430.521,285.368L437.274,293.387L453.447,293.532L447.849,285.373Z" style="fill:black;"/>
            </g>
            <g transform="matrix(0.324463,1.29493,0.745691,-0.245961,238.842,197.814)">
                <path d="M129.667,231.845C126.913,205.563 129.882,207.064 129.882,207.064L113.644,183.206L133.639,116.703L108.937,156.263L98.067,181.618L103.786,198.722L129.667,231.845Z" style="fill:black;"/>
            </g>
        </g>
    </g>
</svg>
