<?xml version="1.0" encoding="UTF-8" standalone="no"?>
<!DOCTYPE svg PUBLIC "-//W3C//DTD SVG 1.1//EN" "http://www.w3.org/Graphics/SVG/1.1/DTD/svg11.dtd">
<svg width="100%" height="100%" viewBox="0 0 769 506" version="1.1" xmlns="http://www.w3.org/2000/svg" xmlns:xlink="http://www.w3.org/1999/xlink" xml:space="preserve" style="fill-rule:evenodd;clip-rule:evenodd;stroke-linejoin:round;stroke-miterlimit:1.41421;">
    <g transform="matrix(1,0,0,1,-270.787,-52.5396)">
        <g transform="matrix(2.76431,0,0,2.76431,-1137.52,-772.254)">
            <clipPath id="_clip1">
                <path d="M620.355,427.282L620.368,427.503L637.262,447.943L645.924,448L645.924,445.999L639.98,444.906L630.494,424.494C630.494,424.494 634.087,400.103 630.021,386.271L630.021,386.271C630.021,386.271 633.68,389.467 641.153,392.563C648.625,395.66 653.915,397.652 660.922,398.323L660.935,398.349L656.415,430.661L658.651,444.977L664.089,447.971L671.523,448.021L671.523,445.476L663.141,442.533L661.196,433.603L669.968,411.899L692.759,396.731C692.759,396.731 700.035,400.271 702.878,406.457C705.722,412.644 708.566,416.136 708.566,416.136C708.566,416.136 712.05,419.826 717.238,424.565C722.427,429.305 740.229,445.317 740.229,445.317L740.352,445.267L745.293,441.081C745.293,441.081 739.002,438.421 738.65,438.1C738.297,437.78 737.381,437.088 737.381,437.088L733.591,432.872L732.123,430.876L729.757,426.785C729.757,426.785 723.831,414.473 715.143,403.656L715.145,403.591L714.324,388.397L727.004,386.32C727.004,386.32 728.259,386.019 730.12,386.538C731.981,387.057 736.691,388.742 736.691,388.742L743.335,379.441L737.797,372.587L737.669,369.25L732.651,369.005L724.739,366.45L700.322,357.93L692.567,356.924L682.407,356.005L674.363,362.928L674.341,362.942L628.481,351.979L598.272,359.757C598.272,359.757 585.234,360.661 577.982,368.254L578.446,367.783C578.446,367.783 577.133,369.054 576.659,369.825C575.794,371.232 574.202,374.181 573.253,376.225C572.37,378.129 571.552,380.655 570.967,382.091C570.587,383.02 570.136,383.951 569.738,384.84C569.352,385.702 568.99,386.574 568.578,387.424C568.153,388.302 567.729,389.259 567.186,390.108C566.639,390.964 565.833,391.936 565.297,392.56C564.896,393.029 564.304,393.538 563.972,393.853C563.756,394.058 563.537,394.26 563.307,394.448C563.041,394.663 562.701,394.928 562.381,395.145C561.918,395.46 561.181,396.003 560.526,396.338C559.531,396.846 557.802,397.808 556.415,398.194C555.055,398.572 553.525,398.865 552.204,398.655C550.884,398.445 549.401,397.95 548.495,396.932C547.556,395.877 547.102,393.817 546.571,392.326C546.066,390.906 545.627,389.15 545.312,387.985C545.075,387.108 545.222,386.065 544.683,385.334C543.733,384.047 539.613,380.264 539.613,380.264L534.707,387.586C534.707,387.586 534.818,390.149 535.005,391.231C535.174,392.206 535.354,393.216 535.834,394.081C536.975,396.139 538.924,401.267 541.854,403.579C544.785,405.891 549.296,408.003 553.416,407.953C557.603,407.901 563.392,405.497 566.976,403.272C570.306,401.204 572.831,397.918 574.919,394.601C577.138,391.077 579.096,384.986 580.289,382.129C580.931,380.59 581.35,378.888 582.078,377.457C582.786,376.065 583.817,374.576 584.656,373.545C585.36,372.679 587.284,370.647 587.113,371.269C586.941,371.89 583.625,377.274 583.625,377.274L581.818,394.538L571.898,408.913L563.559,416.964L560.971,433.711L557.521,441.475L558.599,447.873L564.35,447.873L565.069,438.815C565.069,438.815 568.16,426.882 569.31,424.654C570.461,422.425 574.989,420.844 574.989,420.844L585.485,415.665L591.596,412.142L599.144,406.966L606.692,399.416C606.692,399.416 607.699,398.409 608.489,398.553C609.28,398.697 610.79,399.416 612.012,400.925C613.234,402.435 615.47,408.736 615.47,408.736L618.414,417.459C618.414,417.459 620.289,425.041 620.362,427.473"/>
            </clipPath>
            <g clip-path="url(#_clip1)">
                <g transform="matrix(0.510816,-0.718559,-0.815041,-0.579404,692.094,972.71)">
                    <rect x="545.002" y="326.22" width="21.22" height="58.356" style="fill:black;fill-opacity:0.397592;"/>
                </g>
                <g transform="matrix(1.98095,-2.78658,-0.913208,-0.64919,-218.962,2181.62)">
                    <rect x="545.002" y="326.22" width="21.22" height="58.356" style="fill:black;fill-opacity:0.397592;"/>
                </g>
                <g transform="matrix(0.347595,-0.488958,-0.501806,-0.356728,689.605,759.597)">
                    <rect x="545.002" y="326.22" width="21.22" height="58.356" style="fill:black;fill-opacity:0.397592;"/>
                </g>
                <g transform="matrix(0.615555,-0.865895,-0.904629,-0.643091,716.765,1088.32)">
                    <rect x="545.002" y="326.22" width="21.22" height="58.356" style="fill:black;fill-opacity:0.397592;"/>
                </g>
                <g transform="matrix(0.986254,-1.38735,-0.813649,-0.578414,436.644,1376.8)">
                    <rect x="545.002" y="326.22" width="21.22" height="58.356" style="fill:black;fill-opacity:0.397592;"/>
                </g>
                <g transform="matrix(0.619494,-0.871435,-0.814086,-0.578725,589.099,1062.05)">
                    <rect x="545.002" y="326.22" width="21.22" height="58.356" style="fill:black;fill-opacity:0.355424;"/>
                </g>
                <g transform="matrix(0.810107,-1.13957,-0.815041,-0.579404,430.92,1166.45)">
                    <rect x="545.002" y="326.22" width="21.22" height="58.356" style="fill:black;fill-opacity:0.397592;"/>
                </g>
                <g transform="matrix(0.365556,-0.514223,-0.815041,-0.579404,761.296,921.79)">
                    <rect x="545.002" y="326.22" width="21.22" height="58.356" style="fill:black;fill-opacity:0.397592;"/>
                </g>
                <g transform="matrix(0.546025,-0.768087,-1.31292,-0.933338,868.291,1176.27)">
                    <rect x="545.002" y="326.22" width="21.22" height="58.356" style="fill:black;fill-opacity:0.397592;"/>
                </g>
                <g transform="matrix(0.410216,-0.577047,-0.815041,-0.579404,729.792,969.466)">
                    <rect x="545.002" y="326.22" width="21.22" height="58.356" style="fill:black;fill-opacity:0.397592;"/>
                </g>
                <g transform="matrix(0.223077,-0.3138,-0.815041,-0.579404,927.029,836.768)">
                    <rect x="545.002" y="326.22" width="21.22" height="58.356" style="fill:black;fill-opacity:0.397592;"/>
                </g>
                <g transform="matrix(1.20709,-1.698,-1.18426,-0.84188,320.076,1610.65)">
                    <rect x="545.002" y="326.22" width="21.22" height="58.356" style="fill:black;fill-opacity:0.397592;"/>
                </g>
                <g transform="matrix(0.846498,-1.19076,-0.546944,-0.388817,348.801,1218.02)">
                    <rect x="545.002" y="326.22" width="21.22" height="58.356" style="fill:black;fill-opacity:0.397592;"/>
                </g>
                <g transform="matrix(0.616503,-0.867227,-0.605094,-0.430154,621.898,1052.65)">
                    <rect x="545.002" y="326.22" width="21.22" height="58.356" style="fill:black;fill-opacity:0.397592;"/>
                </g>
                <g transform="matrix(0.647547,-0.910898,-0.815041,-0.579404,484.838,1146.49)">
                    <rect x="545.002" y="326.22" width="21.22" height="58.356" style="fill:black;fill-opacity:0.397592;"/>
                </g>
                <g transform="matrix(0.166108,-0.233662,-1.15107,-0.818282,918.296,780.309)">
                    <rect x="545.002" y="326.22" width="21.22" height="58.356" style="fill:black;fill-opacity:0.397592;"/>
                </g>
                <g transform="matrix(1.26554,0.899657,0.107494,-0.151211,-117.742,-54.3601)">
                    <rect x="545.002" y="326.22" width="21.22" height="58.356" style="fill:black;fill-opacity:0.174675;"/>
                </g>
                <g transform="matrix(0.691944,-0.97335,-0.552881,-0.393037,452.916,1034.78)">
                    <rect x="545.002" y="326.22" width="21.22" height="58.356" style="fill:black;fill-opacity:0.397592;"/>
                </g>
                <g transform="matrix(0.900295,0.64001,0.698009,-0.981881,-110.492,439.174)">
                    <rect x="545.002" y="326.22" width="21.22" height="58.356" style="fill:black;fill-opacity:0.397592;"/>
                </g>
            </g>
        </g>
    </g>
</svg>
